<svg width="258" height="161" viewBox="0 0 258 161" fill="none" xmlns="http://www.w3.org/2000/svg">
<path d="M208.971 29.6405C208.944 29.4246 208.944 29.1818 208.917 28.9659C208.944 29.2087 208.944 29.4246 208.971 29.6405ZM245.186 65.7747C245.186 65.6128 245.213 65.4239 245.213 65.235L245.186 65.7747ZM248.02 123.282C248.02 123.201 247.993 123.12 247.993 123.039C247.993 123.147 248.02 123.201 248.02 123.282ZM236.821 79.7804C236.173 83.0997 235.498 86.392 234.608 89.6842C233.771 92.7876 232.638 96.5927 232.584 99.777C232.557 101.099 232.152 103.879 232.746 105.012C233.339 106.092 234.581 105.606 235.795 105.498H237.036C237.009 105.471 236.983 105.471 236.983 105.444C237.522 105.417 238.062 105.39 238.602 105.39C238.062 102.853 239.33 99.5881 239.789 97.0514C240.302 94.2179 240.68 91.3034 241.003 88.4429C241.705 82.479 242.029 76.4881 242.029 70.4703C242.029 69.4448 242.056 68.4193 242.137 67.4208C242.164 67.4748 242.191 67.5018 242.191 67.5558V66.5303C242.542 62.1586 243.459 57.9758 244.593 53.631C246.185 47.5862 248.829 42.162 250.988 36.333C248.613 37.6014 247.291 40.5428 246.05 42.7827C244.485 45.6702 243.378 48.7736 242.758 51.9849C241.516 58.1377 240.14 64.3175 238.71 70.4703C238.008 73.5467 237.441 76.677 236.821 79.7804ZM229.669 91.1955L229.615 90.7367C229.642 90.9256 229.669 91.0605 229.669 91.1955ZM232.125 89.2794C232.206 89.7652 232.368 90.17 232.611 90.4129C232.719 87.9571 233.42 85.5014 233.933 83.1267C234.554 80.2931 234.824 77.3247 235.282 74.4642C236.038 69.8226 237.495 65.3699 238.467 60.7823C240.464 51.3102 242.11 39.1396 250.449 32.9598C251.528 32.1502 252.742 31.5565 253.93 30.8819C254.604 30.5041 255.603 29.5326 256.358 29.3437C257.195 29.1548 257.546 29.2897 257.87 30.2612C258.328 31.6105 257.492 32.2312 256.682 33.2296C253.903 36.6299 252.715 40.9746 250.988 44.9416C247.048 54.0358 245.294 63.6428 245.294 73.4927C245.267 75.5436 245.213 77.6215 245.105 79.6725C245.078 79.5645 245.051 79.4836 244.997 79.3756V80.4281C245.024 80.3741 245.078 80.2931 245.078 80.2392C244.916 83.0727 244.7 85.9062 244.377 88.7397C243.783 94.2449 243 100.074 241.327 105.39C243 105.768 244.835 105.201 245.294 107.144C245.402 107.63 245.213 108.197 245.321 108.817C245.483 109.438 245.672 110.032 245.915 110.625C246.239 111.84 246.482 113.081 246.616 114.349C247.291 119.234 248.425 123.902 248.559 128.868C248.667 133.455 247.777 138.097 246.94 142.604C246.104 147.137 243.702 150.996 241.84 155.098C242.029 155.098 242.245 155.098 242.461 155.098C242.973 155.125 243.486 155.125 244.026 155.125C247.156 155.449 250.395 155.26 253.552 155.53C254.712 155.638 256.304 155.773 255.144 157.311C254.415 158.283 252.068 157.986 251.015 158.04C248.182 158.229 245.159 158.121 242.299 158.094C241.705 158.094 241.03 157.905 240.437 157.959C239.735 158.013 238.899 158.498 238.251 158.498C237.846 158.498 237.711 158.094 237.387 158.04C236.659 157.959 235.903 157.905 235.174 157.905C234.608 157.905 234.041 157.905 233.474 157.905C226.728 157.905 220.008 157.824 213.316 157.743C209.403 157.716 205.463 157.662 201.523 157.662C196.153 157.662 190.675 157.554 185.304 157.311C184.171 157.257 177.748 157.5 177.91 155.449C177.991 154.397 180.096 154.262 180.879 154.154C181.445 154.073 182.039 154.073 182.606 154.046C184.117 153.965 184.792 154.316 184.468 152.669C183.253 146.409 181.095 141.227 176.453 136.721C172.675 133.024 168.114 129.704 163.824 126.601C158.615 122.85 154.406 118.937 151.302 113.216C149.494 109.87 147.983 106.469 147.065 102.772C146.742 101.45 146.715 99.9389 146.31 98.6436C145.986 97.6451 145.284 96.9705 144.852 95.945C139.671 104.58 132.817 111.84 126.529 119.639C123.48 123.39 120.106 126.898 116.49 130.136C115.438 131.108 114.439 132.106 113.441 133.132C112.604 133.995 111.282 134.778 110.58 135.722C109.906 136.64 110.068 136.613 111.093 137.341C112.442 138.313 113.954 139.122 115.33 140.067C117.543 141.578 119.944 142.847 121.914 144.655C124.046 146.625 125.908 148.891 127.77 151.104C129.012 152.588 130.631 154.477 130.955 156.34C131.063 156.96 131.44 158.471 130.928 158.93C130.496 159.308 130.523 159.173 129.983 158.93C129.255 158.633 129.039 157.905 128.175 157.581C125.935 156.717 123.21 157.014 120.862 157.014C118.514 157.014 116.166 157.257 113.819 157.257C108.475 157.23 103.24 157.662 97.8969 157.905C92.2299 158.148 86.4819 157.554 80.8148 157.635C76.632 157.689 72.3143 157.392 68.0235 157.608C65.8107 157.716 63.6248 157.446 61.4659 157.419C58.6324 157.365 55.7449 157.77 52.8844 157.824C48.1888 157.905 43.5742 157.905 38.8787 158.04C28.732 158.283 18.6662 158.525 8.51949 158.687C7.27814 158.714 5.92884 158.66 4.68749 158.795C4.41763 158.795 4.14777 158.795 3.87791 158.795C4.12078 158.795 4.36365 158.795 4.63351 158.795C4.52557 158.795 4.44461 158.822 4.33667 158.822C2.90641 158.984 3.66202 159.281 2.69053 159.794C-0.0350555 161.224 0.585621 155.935 0.666579 154.882C1.0174 149.296 2.44765 143.818 4.14777 138.529C5.76692 133.509 7.08923 128.247 8.43853 123.093C9.94974 117.48 11.8927 112.083 13.6738 106.496C15.4819 100.802 16.9661 94.8655 20.2584 89.8192C21.014 88.6588 21.7966 87.4174 22.984 86.6888C24.3333 85.8792 24.3872 86.338 24.3872 84.8538C24.3872 83.4505 24.4682 81.5885 24.1444 80.2392C23.8475 79.0248 23.9015 79.7534 23.2268 78.8899C22.6871 78.1882 22.0934 77.7025 21.7156 76.8389C19.2869 79.2947 13.7548 77.9993 11.434 76.2452C8.57346 74.0864 6.3876 70.4433 5.60501 66.9621C4.95734 64.1825 5.73994 58.8663 8.84332 57.517C9.00524 57.463 9.19414 57.3821 9.41003 57.3281C9.73386 57.3011 10.0847 57.544 10.3545 57.1662C10.0577 57.2202 9.76084 57.2741 9.43701 57.3281C11.461 56.7614 15.8867 56.1407 16.1025 54.2517C16.2105 53.1453 14.2675 51.6071 13.8357 50.6626C12.9182 48.7736 12.2975 46.7496 11.9737 44.6717C11.5149 40.9206 13.215 36.7378 15.9406 34.2011C18.5313 31.7994 22.1204 29.9913 25.8984 29.2357C26.1143 29.2087 26.3302 29.2087 26.5191 29.1548C26.3302 29.1548 26.1683 29.1818 26.0064 29.2087C27.1938 28.9659 28.3811 28.8579 29.5685 28.8309C29.5146 28.8579 29.4606 28.8849 29.3796 28.9389C29.7304 28.9389 30.0813 28.9119 30.4321 28.9119C30.4051 28.8849 30.3511 28.8579 30.3241 28.8309C32.3211 28.8849 34.2911 29.2897 36.0452 30.1263C34.6959 24.9719 33.8863 20.5193 34.5609 15.1491C35.1546 10.5345 37.8802 7.94382 41.6312 5.62302C48.0269 1.68308 56.7434 0.144878 64.0836 1.27829C65.7567 1.54815 67.3489 2.08787 68.8871 2.54663C71.1269 3.19429 73.7985 2.9784 75.9304 4.03085C77.4686 4.78646 78.629 6.29767 79.9783 7.29615C81.5435 8.48354 82.8658 10.2376 83.9452 11.8568C86.293 15.338 85.3755 21.7876 83.4055 25.2688C83.0007 25.9974 82.461 26.6451 81.7863 27.1578C81.0577 27.6975 79.9513 27.8594 79.6005 28.5341C78.656 30.2882 79.5735 34.1202 79.6814 36.0362C79.8164 38.249 78.7099 39.9222 76.2002 40.0841C74.743 40.192 74.689 39.3555 74.0144 41.0826C73.5556 42.216 73.1508 43.4303 72.5032 44.4558C71.1539 46.5877 68.6982 46.3718 66.4583 46.3178C63.8677 46.2639 61.304 45.8321 58.7133 45.5892C59.388 47.7751 61.277 49.4752 62.4374 51.4452C64.0296 54.0898 64.9741 56.2756 65.2439 59.352C65.4329 61.7268 65.0281 63.5888 63.3819 65.3429C62.7073 66.0715 62.1136 66.0985 62.2755 66.9621C62.3834 67.4748 63.274 68.3114 63.5708 68.7432C64.4074 69.8226 65.3789 70.8211 66.1075 71.9815C68.914 76.4342 69.7506 83.2346 69.7506 88.4159C69.7506 88.6588 69.8855 89.1715 69.7776 89.4144C69.6966 89.6033 69.1029 90.17 69.1029 90.224C68.995 90.8986 69.6427 92.032 70.6681 92.14C71.7476 92.2479 73.6906 91.3574 74.689 91.0605C76.2812 90.6018 77.9004 90.251 79.4925 89.7652C82.0562 88.9826 84.6199 88.3619 87.2375 87.7413C88.4249 87.4714 89.6123 87.2285 90.7996 86.9856C92.1489 86.6888 92.7696 86.1221 93.4713 87.4984C94.0649 88.6858 93.6871 88.9017 95.1444 88.308C96.5746 87.7143 97.9779 86.9856 99.3812 86.311C101.864 85.1506 104.805 84.0982 106.937 82.3711C110.499 79.4836 111.822 74.869 115.222 71.8195C116.166 70.956 116.733 70.956 117.327 69.7686C117.974 68.5003 118.298 66.8811 118.649 65.5048C119.243 63.1301 119.675 60.7283 120.187 58.3536C120.862 55.3851 122.292 52.6865 123.345 49.88C123.749 48.7736 123.965 47.3703 124.64 46.3718C124.802 46.1019 125.153 45.967 125.288 45.7511C125.746 44.9955 125.746 44.8066 125.881 43.8891C126.448 39.6793 128.958 41.8921 131.683 42.8636C132.844 43.2684 138.322 45.8861 136.217 47.6401C137.081 47.883 138.106 48.018 139.104 48.2069C138.862 48.2069 138.619 48.2878 138.376 48.2608C138.781 48.2878 139.212 48.3418 139.644 48.3688C139.59 48.3418 139.563 48.3148 139.536 48.2878C141.236 48.6656 142.694 49.3942 142.667 51.5531C142.64 53.3882 141.56 55.3311 140.967 57.0582C140.454 58.5695 139.941 60.1077 139.401 61.6189C138.241 64.9381 136.838 68.1764 135.704 71.5227C135.192 73.0339 134.76 74.5991 134.031 76.0294C133.383 77.2977 131.872 78.701 131.602 80.0773C137.35 77.6215 142.721 74.2483 148.873 73.5197C149.008 73.5197 149.17 73.5197 149.305 73.5197C149.278 73.5197 149.278 73.4927 149.251 73.4927C150.088 73.4117 150.951 73.3847 151.842 73.4117C155.107 73.5197 158.049 74.896 159.857 77.7565C162.123 81.3456 163.608 85.3665 165.794 88.9826C173.808 102.152 183.361 114.134 192.186 126.763C192.861 127.734 193.724 128.652 193.967 129.839C194.129 130.622 193.832 131.405 193.994 132.16C194.372 133.725 196.288 135.668 197.61 136.559C200.12 138.286 204.168 140.715 207.298 140.499C205.328 135.803 205.355 130.649 205.463 125.603C205.517 121.851 205.868 118.1 206.299 114.403C206.407 113.405 206.542 112.379 206.677 111.381C206.785 110.328 206.974 109.303 207.244 108.278C207.595 107.09 208.081 107.198 207.028 106.146C205.409 104.5 203.466 103.15 201.847 101.477C198.312 97.888 194.669 95.0544 191.889 90.7637C189.244 86.6888 186.438 82.479 184.495 77.9993C182.471 73.3847 181.661 68.4733 180.663 63.5888C180.258 61.6189 178.774 59.406 179.071 57.3281C179.448 54.7105 180.663 56.6265 181.149 58.0297C182.66 62.3205 186.168 66.1525 189.109 69.6067C192.267 73.3308 196.126 76.4611 199.418 80.0773C203.007 84.0172 205.463 88.5508 208.647 92.7606C208.647 87.5254 206.866 82.2091 206.138 77.0548C205.49 72.4942 205.301 67.9336 204.896 63.373C203.979 52.9834 204.761 42.3239 206.057 32.0153C206.677 27.1308 206.326 22.3543 206.353 17.4429C206.353 15.8777 205.706 12.2886 206.542 10.8853C208.135 8.24066 209.052 14.0426 209.133 14.9062C209.376 17.4159 209.295 19.9256 209.187 22.4353C209.16 22.7321 209.133 23.002 209.106 23.2988C209.133 23.1639 209.16 23.029 209.16 22.894C209.052 25.3767 208.971 27.8325 209.187 30.3152C209.646 35.6854 210.644 40.8937 211.481 46.1829C212.398 51.9309 213.883 57.544 215.313 63.1571C216.797 69.067 218.065 75.1118 219.738 80.9678C220.197 79.1327 219.55 76.8659 219.442 74.9769C219.253 72.2783 218.929 69.6067 218.875 66.9081C218.821 62.6173 218.794 58.2456 219.037 53.9818C219.28 49.772 219.199 45.3463 220.494 41.2984C221.169 39.3824 221.978 37.4934 222.896 35.6854C223.975 33.4455 224.353 31.2867 224.974 28.9119C225.487 26.861 226.242 24.891 226.593 22.8131C226.809 21.5177 227.403 17.7127 228.887 20.6002C229.75 22.2734 229.372 24.7561 229.399 26.5641C229.426 28.8849 229.076 31.1247 229.022 33.4185C228.914 37.9252 228.833 42.4319 228.509 46.9385C228.158 51.4991 228.455 56.0867 229.372 60.5664C230.344 65.6668 230.641 70.7671 231.154 75.9484C231.423 78.62 231.855 81.2646 232.071 83.9362C232.152 84.9887 231.828 87.6333 232.125 89.2794ZM245.294 132.511C246.104 127.195 244.62 121.663 244.107 116.373C243.999 115.159 243.81 113.972 243.621 112.757C243.513 112.029 243.486 109.6 243 108.979C242.083 107.792 237.846 108.736 236.2 108.844C231.558 109.141 226.89 109.222 222.248 109.276C219.765 109.303 217.283 109.411 214.827 109.438C213.694 109.438 212.614 109.384 211.481 109.276C211.103 109.249 210.725 109.141 210.347 109.141C209.052 109.06 209.133 108.871 208.809 110.032C208.215 112.056 208.674 114.619 208.512 116.724C208.296 119.531 208.189 122.364 208.242 125.171C208.296 127.761 208.189 130.352 208.296 132.97C208.323 133.995 208.485 134.994 208.728 135.965C209.052 137.126 209.403 139.851 210.212 140.661C210.293 140.742 210.995 140.526 211.157 140.769C211.427 141.119 211.373 141.875 211.589 142.091C212.209 142.82 213.478 142.874 214.422 143.224C216.905 144.115 219.361 145.14 221.708 146.328C223.84 147.407 227.295 148.352 228.59 150.511C229.184 151.509 229.265 152.804 229.804 153.83C230.425 154.99 229.184 154.397 230.695 154.855C231.342 155.017 232.449 154.801 233.124 154.801H233.151C233.285 154.882 233.42 154.909 233.582 154.936C234.419 155.125 235.714 155.017 236.389 154.909C237.738 154.72 237.873 154.181 238.737 152.993C240.194 150.915 241.408 148.945 242.272 146.544C243.891 141.956 244.566 137.314 245.294 132.511ZM245.213 68.7971C245.213 68.5003 245.186 68.2034 245.159 67.8796C245.186 68.2034 245.186 68.5273 245.213 68.7971ZM245.051 77.5945C245.051 77.1628 245.078 76.731 245.078 76.2992C245.051 76.758 245.051 77.1898 245.051 77.5945ZM244.862 82.7219C244.889 82.3171 244.889 81.9123 244.889 81.4805C244.889 81.9123 244.862 82.3171 244.862 82.7219ZM230.56 105.633C229.777 96.1879 229.642 86.7428 228.401 77.3247C227.753 72.5212 227.753 67.6637 226.944 62.8872C226.539 60.5124 225.891 58.1917 225.513 55.8169C225.163 53.2532 225.379 50.6896 225.406 48.1259C225.433 45.5083 225.945 42.9446 226.08 40.327C226.134 39.5174 226.917 34.0662 226.188 33.7964C225.567 35.1187 225.433 36.8458 224.866 38.222C224.299 39.6253 223.57 40.9476 223.031 42.3509C221.87 45.4003 221.493 48.8545 221.358 52.0928C221.088 59.433 220.926 66.7192 221.412 74.0594C221.628 77.1898 221.789 80.3471 221.735 83.5045C221.681 86.9587 221.142 89.9811 221.789 93.4083C222.41 96.7815 222.842 100.209 223.031 103.636C223.112 105.039 223.193 105.579 223.651 105.741H223.328C223.732 105.93 224.218 105.957 224.65 105.768C224.893 105.741 225.19 105.714 225.54 105.687C227.214 105.552 228.887 105.687 230.56 105.633ZM229.13 30.0453C229.157 29.7485 229.184 29.4786 229.184 29.1818C229.157 29.5056 229.13 29.7754 229.13 30.0453ZM228.428 45.1035C228.428 44.7796 228.428 44.4828 228.401 44.159C228.401 44.4828 228.428 44.7796 228.428 45.1035ZM228.077 51.1753C228.077 50.8785 228.05 50.5546 228.05 50.2578C228.05 50.5546 228.05 50.8515 228.077 51.1753ZM226.215 153.101C226.377 153.074 226.485 153.02 226.62 152.939C223.058 151.428 219.577 149.35 215.853 148.298C212.371 147.326 208.971 146.166 205.598 144.978C202.872 144.007 200.417 143.251 197.934 141.551C196.423 140.58 195.1 139.311 194.075 137.827C192.914 136.127 192.672 133.725 191.43 132.214C189.757 134.049 187.787 135.452 185.79 136.91C185.116 137.422 183.442 138.529 183.227 139.311C182.93 140.31 183.712 141.254 184.117 142.253C185.116 144.817 185.628 147.38 186.168 150.052C186.384 151.131 186.87 152.723 187.733 153.182C188.543 153.587 190.837 153.29 191.835 153.209C197.016 152.804 202.117 152.427 207.352 152.777C213.262 153.182 219.577 153.452 225.46 153.02C225.702 153.128 225.972 153.155 226.215 153.101ZM221.142 69.2019C221.142 68.6622 221.115 68.0955 221.088 67.5288C221.115 68.0955 221.115 68.6352 221.142 69.2019ZM220.737 106.011C220.062 100.91 219.577 95.918 218.389 90.8986C217.04 85.2046 216.149 79.3486 215.016 73.6276C213.856 67.7717 211.886 62.1046 210.671 56.2487C209.511 50.6626 208.485 45.0765 207.649 39.4094C206.947 42.5398 207.19 45.994 206.947 49.1783C206.704 52.4167 206.677 55.682 206.812 58.9473C206.92 64.7762 207.487 70.4972 208.027 76.2452C208.027 76.2183 208.027 76.1643 208.027 76.1373C208.054 76.5151 208.081 76.8659 208.135 77.2437C208.809 82.1822 210.266 87.2015 210.32 92.1939C210.32 93.3004 210.158 94.5147 210.374 95.5942C210.617 96.7546 211.427 97.78 211.886 98.8865C212.614 100.641 214.476 104.23 212.668 105.687C212.641 104.284 211.346 102.503 210.698 101.261C209.727 99.3992 208.431 97.7261 207.379 95.918C205.193 92.086 202.656 88.4699 199.823 85.0966C197.043 81.8583 193.832 78.9708 190.891 75.8674C190 74.9499 182.903 65.9906 182.606 66.1255C184.819 74.6261 188.57 82.0202 193.697 89.1445C196.207 92.6257 199.229 94.9195 202.306 97.888C204.842 100.344 209.673 102.988 208.782 107.009C212.776 106.604 216.716 106.011 220.737 106.011ZM196.612 157.554C196.989 157.554 197.367 157.554 197.745 157.527C197.394 157.527 196.989 157.527 196.612 157.554ZM188.759 157.338C188.975 157.338 189.19 157.338 189.406 157.311C189.19 157.338 188.975 157.338 188.759 157.338ZM185.925 133.213C187.274 131.917 189.082 130.865 190.297 129.462C185.008 121.096 178.396 113.702 172.891 105.498C169.814 100.91 166.819 96.2418 164.201 91.3574C162.312 87.7952 161.152 82.7219 158.238 79.9963C156.942 78.8089 155.593 77.6215 153.866 77.0818C151.518 76.3532 148.253 77.0818 145.878 77.6485C141.452 78.728 137.135 80.4011 132.952 82.1822C128.715 83.9632 125.099 87.2015 121.267 89.7652C117.165 92.5448 112.712 94.5687 108.098 96.3228C104.077 97.861 100.515 100.074 96.5207 101.612C95.7381 101.909 94.0919 101.882 93.4443 102.287C92.7156 102.718 93.0125 104.014 92.1489 104.473C91.7442 104.688 91.6362 103.906 91.3124 103.933C90.9346 103.96 90.6107 104.392 90.2599 104.661C88.8027 105.768 89.6932 106.523 90.2599 108.062C92.122 113.081 93.1474 118.181 95.7651 122.931C97.9509 126.871 101 130.271 104.67 132.889C105.237 133.294 107.018 134.805 107.693 134.697C108.287 134.616 109.474 133.051 109.879 132.619C111.714 130.703 113.387 128.625 115.222 126.709C118.055 123.741 120.781 120.691 123.534 117.696C126.718 114.214 129.551 110.248 132.412 106.523C133.734 104.796 135.434 103.42 136.892 101.828C138.862 99.696 140.67 97.3752 142.559 95.1624C143.125 94.4877 144.07 92.7606 144.96 92.7876C145.581 92.8146 146.661 94.2449 146.984 94.7036C148.172 96.4037 148.172 99.4532 148.765 101.558C150.223 106.712 152.84 111.759 156.456 115.726C160.046 119.693 164.633 122.499 168.87 125.684C173.458 129.138 177.802 132.646 181.445 137.099C182.903 135.749 184.468 134.616 185.925 133.213ZM180.744 156.987C180.96 157.014 181.176 157.014 181.391 157.014C181.176 156.987 180.96 156.96 180.744 156.987ZM140.157 52.5786C139.024 52.2817 138.16 52.2817 137 52.1198C135.812 51.9579 134.733 51.2563 133.599 50.9594C132.52 50.6626 131.387 50.7435 130.307 50.4197C129.713 50.2308 129.201 49.826 128.634 49.6911C127.716 49.4752 126.637 49.3403 126.07 49.934C125.504 50.5546 125.315 52.2817 124.991 53.0643C124.181 55.2232 123.21 57.2741 122.535 59.487C121.914 61.4569 121.321 63.4269 120.781 65.4239C120.214 67.5288 119.081 69.2829 118.379 71.3068C117.867 72.845 117.354 74.4102 117.273 76.0563C117.192 77.6485 116.976 77.7565 118.568 77.9993C119.135 78.0803 119.89 78.3232 120.565 78.3501C120.862 78.4581 121.159 78.3771 121.456 78.2422C123.048 78.539 124.694 78.4851 126.232 78.728C126.799 78.8089 128.472 79.1327 128.985 78.8089C129.74 78.2962 130.01 76.4611 130.361 75.5976C130.982 74.0864 131.872 72.7641 132.466 71.2259C134.922 64.9381 137.188 58.6504 140.157 52.5786ZM118.757 87.0126C119.81 86.4459 127.393 83.1536 127.285 82.2631C125.612 82.2091 123.965 82.1552 122.292 82.1012C120.862 82.0472 118.649 82.3711 117.273 81.9393C116.517 81.6964 115.681 80.8059 115.411 80.1042C115.141 79.4026 115.762 76.2452 115.384 76.0294C113.522 77.9454 112.334 80.4551 110.688 82.506C108.853 84.7728 106.478 86.0951 103.834 87.3095C100.946 88.6318 97.9239 89.6842 94.9825 90.8177C93.7411 91.3034 93.7681 91.5733 93.6601 92.9495C93.4982 94.4608 93.5252 95.999 93.4713 97.5372C93.4713 97.1324 93.4982 96.7276 93.4982 96.3228C93.4713 96.7276 93.4713 97.1324 93.4713 97.5372C93.4443 97.9689 93.3903 98.4277 93.3363 98.8595C93.0665 99.3722 93.1204 99.5611 93.5522 99.4801C93.5522 99.4801 93.5522 99.4801 93.5522 99.4532C94.7936 99.2912 96.3048 98.0499 97.3302 97.5102C98.7065 96.7815 100.056 95.945 101.405 95.2164C103.996 93.7861 106.91 92.8416 109.663 91.6542C112.82 90.2779 115.735 88.6588 118.757 87.0126ZM122.346 153.155C123.372 153.155 125.099 153.803 126.016 153.425C123.291 150.403 120.781 147.812 117.354 145.626C113.765 143.332 110.203 141.065 106.748 138.61C99.759 133.671 94.6047 127.842 91.6632 119.639C90.9076 117.534 90.3949 115.321 89.8551 113.135C89.5583 111.975 88.9646 106.496 87.9661 106.011C87.3724 105.741 82.8928 108.871 82.1911 109.276C80.545 110.14 78.8719 110.922 77.1448 111.624C73.4477 113.135 69.6427 114.376 65.7567 115.321C61.0611 116.508 57.8768 114.538 54.9893 110.868C51.697 106.685 48.9714 101.99 45.949 97.5911C44.5997 95.6481 43.4393 93.5702 42.4408 91.4113C41.7662 89.9811 39.1485 86.0951 40.0661 84.5569C42.6567 86.5269 43.5742 90.4398 45.3553 93.0845C47.5412 96.3768 50.0239 99.4801 52.2367 102.745C54.0988 105.498 55.9878 108.844 58.7403 110.841C61.1421 112.595 63.4359 112.056 66.0265 111.273C69.1839 110.328 72.4222 109.843 75.5256 108.682C78.8719 107.414 82.0292 105.606 85.2675 104.122C86.7787 103.447 88.6138 103.042 90.044 102.179C91.2854 101.45 91.0965 101.045 91.1775 99.4801C91.2854 97.6451 91.3933 95.8101 91.4743 93.975C91.5283 92.7337 90.8536 91.0605 91.3124 90.143C87.6153 90.7907 83.9992 91.6542 80.3291 92.4098C78.3321 92.8146 76.3891 93.3273 74.3652 93.6782C73.5826 93.8131 72.5302 93.7861 71.8285 94.1369C71.2888 93.975 70.992 94.083 70.992 94.4338C70.965 94.6227 70.911 94.8116 70.857 95.0005C69.7236 95.5132 69.076 94.4068 68.0775 93.3543C66.9171 92.032 65.8916 90.5748 65.055 89.0366C63.0581 85.6094 60.7643 82.3711 58.9292 78.8359C57.0402 75.2198 55.529 71.3608 53.9368 67.6367C52.4796 64.2095 51.5351 60.4855 49.9429 57.1392C49.2143 55.7089 48.3238 54.3596 47.2443 53.1453C46.3538 52.0928 45.0045 49.853 43.7092 49.3672C43.3583 49.2323 42.4408 49.4482 42.063 49.4212C41.2804 49.3672 40.5788 49.0704 39.7692 49.1514C38.0151 49.2863 36.1261 50.3927 34.7498 51.3642C35.2895 51.85 36.315 52.3897 36.6928 53.0643C36.7198 53.3072 36.7198 53.5771 36.7468 53.8199C36.7468 53.5501 36.7198 53.3072 36.6928 53.0643C36.9357 53.4961 36.9087 54.0088 36.261 54.5755C34.6959 55.9788 33.8323 53.4691 33.2386 52.3627C30.4321 54.6835 30.8369 57.8678 30.513 61.1331C30.3511 62.8332 29.8924 64.5333 29.5955 66.2065C29.3796 67.4208 29.5415 68.6622 29.4876 69.9035C29.3257 73.0339 29.0288 76.0563 29.0288 79.1327C29.0558 82.452 29.2717 85.6364 29.5415 88.9286C30.0003 94.4608 30.9988 99.9929 31.8893 105.471C32.3751 108.547 33.0497 111.543 33.6974 114.592C34.453 118.046 35.8023 121.285 36.5849 124.739C37.3675 123.741 37.9612 123.741 39.2295 123.875C40.201 123.983 40.8487 123.741 40.7947 125.09C40.7677 125.98 39.9851 126.628 39.1216 126.79C38.0151 126.979 37.6103 126.439 37.0436 125.576C36.9087 127.168 37.9881 128.868 38.4199 130.433C38.8247 131.917 39.0946 133.374 39.7692 134.805C40.4439 136.181 41.0106 137.557 41.6582 138.934C41.9551 139.554 42.2519 140.202 42.5758 140.85C42.7377 141.2 42.9266 141.551 43.1425 141.875C43.6822 142.496 43.6012 142.199 44.2489 142.55C45.6521 143.332 45.1394 143.143 45.1664 144.763C45.1934 146.355 46.003 147.515 47.3253 148.433C50.1048 150.322 52.8574 150.861 56.0148 151.833C58.9562 152.723 62.0596 153.506 65.19 153.479C69.022 153.452 72.773 152.966 76.605 152.912C80.8148 152.858 85.0786 152.885 89.2884 153.02C91.0155 153.074 92.6347 153.155 94.3078 153.587C96.2508 154.1 98.1398 153.911 100.137 153.83C104.023 153.695 108.017 153.398 111.903 153.317C112.226 153.425 112.55 153.425 112.874 153.29C112.928 153.29 112.982 153.29 113.063 153.29C116.085 153.155 119.297 152.966 122.346 153.155ZM77.5765 30.639C77.6845 27.2388 78.7909 24.2703 79.8164 21.086C75.4986 22.0305 71.2618 23.1369 66.8361 23.7576C64.9471 24.0274 62.0056 24.6211 60.2785 23.3258C59.8198 23.002 59.9007 22.5432 59.5499 22.1384C58.8213 21.4098 57.9308 20.8971 56.9323 20.6272C51.5891 19.4938 51.0493 27.1308 53.7479 29.9913C54.4226 30.72 55.3671 31.0708 56.0417 31.7184C56.9593 32.582 57.0402 33.5265 57.1752 34.8488C57.472 37.3585 57.0672 39.8682 56.0148 42.162L56.4465 42.189C56.6624 42.216 56.8783 42.243 57.0942 42.243C61.0341 42.6477 65.136 43.7002 69.1569 43.1875C69.2109 43.1875 69.2649 43.1875 69.3188 43.1875C69.3188 43.1875 69.2918 43.1875 69.2918 43.1605C69.5887 43.1335 69.8855 43.0795 70.1824 43.0255C69.4268 42.7287 67.4568 42.2969 68.3473 41.1095C69.2379 39.8952 70.7761 41.4334 71.6666 41.2715C72.2333 41.1635 73.4477 38.8697 73.7715 38.384C74.5541 37.3045 74.6351 37.1156 76.0383 36.8188C77.3876 36.5489 77.6845 36.8458 77.8734 35.4965C78.0623 33.9583 77.5495 32.2042 77.5765 30.639ZM67.7806 88.7667C66.5932 83.5045 66.7552 77.4326 63.3279 73.0069C59.7928 68.4463 56.3116 63.9666 53.0193 59.1631C52.6955 59.1901 55.4211 65.7747 55.7449 66.5033C56.9053 69.2019 58.1197 71.8465 59.307 74.5181C60.4404 77.1088 61.8977 79.5105 63.3549 81.9393C64.5963 84.0172 65.8916 87.2015 67.7806 88.7667ZM59.9007 42.7287C60.2515 42.7827 60.6024 42.8097 60.9262 42.8636C60.5754 42.8097 60.2246 42.7557 59.9007 42.7287ZM52.3717 44.9146C52.1288 44.7796 50.1588 45.5892 49.835 45.6972C48.5127 46.1829 47.2713 46.9925 46.03 47.6671C46.9745 48.8275 47.946 49.9879 48.8905 51.1483C49.808 48.8815 50.9954 46.9925 52.3717 44.9146ZM48.8635 153.425C46.8125 151.914 44.2489 150.484 42.7107 148.352C41.0645 146.058 40.201 143.17 38.7438 140.742C35.8293 135.857 33.9672 129.812 32.456 124.334C29.3796 113.27 25.9254 102.422 25.0889 90.9526C23.4967 91.7622 22.2553 94.8925 21.4727 96.4577C20.4743 98.4547 19.9345 100.614 19.2869 102.745C17.9376 107.117 16.9931 111.651 15.3469 115.969C12.2166 124.28 10.1926 133.213 7.33211 141.632C7.33211 141.713 7.30512 141.794 7.30512 141.875C7.03526 144.466 5.60501 146.948 5.09227 149.512C4.8494 150.753 4.41763 151.968 4.14777 153.182C3.87791 154.37 2.87943 155.746 2.96038 156.906C6.65746 155.584 10.4085 155.26 14.2675 154.909C17.2899 154.639 20.4203 154.504 23.4427 154.451C23.1459 154.477 22.849 154.504 22.5522 154.531C22.849 154.504 23.1729 154.477 23.4967 154.451C24.1444 154.451 24.765 154.424 25.4127 154.424C25.5206 154.424 25.6556 154.424 25.7635 154.424C26.0604 154.666 26.4921 154.666 26.789 154.424C27.2477 154.424 27.6795 154.397 28.1383 154.397H28.597C28.597 154.397 28.57 154.397 28.57 154.37C31.3226 154.262 34.1292 154.073 36.8817 154.019C40.9026 153.965 44.9505 153.83 48.8635 153.425ZM31.2147 102.772C31.2147 102.449 31.2147 102.125 31.1877 101.801C31.1877 102.125 31.2147 102.422 31.2147 102.772Z" fill="#303332"/>
<path d="M247.993 123.066C247.993 123.147 248.02 123.228 248.02 123.309C248.02 123.201 247.993 123.147 247.993 123.066Z" fill="#220615"/>
<path d="M248.344 155.26C247.912 155.206 247.507 155.179 247.075 155.125C247.48 155.179 247.912 155.233 248.344 155.26Z" fill="#220615"/>
<path d="M245.186 65.7748L245.213 65.2351C245.213 65.424 245.213 65.6129 245.186 65.7748Z" fill="#220615"/>
<path d="M245.159 67.9067C245.186 68.2306 245.213 68.5274 245.213 68.8243C245.186 68.5274 245.186 68.2036 245.159 67.9067Z" fill="#220615"/>
<path d="M245.105 79.6455C245.159 79.8344 245.132 80.0233 245.078 80.2122C245.105 80.0233 245.105 79.8344 245.105 79.6455Z" fill="#220615"/>
<path d="M245.105 79.6455C245.105 79.8344 245.078 80.0233 245.078 80.2122C245.051 80.2931 245.024 80.3471 244.997 80.4011V79.3486C245.051 79.4566 245.078 79.5645 245.105 79.6455Z" fill="#220615"/>
<path d="M245.078 76.3262C245.078 76.7579 245.051 77.1897 245.051 77.6215C245.051 77.1897 245.051 76.7579 245.078 76.3262Z" fill="#220615"/>
<path d="M244.89 81.5076C244.89 81.9393 244.89 82.3441 244.863 82.7489C244.863 82.3171 244.89 81.9124 244.89 81.5076Z" fill="#220615"/>
<path d="M242.434 155.098C242.946 154.882 243.513 154.882 244.026 155.125C243.486 155.098 242.946 155.098 242.461 155.098H242.434Z" fill="#220615"/>
<path d="M242.461 155.098C242.919 155.098 243.459 155.098 244.026 155.125C243.486 155.125 242.973 155.125 242.461 155.098Z" fill="#220615"/>
<path d="M242.218 66.5034V67.5289C242.191 67.4749 242.164 67.4479 242.164 67.394C242.164 67.1241 242.191 66.8003 242.218 66.5034Z" fill="#220615"/>
<path d="M242.218 66.4763V66.5303C242.191 66.8271 242.164 67.124 242.164 67.4208C242.002 67.097 242.029 66.7462 242.218 66.4763Z" fill="#220615"/>
<path d="M242.002 120.529C242.002 120.502 242.002 120.475 242.002 120.448C241.975 120.044 241.975 119.666 241.948 119.261C241.975 119.693 242.002 120.125 242.002 120.529Z" fill="#220615"/>
<path d="M242.002 120.448C242.002 120.475 242.002 120.502 242.002 120.529C241.138 122.472 239.924 120.799 240.302 119.423C240.869 117.399 241.894 119.126 242.002 120.448Z" fill="#220615"/>
<path d="M238.359 125.306C239.087 125.387 240.68 125.576 239.546 126.628C239.006 127.141 236.389 126.871 235.579 127.033C230.722 128.058 225.217 128.733 220.251 128.625C217.93 128.598 215.583 128.409 213.262 128.274C210.941 128.139 210.698 127.195 213.316 126.898C214.881 126.709 216.446 126.682 218.038 126.682C217.957 126.709 217.876 126.709 217.796 126.736H220.656C220.602 126.736 220.548 126.709 220.521 126.709C220.872 126.709 221.223 126.709 221.547 126.709C221.574 126.709 221.601 126.709 221.628 126.709C221.601 126.709 221.574 126.736 221.574 126.736H223.166C223.112 126.709 223.085 126.709 223.031 126.682C225.055 126.601 227.079 126.331 229.103 126.142C229.13 126.142 229.157 126.142 229.184 126.142C229.507 126.115 229.831 126.088 230.182 126.061C232.503 125.98 235.067 125.198 237.441 125.252C237.333 125.279 237.225 125.306 237.117 125.333C237.522 125.306 237.927 125.306 238.359 125.306ZM233.178 125.899C232.719 125.926 232.233 125.98 231.774 126.034C232.233 125.98 232.719 125.926 233.178 125.899ZM215.853 126.736C215.313 126.79 214.773 126.817 214.233 126.871C214.773 126.844 215.313 126.817 215.853 126.736Z" fill="#220615"/>
<path d="M239.573 125.306C239.168 125.306 238.764 125.306 238.359 125.306H238.332C238.035 125.279 237.711 125.252 237.414 125.252C238.116 125.063 238.872 125.09 239.573 125.306Z" fill="#220615"/>
<path d="M238.332 125.306C237.927 125.306 237.522 125.306 237.091 125.333C237.199 125.306 237.306 125.279 237.414 125.252C237.711 125.225 238.035 125.252 238.332 125.306Z" fill="#220615"/>
<path d="M237.064 105.498H235.822C236.227 105.498 236.605 105.471 237.01 105.444C237.01 105.444 237.037 105.471 237.064 105.498Z" fill="#220615"/>
<path d="M235.822 105.498C236.2 105.363 236.605 105.228 237.01 105.444C236.605 105.471 236.2 105.498 235.822 105.498Z" fill="#220615"/>
<path d="M234.689 116.724C235.768 117.048 235.876 118.883 235.957 119.693C235.714 120.421 235.471 122.067 234.5 122.175C233.124 122.337 232.908 119.99 232.962 119.126C233.016 118.074 233.394 116.346 234.689 116.724Z" fill="#220615"/>
<path d="M234.959 154.909C234.5 154.936 234.014 155.044 233.555 154.963C233.394 154.936 233.259 154.882 233.124 154.828H233.097C233.744 154.828 234.338 154.855 234.959 154.909Z" fill="#220615"/>
<path d="M233.151 154.802C233.259 154.855 233.42 154.909 233.582 154.936C233.42 154.909 233.286 154.882 233.151 154.802Z" fill="#220615"/>
<path d="M231.774 126.034C232.233 125.98 232.719 125.926 233.177 125.899C232.719 125.926 232.233 125.98 231.774 126.034Z" fill="#220615"/>
<path d="M230.668 119.18C230.668 120.017 230.344 121.582 229.373 121.771C228.05 122.04 227.915 120.043 227.699 119.153C227.888 118.37 227.996 116.643 229.103 116.562C230.317 116.535 230.668 118.343 230.668 119.18Z" fill="#220615"/>
<path d="M229.615 126.089C229.777 126.089 229.966 126.062 230.128 126.062C229.777 126.089 229.453 126.115 229.13 126.142C229.319 126.115 229.48 126.089 229.615 126.089Z" fill="#220615"/>
<path d="M229.642 90.7637L229.696 91.2224C229.669 91.0605 229.642 90.9256 229.642 90.7637Z" fill="#220615"/>
<path d="M229.615 126.088C229.454 126.088 229.292 126.115 229.13 126.115C229.103 126.115 229.076 126.115 229.049 126.115C228.752 126.142 228.455 126.142 228.158 126.169C228.644 126.142 229.157 126.115 229.615 126.088Z" fill="#220615"/>
<path d="M229.184 29.2087C229.184 29.5056 229.157 29.7754 229.13 30.0723C229.13 29.7754 229.157 29.5056 229.184 29.2087Z" fill="#220615"/>
<path d="M228.401 44.1589C228.428 44.4828 228.428 44.7796 228.428 45.1034C228.428 44.7796 228.401 44.4828 228.401 44.1589Z" fill="#220615"/>
<path d="M228.05 50.2578C228.05 50.5547 228.077 50.8785 228.077 51.1753C228.05 50.8515 228.05 50.5547 228.05 50.2578Z" fill="#220615"/>
<path d="M226.62 152.939C226.512 153.02 226.377 153.074 226.215 153.101C226.026 153.128 225.783 153.101 225.459 152.993C225.837 152.966 226.242 152.966 226.62 152.939Z" fill="#220615"/>
<path d="M226.215 153.101C226.35 153.074 226.485 153.02 226.62 152.939C226.485 153.02 226.377 153.074 226.215 153.101Z" fill="#220615"/>
<path d="M223.652 105.714L224.785 105.687C224.731 105.714 224.677 105.741 224.65 105.768C224.191 105.795 223.867 105.795 223.652 105.714Z" fill="#220615"/>
<path d="M224.326 119.558C224.326 119.585 224.326 119.639 224.326 119.666C223.166 123.228 221.007 120.826 221.844 118.155C222.68 115.483 224.164 117.993 224.326 119.558Z" fill="#220615"/>
<path d="M223.652 105.714C223.867 105.795 224.191 105.795 224.623 105.768C224.191 105.93 223.733 105.93 223.301 105.741L223.652 105.714Z" fill="#220615"/>
<path d="M223.166 126.709H221.573C221.6 126.709 221.627 126.682 221.627 126.682C222.086 126.682 222.545 126.682 223.004 126.655C223.058 126.682 223.112 126.709 223.166 126.709Z" fill="#220615"/>
<path d="M221.628 126.709C222.059 126.52 222.572 126.52 223.004 126.682C222.545 126.682 222.086 126.709 221.628 126.709Z" fill="#220615"/>
<path d="M221.277 71.1179L221.358 72.4132C221.304 71.9815 221.277 71.5227 221.277 71.1179Z" fill="#220615"/>
<path d="M221.088 67.5288C221.115 68.0955 221.142 68.6622 221.142 69.2019C221.115 68.6352 221.115 68.0955 221.088 67.5288Z" fill="#220615"/>
<path d="M220.656 126.709H217.796C217.877 126.682 217.958 126.682 218.039 126.655C218.875 126.655 219.685 126.655 220.521 126.682C220.548 126.709 220.602 126.709 220.656 126.709Z" fill="#220615"/>
<path d="M218.039 126.682C218.848 126.52 219.712 126.52 220.521 126.709C219.685 126.682 218.848 126.682 218.039 126.682Z" fill="#220615"/>
<path d="M218.848 56.6536C218.821 57.0314 218.794 57.3822 218.767 57.76C218.767 57.4092 218.794 57.0314 218.848 56.6536Z" fill="#220615"/>
<path d="M218.821 61.8618C218.794 62.1856 218.794 62.4825 218.74 62.8063C218.767 62.4555 218.794 62.1856 218.821 61.8618Z" fill="#220615"/>
<path d="M218.659 119.801C218.659 119.828 218.659 119.855 218.659 119.882C218.335 120.502 217.985 121.851 217.121 121.717C216.042 121.555 216.015 119.477 216.122 118.694C216.23 118.019 216.527 116.886 217.418 116.913C218.389 116.94 218.578 118.127 218.632 119.072C218.632 119.315 218.632 119.558 218.659 119.801Z" fill="#220615"/>
<path d="M218.659 119.855C218.659 119.828 218.659 119.801 218.659 119.774C218.659 119.585 218.659 119.342 218.632 119.045C218.632 118.802 218.632 118.586 218.632 118.37C218.632 118.883 218.659 119.396 218.659 119.855Z" fill="#220615"/>
<path d="M218.632 119.072C218.659 119.342 218.659 119.612 218.659 119.801C218.632 119.558 218.632 119.315 218.632 119.072Z" fill="#220615"/>
<path d="M214.233 126.871C214.773 126.817 215.313 126.79 215.853 126.736C215.313 126.817 214.773 126.844 214.233 126.871Z" fill="#220615"/>
<path d="M213.91 119.126C214.153 119.558 214.153 120.097 213.937 120.556C213.937 120.232 213.937 119.801 213.91 119.369V119.342C213.91 119.261 213.91 119.18 213.91 119.126Z" fill="#220615"/>
<path d="M213.91 119.342C213.937 119.774 213.937 120.205 213.937 120.529C213.937 120.124 213.937 119.747 213.91 119.342Z" fill="#220615"/>
<path d="M213.909 119.342C213.936 119.747 213.936 120.125 213.936 120.529C213.532 121.474 213.289 122.742 212.047 122.122C211.103 121.636 210.968 119.639 211.157 118.748C211.13 119.234 211.13 119.72 211.157 120.206V118.748C211.346 117.804 211.724 116.724 212.803 117.156C213.64 117.48 213.855 118.424 213.909 119.315V119.342Z" fill="#220615"/>
<path d="M211.157 118.748V120.205C211.13 119.72 211.13 119.261 211.157 118.748Z" fill="#220615"/>
<path d="M209.187 22.4353C209.187 22.5702 209.187 22.7052 209.16 22.8671C209.16 22.7052 209.187 22.5702 209.187 22.4353Z" fill="#220615"/>
<path d="M209.187 22.4353C209.187 22.5702 209.187 22.7052 209.16 22.8671V22.8941C209.133 23.029 209.133 23.1639 209.106 23.2989C209.133 23.002 209.16 22.7321 209.187 22.4353Z" fill="#220615"/>
<path d="M208.917 28.9661C208.944 29.182 208.971 29.4248 208.971 29.6407C208.944 29.4248 208.944 29.2089 208.917 28.9661Z" fill="#220615"/>
<path d="M208.917 105.228C208.944 105.525 208.944 105.822 208.944 106.119C208.944 105.795 208.917 105.525 208.917 105.228Z" fill="#220615"/>
<path d="M208.135 77.2167C208.108 76.8929 208.081 76.5421 208.054 76.2183C208.081 76.5691 208.108 76.8929 208.135 77.2167Z" fill="#220615"/>
<path d="M208.026 76.2183C208.053 76.5421 208.08 76.8929 208.107 77.2168C208.053 76.839 208.026 76.4882 208 76.1104C208.026 76.1643 208.026 76.1913 208.026 76.2183Z" fill="#220615"/>
<path d="M206.327 113.702C206.327 113.783 206.327 113.864 206.3 113.945C206.327 113.864 206.327 113.756 206.327 113.702Z" fill="#220615"/>
<path d="M205.463 131.432V132.511C205.22 132.214 205.22 131.782 205.463 131.432Z" fill="#220615"/>
<path d="M205.463 123.957C205.436 124.496 205.409 125.063 205.382 125.603C205.382 125.063 205.409 124.496 205.463 123.957Z" fill="#220615"/>
<path d="M200.309 152.562H201.388C201.037 152.615 200.659 152.562 200.309 152.562Z" fill="#220615"/>
<path d="M197.745 157.527C197.367 157.554 196.989 157.554 196.612 157.554C196.989 157.527 197.394 157.527 197.745 157.527Z" fill="#220615"/>
<path d="M189.406 157.338C189.19 157.365 188.974 157.365 188.759 157.365C188.974 157.338 189.19 157.338 189.406 157.338Z" fill="#220615"/>
<path d="M188.489 141.875C188.381 143.656 186.465 142.334 186.6 141.146C186.87 138.934 188.084 141.092 188.489 141.875Z" fill="#220615"/>
<path d="M181.392 157.014C181.176 157.014 180.96 157.014 180.744 156.987C180.96 156.96 181.176 156.987 181.392 157.014Z" fill="#220615"/>
<path d="M157.59 139.878C158.319 140.337 158.022 142.01 157.968 142.685C157.752 146.571 157.509 150.726 155.431 154.127C153.65 157.068 150.196 157.5 147.038 157.689C146.85 157.689 146.661 157.689 146.472 157.716C143.773 156.717 140.94 157.365 139.186 154.478C138.727 153.749 138.376 152.939 138.106 152.13C137.971 151.779 137.863 151.401 137.809 151.023C137.944 150.214 137.647 149.998 136.919 150.349C135.488 150.079 133.923 151.05 132.412 150.753C128.769 150.052 129.417 144.817 131.872 143.008C132.358 142.658 132.844 142.55 133.384 142.361C134.598 141.983 135.273 142.415 136.379 142.307C137.297 142.226 137.539 141.281 138.511 140.85C139.159 140.58 140.022 140.607 140.697 140.58C144.205 140.445 147.713 140.445 151.221 140.202C152.867 140.094 154.649 140.364 156.241 140.067C156.996 139.932 156.888 139.473 157.59 139.878ZM155.755 147.839C155.998 146.679 156.699 143.764 156.214 142.685C155.62 141.335 149.899 142.739 148.253 142.901C147.443 142.982 146.634 143.035 145.824 143.062C145.851 143.062 145.851 143.062 145.878 143.062H145.203C145.284 143.062 145.392 143.089 145.473 143.089C143.476 143.17 141.452 143.143 139.455 143.008C139.455 146.004 139.293 148.918 141.075 151.509C142.316 153.371 144.691 153.803 146.958 154.019C146.58 153.992 146.229 153.938 145.878 153.911C146.256 153.965 146.607 153.992 146.958 154.019C149.44 154.505 152.813 153.83 154.406 151.644C155.161 150.592 155.512 149.053 155.755 147.839ZM137.297 147.623C137.351 146.652 137.404 145.653 137.431 144.655C136.541 144.898 132.223 145.383 132.223 146.733C132.223 147.569 136.541 147.542 137.297 147.623Z" fill="#303332"/>
<path d="M149.251 73.4658C149.278 73.4658 149.278 73.4928 149.305 73.4928C149.17 73.4928 149.008 73.4928 148.874 73.4928C148.981 73.4928 149.116 73.4928 149.251 73.4658Z" fill="#220615"/>
<path d="M149.251 73.4658C149.116 73.4658 149.008 73.4927 148.873 73.5197C148.658 73.5197 148.442 73.5467 148.226 73.5467C148.523 73.3038 148.927 73.2769 149.251 73.4658Z" fill="#220615"/>
<path d="M147.038 157.689C147.065 157.689 147.092 157.689 147.119 157.689C146.903 157.689 146.688 157.716 146.472 157.716C146.661 157.716 146.849 157.716 147.038 157.689Z" fill="#220615"/>
<path d="M146.472 157.743C146.661 157.716 146.849 157.716 147.038 157.716C146.849 157.716 146.661 157.716 146.472 157.743Z" fill="#220615"/>
<path d="M146.957 154.019C146.607 153.992 146.256 153.965 145.878 153.911C146.229 153.911 146.58 153.965 146.957 154.019Z" fill="#220615"/>
<path d="M145.878 143.036C145.851 143.036 145.851 143.036 145.824 143.036C145.716 143.036 145.581 143.036 145.473 143.036C145.392 143.036 145.284 143.036 145.203 143.009H145.878V143.036Z" fill="#220615"/>
<path d="M145.824 143.062C145.716 143.062 145.581 143.089 145.473 143.062C145.581 143.062 145.716 143.062 145.824 143.062Z" fill="#220615"/>
<path d="M139.509 48.2877C139.563 48.3147 139.59 48.3417 139.617 48.3687C139.185 48.3417 138.754 48.2877 138.349 48.2608C138.565 48.2877 138.835 48.2068 139.077 48.2068C139.239 48.2068 139.374 48.2338 139.509 48.2877Z" fill="#220615"/>
<path d="M139.509 48.2609C139.374 48.2339 139.24 48.2069 139.078 48.1799C139.24 48.1799 139.374 48.2069 139.509 48.2609Z" fill="#220615"/>
<path d="M137 52.1198C138.16 52.2817 139.024 52.2817 140.157 52.5786C137.189 58.6504 134.922 64.9382 132.466 71.2259C131.872 72.7641 130.982 74.0864 130.361 75.5976C130.01 76.4612 129.74 78.2962 128.985 78.8089C128.472 79.1328 126.799 78.8089 126.232 78.728C124.667 78.4851 123.021 78.5391 121.456 78.2422H121.429H120.349C120.43 78.2962 120.484 78.3232 120.565 78.3502C119.918 78.2962 119.162 78.0533 118.568 77.9994C116.976 77.7565 117.192 77.6485 117.273 76.0564C117.354 74.4102 117.867 72.845 118.379 71.3068C119.081 69.2829 120.214 67.5288 120.781 65.4239C121.321 63.4269 121.915 61.457 122.535 59.487C123.21 57.2741 124.181 55.2232 124.991 53.0643C125.315 52.2817 125.504 50.5546 126.07 49.934C126.637 49.3403 127.717 49.4752 128.634 49.6911C129.201 49.826 129.713 50.2308 130.307 50.4197C131.387 50.7435 132.52 50.6626 133.599 50.9594C134.733 51.2563 135.812 51.9309 137 52.1198ZM127.474 78.755C127.069 78.5121 126.664 78.5931 126.259 78.728C126.664 78.701 127.069 78.701 127.474 78.755Z" fill="#38A169"/>
<path d="M126.259 78.7009C126.664 78.566 127.069 78.485 127.474 78.7279C127.069 78.7009 126.664 78.7009 126.259 78.7009Z" fill="#FE7762"/>
<path d="M123.561 153.155H122.346C122.751 152.966 123.156 152.885 123.561 153.155Z" fill="#220615"/>
<path d="M121.429 78.2422C121.159 78.3771 120.835 78.4581 120.538 78.3501C120.862 78.3771 121.186 78.3501 121.429 78.2422Z" fill="#220615"/>
<path d="M120.349 78.2422H121.429C121.186 78.3501 120.889 78.3771 120.538 78.3501C120.484 78.3231 120.403 78.2692 120.349 78.2422Z" fill="#FE7762"/>
<path d="M111.552 147.137C111.876 145.734 116.544 148.163 114.979 149.971C114.466 150.565 113.09 150.025 112.55 149.674C111.606 148.999 111.525 148.379 111.552 147.353C111.552 147.272 111.552 147.191 111.552 147.137Z" fill="#220615"/>
<path d="M113.063 153.209C113.009 153.236 112.955 153.263 112.874 153.29C112.55 153.29 112.227 153.29 111.903 153.317C111.795 153.29 111.714 153.236 111.606 153.182C112.119 153.155 112.577 153.155 113.063 153.209Z" fill="#220615"/>
<path d="M112.874 153.29C112.55 153.398 112.226 153.425 111.903 153.317C112.226 153.29 112.55 153.29 112.874 153.29Z" fill="#220615"/>
<path d="M101.27 153.695C101.702 153.641 102.107 153.614 102.539 153.587C102.107 153.614 101.702 153.641 101.27 153.695Z" fill="#220615"/>
<path d="M96.9795 153.83C97.6541 153.776 98.3288 153.749 99.0034 153.722C98.3288 153.776 97.6541 153.83 96.9795 153.83Z" fill="#220615"/>
<path d="M94.9017 140.283C96.0081 140.742 97.5193 145.005 95.9272 145.221C94.1461 145.464 94.7398 141.147 94.9017 140.283Z" fill="#220615"/>
<path d="M93.5523 99.4533C93.1476 99.5882 93.0666 99.3724 93.3365 98.8596C93.3095 99.0755 93.2825 99.2644 93.2555 99.4803C93.3365 99.4533 93.4444 99.4533 93.5523 99.4533Z" fill="#220615"/>
<path d="M93.4984 96.3228C93.4984 96.7275 93.4714 97.1323 93.4714 97.5371C93.4714 97.1323 93.4714 96.7275 93.4984 96.3228Z" fill="#220615"/>
<path d="M93.3633 98.8057C93.4173 99.0216 93.4982 99.2374 93.5522 99.4263C93.4443 99.4263 93.3633 99.4533 93.2554 99.4533C93.2824 99.2374 93.3093 99.0485 93.3363 98.8327C93.3363 98.8596 93.3363 98.8327 93.3633 98.8057Z" fill="#220615"/>
<path d="M89.2344 131.405C89.6122 130.082 93.4982 131.486 93.2823 132.943C93.1743 133.725 91.5822 133.887 90.7456 133.698C89.5852 133.402 89.2344 132.646 89.2344 131.539C89.2344 131.486 89.2344 131.432 89.2344 131.405Z" fill="#220615"/>
<path d="M89.5583 146.948C90.7727 146.814 90.7457 147.758 90.6108 148.73C90.206 151.374 88.7217 151.509 88.155 148.945C88.3979 148.082 88.5058 147.029 89.5583 146.948Z" fill="#220615"/>
<path d="M86.5358 114.727C87.6153 113.999 88.5598 115.105 88.5598 116.266C88.5598 118.397 86.1041 119.072 85.5374 116.859C85.7263 116.266 85.9152 115.105 86.5358 114.727Z" fill="#220615"/>
<path d="M84.9169 99.5612C84.2692 102.098 82.6231 100.398 82.7041 98.4818C82.839 95.4054 84.5661 98.077 84.9169 99.5612Z" fill="#220615"/>
<path d="M81.0037 137.881C82.272 137.45 82.7578 140.148 82.0022 140.634C80.356 141.74 80.7068 138.529 81.0037 137.881Z" fill="#220615"/>
<path d="M81.6515 129.893C82.1102 132.511 78.0354 135.075 77.7115 131.351C77.6036 129.974 78.4941 129.03 79.5196 128.193C80.9768 126.979 81.7864 128.139 81.6515 129.893Z" fill="#220615"/>
<path d="M75.1208 119.801C76.686 119.935 78.8179 122.445 76.3892 122.85C74.5002 123.147 72.2873 120.394 75.1208 119.801Z" fill="#220615"/>
<path d="M73.9606 142.091C75.175 142.361 77.8736 145.329 76.3084 146.517C74.7972 147.677 72.8002 142.982 73.9606 142.091Z" fill="#220615"/>
<path d="M74.3383 24.8371C75.3908 24.7562 77.3338 25.9975 76.2813 27.1849C75.6336 27.9135 73.4748 27.5627 72.5842 27.7246C71.4238 27.9405 70.2095 28.2104 70.8302 26.4563C71.3159 25.107 73.097 24.7831 74.3383 24.8371Z" fill="#220615"/>
<path d="M74.2844 28.9661C75.9575 29.6947 74.1224 32.5012 73.2319 33.0679C72.1525 32.2044 72.6382 28.2644 74.2844 28.9661Z" fill="#220615"/>
<path d="M68.9141 130.568C68.7792 128.22 72.7461 127.276 71.9096 130.622C71.6667 131.567 71.4508 132.997 70.2904 133.051C68.9141 133.078 68.8601 131.459 68.9141 130.568Z" fill="#220615"/>
<path d="M69.3189 43.1605C69.2649 43.1605 69.211 43.1605 69.157 43.1605C69.211 43.1605 69.2379 43.1605 69.2919 43.1335C69.2919 43.1605 69.2919 43.1605 69.3189 43.1605Z" fill="#220615"/>
<path d="M69.265 43.1605C69.211 43.1605 69.1841 43.1875 69.1301 43.1875C68.7793 43.1875 68.4285 43.1875 68.0776 43.2145C68.4554 42.9986 68.9142 42.9716 69.265 43.1605Z" fill="#220615"/>
<path d="M65.325 98.9136C66.2425 99.0215 68.9141 101.585 67.5109 102.584C65.8107 103.798 64.8392 99.939 65.325 98.9136Z" fill="#220615"/>
<path d="M59.1722 137.53C59.3071 135.399 63.1931 135.507 62.9232 137.503C61.9247 138.421 58.9293 140.931 59.1722 137.53Z" fill="#220615"/>
<path d="M58.0658 123.228C58.9563 122.85 63.1661 126.925 61.574 128.031C60.7644 128.598 59.1992 127.626 58.6865 127.033C57.769 125.926 57.688 124.55 58.0658 123.228Z" fill="#220615"/>
<path d="M61.628 0.927541H60.6565C60.9264 0.711653 61.3311 0.711653 61.628 0.927541Z" fill="#220615"/>
<path d="M61.115 157.527C60.8182 157.554 60.5483 157.554 60.2515 157.581C60.5213 157.554 60.8182 157.527 61.115 157.527Z" fill="#220615"/>
<path d="M60.9261 42.8637C60.6023 42.8097 60.2515 42.7827 59.9006 42.7288C60.2245 42.7557 60.5753 42.8097 60.9261 42.8637Z" fill="#220615"/>
<path d="M56.2848 146.004C57.2562 146.598 61.7899 148.729 59.8469 150.268C59.1183 150.834 56.9054 149.647 56.4197 149.053C55.826 148.298 55.2593 146.625 56.2848 146.004Z" fill="#220615"/>
<path d="M56.4466 100.776C58.3626 98.4548 58.3086 102.692 58.2277 103.609C57.3641 104.014 57.1482 104.257 56.5006 103.582C55.9069 102.961 55.9338 101.342 56.4466 100.776Z" fill="#220615"/>
<path d="M53.2892 90.2781C53.2352 87.7414 56.7974 87.0128 56.6894 89.7384C56.7164 91.4925 53.3162 93.0846 53.2892 90.2781Z" fill="#220615"/>
<path d="M56.4465 81.9124C56.5275 83.0459 55.475 83.5586 54.5305 83.4776C53.7479 83.4237 52.6145 82.857 52.4796 82.0204C52.2637 80.779 53.4781 80.6981 54.4226 80.4282C55.2591 80.6981 56.3925 80.833 56.4465 81.9124Z" fill="#220615"/>
<path d="M55.448 21.7338C57.7958 22.5704 58.1736 28.2644 55.2591 28.3454C54.3686 28.1025 53.9638 27.158 53.8828 26.2405C53.9098 26.2675 53.9098 26.2945 53.9368 26.3215V25.0801C54.1797 24.5404 54.3955 24.0007 54.6384 23.4609C54.5575 23.272 54.4495 23.0562 54.3686 22.8673C54.4765 21.7608 54.1797 21.2751 55.448 21.7338Z" fill="#220615"/>
<path d="M53.9368 25.053V26.3213C53.9098 26.2943 53.9098 26.2673 53.8828 26.2404C53.8288 25.8086 53.8558 25.4038 53.9368 25.053Z" fill="#220615"/>
<path d="M53.9369 25.053C53.8829 25.4038 53.8559 25.8086 53.8829 26.2134C53.694 25.8626 53.694 25.4038 53.9369 25.053Z" fill="#220615"/>
<path d="M50.8336 117.372C52.6147 117.453 53.6132 117.372 53.6132 119.423C52.3718 119.612 46.9746 121.393 48.108 118.181C48.5398 116.967 49.7272 117.291 50.8336 117.372Z" fill="#220615"/>
<path d="M50.0509 127.654C51.886 128.625 49.2144 134.13 47.6762 132.97C45.5712 131.378 48.4587 128.166 50.0509 127.654Z" fill="#220615"/>
<path d="M47.4332 72.3323C49.5112 74.1403 45.6522 78.2152 44.114 76.65C43.3314 75.8404 44.06 74.1133 44.7077 73.4387C45.3553 72.7641 46.5427 72.6291 47.4332 72.3323Z" fill="#220615"/>
<path d="M47.1905 57.1661C47.4064 58.7043 43.6014 60.3505 43.6554 57.8408C43.6823 56.1137 46.9476 55.439 47.1905 57.1661Z" fill="#220615"/>
<path d="M44.9774 153.695H43.844C44.2218 153.506 44.5996 153.425 44.9774 153.695Z" fill="#220615"/>
<path d="M42.279 111.489C42.4409 112.029 41.0646 114.484 40.6058 114.673C39.3645 115.159 39.2026 114.053 38.7978 113.027C38.7708 111.597 41.7393 109.816 42.279 111.489Z" fill="#220615"/>
<path d="M36.6928 97.834C37.6643 98.2388 45.0044 100.614 41.1724 101.828C40.1739 102.152 38.6357 102.206 37.7722 101.639C36.7197 100.964 35.6673 98.9944 36.6928 97.834Z" fill="#220615"/>
<path d="M38.5008 62.3205C40.9836 62.0237 43.2774 66.1256 40.2279 65.9906C37.9881 65.9097 34.9927 62.3205 38.5008 62.3205Z" fill="#220615"/>
<path d="M36.6929 53.0645C36.7199 53.3073 36.7468 53.5502 36.7468 53.8201C36.7199 53.5772 36.7199 53.3073 36.6929 53.0645Z" fill="#220615"/>
<path d="M36.6929 52.8755C36.6929 52.9295 36.6929 52.9834 36.7199 53.0374C36.6929 53.0104 36.6929 52.9564 36.6929 52.8755Z" fill="#220615"/>
<path d="M36.477 78.1074C34.7768 78.4852 31.6465 75.2199 33.5625 74.4913C34.9118 73.9786 36.477 77.082 36.477 78.1074Z" fill="#220615"/>
<path d="M36.3151 91.6002C36.3691 92.7336 34.9388 93.0844 33.9673 93.1924C32.9418 93.2733 31.5656 93.0035 31.5386 91.6812C31.5116 90.2779 33.7244 90.3588 33.7514 90.116C34.6689 90.2779 36.2341 90.2779 36.3151 91.6002Z" fill="#220615"/>
<path d="M31.1877 101.774C31.2147 102.098 31.2147 102.422 31.2147 102.745C31.2147 102.422 31.1877 102.125 31.1877 101.774Z" fill="#220615"/>
<path d="M30.2973 28.8311C30.3243 28.858 30.3782 28.885 30.4052 28.912C30.0544 28.912 29.7036 28.939 29.3528 28.939C29.4068 28.885 29.4607 28.858 29.5417 28.8311C29.8115 28.8311 30.0544 28.8311 30.2973 28.8311Z" fill="#220615"/>
<path d="M30.2971 28.8309C30.0542 28.8309 29.7844 28.8309 29.5415 28.8309C29.7844 28.6959 30.0542 28.7229 30.2971 28.8309Z" fill="#220615"/>
<path d="M28.5971 154.37C28.4622 154.37 28.3273 154.37 28.1654 154.397H27.5447C27.8685 154.154 28.2733 154.154 28.5971 154.37Z" fill="#220615"/>
<path d="M26.8431 154.424C26.8431 154.424 26.8161 154.424 26.8431 154.424C26.4923 154.451 26.1415 154.451 25.7907 154.451L25.7637 154.424H26.8431Z" fill="#220615"/>
<path d="M26.816 154.424C26.5191 154.666 26.0874 154.693 25.7905 154.424C26.1413 154.424 26.4652 154.424 26.816 154.424Z" fill="#220615"/>
<path d="M25.9795 29.1819C26.1414 29.1549 26.3303 29.1549 26.4923 29.1279C26.2764 29.1549 26.0875 29.1819 25.8716 29.2089C25.9256 29.2089 25.9525 29.2089 25.9795 29.1819Z" fill="#220615"/>
<path d="M25.9794 29.1819C25.9524 29.1819 25.8985 29.2089 25.8715 29.2089C25.7096 29.2359 25.5477 29.2359 25.3857 29.2359C25.6016 29.2359 25.7905 29.2089 25.9794 29.1819Z" fill="#220615"/>
<path d="M23.4426 154.45C23.6315 154.423 23.8204 154.423 24.0093 154.396C23.8474 154.423 23.6855 154.423 23.5236 154.45C23.4966 154.45 23.4696 154.45 23.4426 154.45Z" fill="#220615"/>
<path d="M23.4429 154.451C23.4699 154.451 23.4969 154.451 23.5239 154.451C23.2 154.478 22.8762 154.505 22.5793 154.532C22.8762 154.505 23.173 154.478 23.4429 154.451Z" fill="#220615"/>
<path d="M10.3544 57.1663C10.0846 57.5171 9.73374 57.3012 9.40991 57.3282H9.4369C9.76073 57.2472 10.0576 57.1932 10.3544 57.1663Z" fill="#220615"/>
<path d="M4.66066 158.768C5.25435 158.768 5.84804 158.741 6.44173 158.741C5.82106 158.768 5.20038 158.768 4.60669 158.768C4.63368 158.768 4.66066 158.768 4.66066 158.768Z" fill="#220615"/>
</svg>
