<svg width="158" height="184" viewBox="0 0 158 184" fill="none" xmlns="http://www.w3.org/2000/svg">
<path fill-rule="evenodd" clip-rule="evenodd" d="M41.7522 41.4914C41.5661 44.5503 41.38 47.6359 41.1938 50.6948C42.3903 50.349 50.0741 48.0881 49.5955 50.3756C49.2499 52.0248 47.0963 53.8069 46.0062 54.9507C44.9959 56.0147 43.959 57.0255 42.8955 58.0362C44.8629 57.2915 46.8304 56.5733 48.8245 55.9083C50.34 55.4029 51.8555 54.9241 53.3976 54.5251C53.9825 54.3921 55.5246 53.8069 56.0563 54.2059C57.492 55.2433 49.7551 62.7975 48.6915 63.8615C50.1805 63.1699 51.7225 62.5315 53.2912 61.9995C54.4079 61.6006 57.8909 60.111 58.9012 61.3878C59.9647 62.7443 57.3325 65.9097 56.5881 66.8938C55.5511 68.3302 54.4079 69.6868 53.2114 70.9901C58.1833 75.4588 64.006 79.4222 70.2009 81.8959C74.7474 83.7047 79.2141 84.1568 84.0264 83.1727C88.9717 82.1619 93.6777 80.1935 98.1976 77.9592C100.856 76.6558 103.435 75.2195 105.935 73.6235C104.924 72.3733 103.914 71.0965 102.957 69.8198C101.574 67.9844 99.8727 65.9629 99.1016 63.7551C98.3306 61.6006 101.229 62.0261 102.611 62.1325C104.605 62.3187 106.599 62.6379 108.567 63.0901C107.184 62.1325 105.802 61.1218 104.472 60.0844C102.718 58.7278 100.404 57.2117 99.2611 55.2699C98.2508 53.5675 100.458 53.9931 101.468 54.2059C103.887 54.7379 106.254 55.6423 108.567 56.5467C110.268 57.1851 111.943 57.8766 113.618 58.5948C112.582 57.6905 111.571 56.7595 110.614 55.7753C109.311 54.4719 107.583 52.8494 106.998 51.0406C105.828 47.3433 113.751 50.1362 115.107 50.6948C114.868 46.8645 114.602 43.0608 114.363 39.2305C103.861 42.0234 93.3587 44.8163 82.83 47.6359C81.6867 47.9285 80.2776 48.5935 79.0812 48.6201C78.0177 48.6467 76.7149 48.1679 75.6779 47.9817L56.6678 44.3376C51.6694 43.38 46.6975 42.449 41.7522 41.4914Z" fill="#38A169"/>
<path fill-rule="evenodd" clip-rule="evenodd" d="M154.669 172.84C153.5 173.478 152.25 173.984 150.947 174.329C150.203 174.516 148.98 175.127 148.342 174.569C148.023 174.303 147.969 173.691 147.783 173.345C147.464 172.813 147.092 172.281 146.693 171.803C145.763 170.606 144.779 169.435 143.742 168.318C143.263 167.786 142.359 166.536 141.509 166.616C140.445 166.722 140.472 168.185 140.738 168.956C141.588 171.35 144.167 173.452 145.842 175.26C145.417 175.925 143.077 175.846 142.413 175.686C141.429 175.447 141.322 174.728 140.871 173.93C139.807 172.042 137.653 170.978 135.872 169.861C135.234 169.462 133.851 168.318 133.001 168.611C132.203 168.877 132.23 169.887 132.495 170.552C132.868 171.563 133.984 172.255 134.782 172.893C135.872 173.718 136.856 174.675 137.733 175.713C136.43 175.819 135.154 176.005 133.851 176.112C132.283 176.245 130.98 175.393 129.544 174.888C128.215 174.436 126.885 174.063 125.556 173.532C124.094 172.946 122.525 172.734 121.063 172.228C115.24 170.207 109.497 167.68 103.887 165.126C101.202 163.903 98.5963 162.706 95.778 161.748C93.7307 161.056 90.5402 159.673 90.0617 157.253C89.7958 155.976 90.7529 154.593 90.8859 153.316C91.0454 151.773 90.9125 150.204 90.4605 148.714C90.0617 147.438 89.397 146.267 88.8652 145.044C88.2537 143.607 88.812 143.634 90.0085 143.474C91.4442 143.288 93.1192 142.463 94.4486 141.958C96.0173 141.32 97.5062 140.548 98.9419 139.644C100.192 138.819 101.361 137.862 102.372 136.745C103.409 135.627 104.073 134.297 105.084 133.154C108.779 137.702 112.315 142.33 116.25 146.693C118.085 148.714 120.159 150.496 122.419 152.013C123.376 152.678 124.333 153.422 125.37 153.928C126.673 154.566 128.135 154.965 129.464 155.577C134.569 157.811 139.541 160.365 144.3 163.238C146.613 164.647 148.554 166.27 150.602 168.052C151.24 168.611 156.451 171.829 154.669 172.84ZM94.4486 135.494C93.6244 135.867 92.8268 136.372 91.9494 136.612C92.1887 135.095 93.6244 132.781 95.4589 133.021C96.1502 133.127 96.682 133.659 96.3895 134.404C96.0704 135.069 95.0335 135.228 94.4486 135.494ZM36.6738 94.0525C35.7432 94.5845 34.8658 94.8771 34.3075 93.7599C34.7063 93.6801 36.5674 93.4141 36.6738 94.0525ZM35.1051 90.8872C34.3872 90.6744 34.9722 90.435 35.2115 90.169C35.5305 89.7966 35.9027 89.4242 36.275 89.105C37.2853 88.5731 38.0297 90.5414 38.5083 91.1798C37.3916 91.1 36.2218 91.233 35.1051 90.8872ZM42.8953 97.6966C41.5127 97.936 41.6722 96.2071 41.6988 95.3293C41.9913 95.7017 43.9588 97.5105 42.8953 97.6966ZM47.4417 94.7175C45.7667 95.0101 44.6501 92.0842 44.9425 90.834C45.2084 89.7168 46.5112 89.0784 47.5481 88.9188C48.5584 88.7592 49.941 88.972 50.26 90.1424C50.5259 91.1532 48.585 94.5313 47.4417 94.7175ZM87.2168 138.553C86.0203 138.926 84.8239 138.979 83.6009 139.325C82.2183 139.75 80.9421 139.697 79.5596 139.99C79.0012 140.096 77.4857 140.921 76.9274 140.734C76.3956 140.548 75.598 138.872 75.279 138.42C77.725 137.41 79.7988 136.106 81.4207 133.952C82.6969 132.249 84.0794 129.696 83.2552 127.515C82.3512 125.041 79.2139 124.509 77.1401 125.546C76.1298 126.025 75.1992 126.637 74.3484 127.382C73.4178 128.233 73.0456 129.164 72.4607 130.201C71.8492 131.265 71.4238 130.68 70.8122 129.776C70.2805 129.004 70.3603 128.233 69.7222 127.461C69.4031 127.062 68.8713 126.69 68.7118 126.185C68.6055 125.865 68.8448 125.307 68.6321 125.041C68.3396 124.695 67.9939 125.094 67.7281 124.801C67.542 124.562 67.5951 124.057 67.4356 123.764C67.2761 123.604 67.09 123.471 66.9039 123.338C66.6646 123.232 66.6114 123.072 66.7709 122.886C66.5848 122.54 66.7709 122.407 66.3455 121.982C65.7074 121.37 65.1491 120.652 64.6971 119.907C64.4844 119.535 64.511 119.003 64.2451 118.71C63.8995 118.285 63.3145 118.338 62.9955 117.806C62.7296 117.327 62.9157 116.502 62.4637 116.077C62.2244 115.997 61.9852 115.944 61.7725 115.891C61.6129 115.731 61.48 115.518 61.4534 115.279C61.2141 114.906 61.1609 114.454 60.8419 114.055C60.257 113.284 59.4593 112.592 58.9276 111.768C58.3692 110.917 58.6617 110.784 59.6189 110.464C60.4697 110.225 61.2939 109.906 62.0649 109.48C65.7606 107.326 69.2967 101.607 63.3943 99.8512C61.2141 99.2128 59.4062 97.4572 56.9867 98.1488C55.9232 98.468 54.966 99.0532 54.1684 99.8246C53.6367 100.357 53.1315 101.74 52.4668 102.006C51.2704 102.485 51.7755 101.288 51.4299 100.729C51.2704 100.463 50.6057 100.17 50.3664 99.931C50.0739 99.6384 49.8346 99.3192 49.6219 98.9468C49.3295 98.3882 48.9572 97.8828 48.5052 97.4306C48.3191 97.2445 47.3088 96.2071 48.2128 96.3401C47.8406 95.2495 48.3723 95.0633 49.1168 94.2653C49.9676 93.3077 50.8715 92.0044 50.8715 90.6744C50.8715 88.1209 47.8671 86.9771 45.9794 88.4933C45.6072 88.8124 43.3207 91.765 43.7727 89.8764C44.0119 88.8656 46.3517 86.1791 47.4417 86.8707C46.2187 85.1151 43.4536 89.3976 42.8155 90.2754C42.2572 89.2646 42.2306 88.4667 41.3 87.6687C40.5556 88.8656 40.9544 87.5623 40.7948 87.2963C40.4492 86.7111 40.6353 87.3761 40.4492 87.1633C40.2099 86.8973 39.8377 86.7111 39.5718 86.3653C39.1464 86.9505 39.3059 86.3121 39.173 86.0993C38.854 85.5939 38.9869 85.2747 38.4551 84.8225C38.0563 84.5033 37.2853 83.998 36.7801 83.9448C36.1686 83.8916 36.0091 84.131 35.3976 83.9448C34.6265 83.732 33.6162 83.3862 34.015 84.7161C34.2809 85.6737 35.4242 86.2057 35.6634 87.1899C35.9027 88.1741 34.9456 89.1582 34.467 89.9562C33.8555 90.9936 33.3769 90.9138 32.2868 91.1266C31.5955 91.2862 30.665 91.6054 31.2499 92.43C31.6753 93.0417 32.6856 92.9088 33.244 93.2545C34.0416 93.7599 34.015 95.0101 35.0253 95.2229C36.142 95.4623 36.7801 94.2121 37.7107 93.9195C38.3754 93.7067 40.4492 93.7333 40.981 94.2387C41.6988 94.9303 41.0873 96.2337 41.2468 97.0849C41.5127 98.335 42.3635 98.4148 43.4536 98.468C44.783 98.5212 45.235 99.798 45.9528 100.809C47.6279 103.176 49.0636 105.703 50.7918 108.044C51.5362 109.081 52.6529 109.986 53.2644 111.129C54.0355 112.513 52.972 113.31 52.0414 114.321C50.845 115.625 49.941 117.088 48.9041 118.524C47.9735 119.774 46.8302 119.482 45.3679 119.482C45.687 118.79 46.0858 118.391 46.91 118.471C46.0592 117.433 45.3945 118.63 44.8362 119.269C44.0385 120.226 43.0016 120.439 41.9913 121.078C41.6191 121.29 39.6516 122.727 40.2631 123.205C40.3429 123.259 43.5865 121.131 43.9588 120.918C43.9588 121.716 43.7727 122.54 43.9056 123.312C43.9854 123.897 44.3842 124.482 44.3044 125.094C44.1449 126.238 42.6826 127.116 42.0445 127.993C41.5659 128.658 41.6988 129.19 41.433 129.882C41.2203 130.52 41.3266 130.334 40.7948 130.547C39.6782 130.946 37.817 130.733 36.8067 130.148C36.1686 129.776 35.69 129.217 35.1849 128.712C34.8126 128.339 33.8289 127.674 33.7226 127.142C33.5364 126.238 35.3444 124.535 35.7166 123.604C36.727 120.945 34.9988 118.87 32.2868 118.737C33.111 118.098 34.148 118.577 35.0253 118.817C33.5364 116.742 30.9574 118.444 29.6812 119.854C28.8038 117.646 28.405 115.332 27.8733 113.044C27.5011 111.475 26.1451 108.709 26.7566 107.086C27.0491 106.315 27.8999 105.863 28.4848 105.331C29.1495 104.692 29.7078 104.001 30.1864 103.229C31.3297 101.447 31.9678 99.1862 30.4257 97.4306L31.8614 97.1913C31.0904 96.4731 29.8674 96.8189 28.857 96.6061C28.2189 96.4731 26.3844 96.5529 25.959 96.2071C25.4538 95.7815 25.7729 93.7865 25.7995 93.2013C25.8526 91.8182 25.959 90.4882 26.1185 89.1316C26.2514 87.8283 26.2249 86.4451 26.4907 85.1683C26.7034 84.131 27.3947 83.8118 28.1923 83.2266C30.1066 81.7636 31.6753 80.008 31.0106 77.5077C31.2499 77.4811 31.4626 77.4279 31.7019 77.4013C30.9574 76.8693 29.9737 77.0555 29.1495 76.7629C29.9205 74.6084 31.5955 70.8313 34.3607 70.6185C34.467 71.576 34.3872 72.7198 35.0519 73.5178C35.7964 74.4222 37.0992 74.5286 38.0829 74.0232C39.0401 73.5178 39.8111 72.7198 40.2631 71.7622C40.5556 71.1505 40.5024 70.1131 40.981 69.6077C41.6457 68.9427 46.2453 69.3417 46.1124 70.4589C46.0326 71.0973 44.8096 72.2144 44.4639 72.773C43.7992 73.8104 43.3473 74.9808 43.108 76.1777C42.7623 78.0131 42.9484 80.4602 44.8362 81.4178C46.9632 82.5084 49.5422 81.1252 51.2969 79.9017C52.2541 79.2367 53.1847 78.4919 54.0621 77.7205C54.5406 77.3215 54.9926 76.8959 55.418 76.4171C55.7105 76.0713 55.9764 75.5127 56.3486 75.2734C57.226 74.6616 58.1034 75.6989 58.8478 76.2309C60.0443 77.0821 61.2939 77.8801 62.5701 78.5983C65.2288 80.0346 67.6483 81.9232 69.988 83.8118C72.3543 85.7003 74.7738 87.6687 76.6881 90.036C75.5448 90.7542 75.7309 90.9404 75.2258 92.1906C74.8535 93.0949 74.3484 93.8663 74.2952 94.8505C74.1889 96.5529 75.3321 98.069 76.9806 98.4414C77.8845 98.6276 78.8417 98.5212 79.6925 98.0956C80.3572 97.803 81.0485 97.0583 81.7397 96.8721C83.0425 96.5263 84.106 99.0266 84.8505 99.9044C88.1208 103.788 91.5771 107.512 94.6613 111.582C95.0069 112.034 96.0173 112.911 96.097 113.497C96.2034 114.348 94.874 115.172 94.3157 115.651C94.0232 115.917 90.939 118.817 91.976 119.269C92.2684 119.402 93.1458 117.62 93.3585 117.46C94.1827 116.875 93.5446 118.019 93.518 118.577C93.3851 119.987 94.3688 120.758 95.7248 120.572C97.1871 120.386 98.4633 119.242 99.3673 118.152C100.484 119.455 102.239 121.423 102.584 123.179C102.797 124.296 101.84 127.009 103.621 127.249C103.887 127.275 104.898 126.557 105.084 126.956C105.243 127.302 104.153 127.914 104.02 128.02C103.435 128.499 102.903 129.031 102.425 129.643C101.787 130.334 100.936 130.946 100.245 131.611C99.5002 132.329 98.0379 134.244 97.0542 133.313C96.549 132.834 96.682 132.223 95.9109 131.957C95.1931 131.717 94.2891 132.036 93.6244 132.302C92.8799 132.622 90.4073 133.739 90.1148 134.696C89.7426 136 91.7898 134.43 92.1355 134.218C91.7101 135.282 91.4974 136.798 90.4339 137.41C89.4501 137.968 88.1739 138.261 87.2168 138.553ZM73.1785 130.6C73.8698 128.339 78.0175 124.323 80.6496 125.573C77.5921 126.211 75.1726 128.286 73.1785 130.6ZM74.7472 137.064C73.7369 136.505 73.79 134.829 73.4178 133.872C73.2051 133.313 72.8063 132.914 72.9127 132.302C73.0456 131.584 73.9762 130.786 74.4547 130.254C75.9968 128.605 78.7087 126.371 81.1814 126.743C84.3453 127.222 82.1917 131.478 81.1282 132.914C80.2508 134.164 76.7147 138.154 74.7472 137.064ZM67.3559 134.297C63.926 134.058 60.5228 133.765 57.1728 133.127C55.9764 132.914 54.966 132.941 55.6573 131.558C55.87 131.105 57.2526 128.259 57.545 128.339C57.7311 128.392 57.678 130.334 57.7311 130.574C57.9704 131.584 58.6617 132.515 59.805 132.462C61.6661 132.356 62.8891 129.935 63.8729 128.632C64.6705 129.696 65.2288 130.866 66.0265 131.903C66.3987 132.409 67.7281 133.579 67.3559 134.297ZM47.3354 120.891C46.7505 122.195 45.6072 123.471 44.8096 124.642C44.3576 123.684 44.0385 121.476 45.102 120.758C45.5274 120.492 47.7076 120.04 47.3354 120.891ZM59.1935 124.801C59.353 124.296 59.5391 123.791 59.7252 123.312C60.0443 124.349 60.2304 124.376 59.1935 124.801ZM62.1181 125.865C62.5435 126.557 63.2348 127.249 63.1284 128.153C63.0487 128.818 62.4371 129.51 62.0117 129.962C61.2939 130.733 59.7252 132.223 58.6883 131.185C57.8109 130.334 58.13 127.967 58.5288 127.009C59.0605 125.653 61.1344 124.19 62.1181 125.865ZM60.0708 124.429C60.3101 124.323 59.805 122.806 60.2836 122.647C60.6824 123.578 61.0812 123.817 60.0708 124.429ZM53.5569 103.788C53.3974 103.229 53.0517 103.256 53.1847 102.538C53.2644 102.086 53.6367 101.58 53.9025 101.234C54.4609 100.516 55.1787 99.9044 55.9764 99.4522C57.6248 98.4946 59.9113 98.0956 61.4002 99.5852C60.0177 99.798 55.7637 101.181 55.7371 103.07C57.2792 102.777 58.5022 101.234 60.0443 100.729C61.3205 100.33 62.6764 100.357 63.9526 100.782C67.409 101.953 65.9733 104.932 64.0324 106.873C62.8625 108.017 61.48 108.895 59.9645 109.48C59.3796 109.72 58.7415 109.773 58.13 109.64C57.997 109.613 57.8375 109.374 57.7046 109.321C57.3057 109.188 57.4387 109.613 57.1196 109.427C56.8538 109.267 56.2422 108.15 56.0561 107.858C55.7637 107.352 55.6041 106.873 55.2585 106.421C54.8863 105.969 54.7002 105.357 54.3811 104.932C54.2216 104.745 53.7696 104.745 53.6367 104.559C53.3974 104.293 53.6367 104.08 53.5569 103.788ZM48.2394 126.078C49.037 124.722 50.3664 123.551 51.4033 122.354C51.4831 124.323 50.0739 125.679 48.2394 126.078ZM49.3029 126.717C50.9247 126.158 51.8287 124.775 51.9882 123.126C52.2009 121.024 53.5037 119.934 54.3013 118.045C54.5938 117.327 54.966 114.933 56.1359 115.625C56.5347 115.864 56.774 116.742 56.9867 117.141C57.4919 118.098 58.0768 119.029 58.6085 119.987C59.0605 120.758 59.6986 121.53 59.5125 122.461C59.353 123.259 58.7946 124.136 58.4756 124.881C57.7311 126.663 56.7208 128.339 55.8966 130.095C55.551 130.813 55.1787 132.489 54.1418 132.462C53.3442 132.462 53.424 131.584 52.8922 131.265C52.2275 130.893 51.4565 131.611 50.8981 131.903C51.4831 130.839 52.6795 130.254 53.8759 130.414C52.387 128.924 51.3767 130.946 50.1005 131.371C48.8775 131.797 46.7239 129.802 45.7136 129.244C46.1124 128.579 46.458 127.781 47.1227 127.328C47.814 126.903 48.6116 126.956 49.3029 126.717ZM36.0888 140.309C36.275 139.458 36.7801 138.952 37.0992 138.181C37.4714 139.112 36.594 139.67 36.0888 140.309ZM61.9054 145.576C61.8256 148.448 61.5863 151.348 61.5066 154.22C61.48 155.55 61.2407 156.827 61.0812 158.13C60.9482 159.248 61.028 160.338 60.3101 161.296C59.1935 162.785 57.0665 163.238 55.3914 163.77C54.1684 164.169 52.9188 164.541 51.7223 164.993C50.6323 165.392 49.7549 166.03 48.7179 166.509C47.7874 166.935 46.8036 167.201 45.8731 167.653C44.9159 168.132 44.1715 168.717 43.1877 169.143C42.0179 169.648 41.0607 170.552 40.0238 171.271C39.1198 171.909 38.1361 172.388 37.3385 173.186C36.594 173.93 35.6634 174.25 34.8392 174.915C33.9618 175.553 33.0313 176.138 32.0475 176.617C30.0535 177.734 27.3415 179.676 24.9221 178.585C25.6133 177.708 27.0225 176.856 27.1288 175.633C27.2618 174.063 25.8792 174.622 25.1082 175.127C23.9117 175.899 23.2205 176.803 22.3165 177.841C21.253 179.038 19.897 178.24 18.5676 177.894C19.4716 177.096 20.349 176.271 21.253 175.447C21.9974 174.755 23.1673 174.01 23.6193 173.079C23.9383 172.414 23.9383 171.483 23.1407 171.111C22.2633 170.712 21.253 171.537 20.5883 172.042C18.8335 173.345 17.6902 175.021 16.547 176.83C15.9355 177.787 15.643 177.734 14.5263 177.521C13.3299 177.309 12.1334 177.096 10.937 176.963C12.5322 175.34 14.3136 173.558 15.5632 171.643C15.962 171.031 16.4938 169.382 15.2708 169.249C14.7656 169.196 13.7287 170.233 13.3565 170.526C11.5751 171.749 10.033 173.292 8.83657 175.101C8.46435 175.686 8.33141 176.351 7.61354 176.404C6.65639 176.457 4.87502 175.553 3.97105 175.287C5.72583 173.079 7.48061 170.818 9.52785 168.877C11.4156 167.068 13.3033 165.764 15.5101 164.381C17.8498 162.865 20.1097 161.216 22.2633 159.46C24.3371 157.785 26.5173 156.215 28.4316 154.353C32.2602 150.576 35.6369 146.374 38.4817 141.798C39.1464 140.734 39.7579 139.644 40.2897 138.527C40.7948 137.463 41.0341 136.186 41.6988 135.228C41.9381 134.883 42.2572 134.643 42.4699 134.297C42.656 133.978 42.6028 133.579 42.8953 133.287C43.5865 132.622 44.8628 133.021 45.5274 133.499C46.5644 134.244 47.4152 135.175 48.585 135.814C49.7549 136.425 51.0045 136.904 52.2807 137.223C55.2851 137.942 58.2629 138.553 61.3205 139.005C61.0014 140.176 61.7725 140.362 62.0383 141.399C62.3308 142.676 61.932 144.272 61.9054 145.576ZM33.0047 126.105C32.3134 125.094 31.7285 124.03 31.0372 123.019C30.6384 122.407 30.1332 121.742 30.4789 120.971C31.0638 119.694 33.1376 119.455 34.2543 120.014C36.8067 121.29 34.4404 124.908 33.0047 126.105ZM26.2514 102.963C26.0122 100.995 26.7832 99.5852 28.5646 98.5478C29.8408 97.803 30.8777 98.8138 30.6916 100.17C30.4257 102.219 28.2455 104.506 26.5705 105.57C26.4376 104.719 26.3578 103.841 26.2514 102.963ZM25.9856 97.3243C26.5173 96.8987 27.9265 97.4306 28.538 97.4838C27.6872 98.2286 26.863 98.9468 26.0122 99.6916C25.959 99.1596 25.4804 97.6966 25.9856 97.3243ZM28.8039 78.2259C33.0579 77.6673 28.1657 82.2424 26.9161 82.9606C27.1288 81.9764 27.634 78.3855 28.8039 78.2259ZM40.1302 70.2195C39.5718 72.5602 35.1317 75.1138 35.0785 71.2834C35.0519 69.8471 35.8761 69.9801 37.046 69.8471C37.6841 69.7673 40.4492 68.8895 40.1302 70.2195ZM24.7891 73.8636C24.284 75.167 23.8851 76.5235 23.4066 77.8269C23.2205 78.3589 22.928 78.8377 22.5292 79.2633C22.1835 79.6357 21.7847 79.7421 21.8113 80.3538C22.2101 80.2474 22.5824 80.0347 22.9014 79.7687C22.8216 80.9656 22.3962 82.269 22.1835 83.466C21.9177 84.9023 21.7581 86.3387 21.6518 87.8017C21.4923 90.967 21.4923 94.1323 21.5454 97.3243C21.572 98.9468 21.5986 100.569 21.6784 102.165C21.7316 102.963 21.7581 103.788 21.8645 104.586C21.9177 104.905 22.1304 105.597 21.9974 105.889C21.4391 107.086 18.9133 103.814 17.8232 104.293C17.9827 103.389 17.6105 103.575 17.0256 103.15C16.7331 102.937 16.547 102.564 16.2279 102.378C16.1482 102.272 16.0418 102.192 15.9355 102.112C15.8025 101.953 15.6696 101.953 15.5366 102.165C14.3136 101.421 13.9946 99.8512 13.3299 98.8138C12.9842 98.2818 12.6652 98.1754 12.612 97.4306C12.5588 96.7657 12.6652 96.1007 12.6386 95.4623C12.6386 94.6909 12.5322 93.9461 12.3461 93.2013C12.1068 92.3768 11.7612 92.43 11.1231 92.0044C11.3092 91.9246 11.4422 91.765 11.5219 91.5788C11.3092 91.6054 10.6977 91.8714 10.5382 91.6852C10.2191 91.3128 10.9636 91.2862 11.1497 91.1266C10.3521 90.7542 10.5116 90.4616 10.8041 89.8232C10.8838 89.637 10.9636 89.3444 11.0433 89.2114C11.2029 88.8656 11.2826 89.0784 11.3358 88.6529C11.389 88.2539 11.0168 87.4559 10.9104 87.0037C10.6977 86.3121 10.6711 85.5939 10.8041 84.8757C10.937 84.2639 11.2826 83.7054 11.3092 83.067C11.3092 82.8808 11.0433 82.8276 11.0433 82.668C11.0433 82.4286 11.2826 82.2956 11.3358 82.0828C11.4953 81.4976 11.4156 80.8592 11.6814 80.3006C11.9739 79.7421 12.3461 79.2101 12.7449 78.7047C12.9842 78.4121 13.5692 78.0663 13.6223 77.6407C13.6755 77.3747 13.2501 77.4013 13.2767 77.2151C13.3033 76.9491 13.5426 76.8427 13.5958 76.6565C13.7553 76.0979 13.8085 75.5659 14.2604 75.1404C14.8188 74.6084 15.0581 74.8212 15.0847 73.9434C15.0847 73.5178 14.739 73.438 14.9251 72.9592C15.0315 72.6932 15.3239 72.5336 15.5101 72.3474C16.0418 71.8154 16.4938 71.2302 16.8394 70.5653C17.1851 69.9535 17.77 69.5811 18.1156 69.0491C18.5942 68.3575 17.8764 68.0117 18.8335 67.7989C18.7006 67.3733 18.541 67.0275 18.9133 66.6551C19.126 66.4158 19.7109 66.5754 19.9236 66.3094C20.1629 65.9902 19.8172 65.272 20.1629 65.0858C20.4553 64.9262 20.8542 65.4316 21.3062 65.1656C21.6518 64.9794 22.157 63.942 22.0506 63.5696C22.928 64.0484 22.7153 63.7292 23.1141 63.0908C23.2205 62.9578 23.4863 62.9312 23.5661 62.7716C23.7256 62.479 23.699 62.1865 23.9117 61.9737C24.3105 61.6013 24.9221 61.6811 25.3475 61.4151C25.6931 61.1757 25.6665 60.9363 25.959 60.7235C26.1983 60.5373 26.5971 60.5107 26.8364 60.3245C27.2884 59.9521 27.2884 59.5531 27.8733 59.2339C28.538 58.8881 29.1761 58.4891 29.761 58.0369C30.1598 57.7178 30.532 57.1326 31.0106 56.9198C31.6487 56.6272 32.1539 56.6006 32.792 56.175C33.244 55.8558 33.6694 55.3504 34.1214 55.111C34.467 54.9248 34.7063 54.9514 35.1317 54.845C35.9027 54.6322 36.0888 53.914 36.727 53.5948C37.1524 53.3821 37.7905 53.5682 38.269 53.4618C39.7313 53.1427 41.1937 52.4245 42.656 52.0255C44.4639 51.5467 46.2719 51.1211 48.0798 50.6955C46.4048 52.9565 44.2778 55.0046 42.1242 56.7868C41.4064 57.372 37.5512 60.0585 39.625 61.2023C40.4758 61.6545 42.2838 60.1649 42.975 59.8191C44.331 59.1009 45.7401 58.4625 47.1759 57.9039C49.489 56.9464 52.4934 55.244 55.0724 55.377C53.5037 57.2922 51.5628 58.8349 49.7815 60.5373C48.133 62.1067 45.6604 63.543 46.4314 66.0966C44.1183 65.5114 42.0445 64.8198 39.6516 64.9794C38.5881 65.0592 37.498 64.9262 36.4345 65.0592C35.2646 65.2188 34.1745 65.6178 33.0579 65.9636C32.1805 66.2296 31.1967 66.2562 30.3725 66.7084C29.9471 66.9477 29.5483 67.2137 29.1495 67.5063C28.7773 67.7989 28.4582 68.1713 28.1923 68.5703C26.863 70.2195 25.5868 71.7888 24.7891 73.8636ZM17.5839 105.836C17.5041 105.543 17.451 105.277 17.3712 104.932C18.0891 105.384 18.0891 105.384 17.5839 105.836ZM12.0271 96.5263C11.8676 96.6593 11.6283 96.6859 11.4422 96.5795C11.3092 96.4465 11.6549 95.9145 11.7346 95.8081C11.8676 95.9145 12.2132 96.2869 12.0271 96.5263ZM10.4584 93.1215C10.5648 92.7758 10.6445 92.4034 10.7509 92.0576C10.8572 92.3768 11.4156 92.7492 11.4156 93.0684C11.4422 93.2812 10.5648 93.1747 10.4584 93.1215ZM10.7775 93.6269C11.6283 94.1855 11.708 94.8239 11.7346 95.7815C10.7243 95.4623 10.8572 94.4781 10.7775 93.6269ZM25.4272 55.8292C25.3475 56.0686 24.9752 56.7868 24.7094 56.2814C24.6296 56.1218 25.2411 55.909 25.4272 55.8292ZM25.1879 55.0578C25.4006 54.8716 25.826 55.111 26.0387 54.9514C26.1983 54.845 26.1451 54.7386 26.2249 54.6854C26.2514 54.6854 26.4641 54.2066 26.5439 54.1268C26.7034 53.9406 27.0491 53.8342 27.2618 53.6746C27.8201 53.2225 28.1126 52.6107 28.4848 51.9989C28.9102 51.2807 29.0431 51.1743 29.7078 50.8551C30.1598 50.6157 30.5586 50.3231 30.9043 49.9507C31.3297 49.4985 31.3031 49.1793 31.6487 48.674C31.8348 48.4346 32.0741 48.408 32.2868 48.1952C32.5261 47.9558 32.659 47.6366 32.8717 47.3972C32.9781 47.2908 33.2706 47.2908 33.3503 47.211C33.4301 47.1046 33.4833 46.6524 33.563 46.5726L33.9618 47.1312C34.4936 46.2002 34.8924 45.4288 35.7698 44.7904C36.7004 44.1255 37.5246 43.1679 38.4817 42.5827C38.6944 42.4497 39.1464 42.3965 39.3059 42.2103C39.5984 41.8911 39.3325 41.5985 39.5452 41.3059C39.7845 40.9867 40.2365 41.2527 40.529 41.1197C40.9012 40.9601 41.0075 40.4548 41.4861 40.5079C39.9175 42.3699 39.9175 45.2958 39.8377 47.6366C39.8111 48.6474 40.4226 49.1527 39.4921 49.8975C38.6944 50.5359 37.5778 50.3497 36.6206 50.7487C35.4507 51.2807 34.1745 51.5467 32.9781 51.9989C31.7285 52.4777 30.7182 53.2757 29.5217 53.8342C28.4582 54.313 27.7403 55.0046 26.7832 55.5898C26.411 55.8026 25.8526 56.1218 25.4272 55.8558C25.1614 55.643 24.8423 55.377 25.1879 55.0578ZM43.0548 39.3642C43.1346 39.0982 44.4639 38.4066 44.8096 38.1672C45.3147 37.8214 46.0326 36.9968 46.5909 37.316C46.7771 36.5446 47.5481 35.6935 48.2128 35.5339C49.1965 35.2147 50.1005 34.7625 50.9513 34.1773C51.164 34.0177 51.2438 33.7783 51.4831 33.6187C51.9085 33.3527 52.3604 33.4857 52.7593 33.1399C52.8124 33.0867 53.3974 32.1291 53.424 32.1291L53.5037 32.4483C53.9291 32.2621 54.3013 32.0227 54.6204 31.7035C54.6736 31.6238 54.2748 31.4376 54.4077 31.3046C54.5672 31.145 54.9129 31.3312 55.0724 31.1716C54.5938 33.5921 54.9394 36.7308 57.4121 37.9544C54.4875 38.2736 51.616 37.3958 48.6648 37.9278C47.229 38.1938 45.8199 38.6194 44.5171 39.2578C43.7195 39.6568 42.7092 41.0931 41.9381 40.4015C42.204 39.976 42.6826 39.71 43.0548 39.3642ZM57.2526 32.3685C58.2895 31.0386 60.0443 30.5066 61.6661 30.9854C63.6336 31.544 62.8094 32.9271 62.4903 34.4433C61.932 33.6187 60.709 32.7941 59.672 32.7675C58.1831 32.7409 58.7415 33.9645 59.6454 34.4167C60.4431 34.8157 61.8256 34.9221 62.4106 35.6669C62.9689 36.385 62.7562 37.5288 62.836 38.38C62.4106 38.3268 61.9586 38.247 61.5332 38.1938C61.9054 36.252 60.2836 36.1456 58.7946 35.5871C57.2792 35.0019 56.0029 33.9113 57.2526 32.3685ZM62.1447 27.554V29.3628L60.3101 28.3254C60.9217 28.086 61.5332 27.82 62.1447 27.554ZM67.0368 42.0507C69.0575 42.6093 71.0781 43.1945 73.0456 43.9393C73.7635 44.2053 74.5345 44.3117 75.2258 44.6309C75.8905 44.9234 75.9968 44.8968 75.7575 45.482C75.0928 47.1046 73.5242 46.8386 72.1682 46.5726C70.0146 46.1736 67.9142 45.6416 65.8138 45.1362C63.7399 44.6309 61.6395 44.3117 59.5923 43.6999C57.5184 43.0349 55.4446 42.4763 53.3176 42.0241C52.6795 41.8911 47.7342 41.4389 47.7608 40.9335C50.8981 40.5345 54.1152 40.9335 57.2526 40.9601C60.4963 41.0133 63.8729 41.1729 67.0368 42.0507ZM64.2717 35.7467C64.2983 34.6295 64.3249 33.5123 64.4578 32.3951C65.3884 33.5389 66.2392 33.8847 67.409 32.8207C68.5257 31.7833 68.7916 31.2514 70.2007 32.2089C71.4238 33.0601 72.5936 33.0069 73.923 32.2621C74.7206 31.8099 75.9968 29.9746 76.8476 30.347C77.2464 30.5332 77.5389 31.2514 77.9377 31.5174C78.5226 31.8631 79.1607 32.1025 79.8254 32.2089C81.2346 32.5281 82.0588 31.6238 82.9362 30.6662C84.2124 29.283 84.1592 30.081 85.3556 31.0386C86.6584 32.1291 87.7751 31.5972 88.9716 30.6662C89.6894 32.7941 89.9553 35.1083 90.168 37.3426C90.2478 38.0874 90.487 39.1514 89.8224 39.6834C89.3438 40.0558 88.3335 40.0824 87.7751 40.2686C85.7013 41.0133 83.7604 42.0773 82.0322 43.4073C81.3675 43.9393 80.7826 44.5777 79.8786 44.4447C79.0012 44.3383 78.177 43.5935 77.4591 43.1147C76.6881 42.5827 75.9436 41.9975 75.0397 41.7049C74.5079 41.5453 73.6837 41.5985 73.2317 41.2793C72.3809 40.6941 73.3912 39.178 73.1785 38.1672C73.019 37.3958 72.567 35.7733 71.5035 36.2254C69.9083 36.8904 70.8388 39.5504 71.7162 40.375C69.8551 40.0558 68.0205 39.6036 66.2126 38.9918C64.8566 38.6194 64.2451 37.1298 64.2717 35.7467ZM94.2625 41.1995C97.9316 40.1622 101.361 39.4706 105.19 39.2844C106.892 39.2046 108.513 39.2578 110.188 39.2578C111.146 39.2578 111.89 38.4864 111.119 37.6086C110.056 36.385 106.812 36.8372 105.376 36.784C101.627 36.5712 97.8784 37.1032 94.3422 38.3534C94.7411 37.6352 95.645 37.5554 96.2831 37.183C97.0276 36.7042 97.6125 35.986 97.9316 35.1615C98.809 33.0069 97.9316 30.9854 97.0276 29.017C98.809 29.4958 100.644 30.5332 102.451 30.7992C102.771 30.7992 103.09 30.8524 103.409 30.9588C103.621 31.0386 103.674 31.3312 103.94 31.3844C104.073 31.411 104.366 31.145 104.499 31.1716C105.057 31.3312 104.605 31.3578 104.951 31.5972C105.217 31.7833 105.19 31.9961 105.695 31.9163C105.908 31.8897 106.147 31.544 106.28 31.5174C106.44 31.5174 106.386 31.3312 106.626 31.3844C107.051 31.4908 106.998 32.0227 107.131 32.2887C107.29 32.5813 107.078 32.9537 107.53 33.0867C107.875 33.1931 107.955 32.8473 108.248 32.8739C108.513 32.9537 108.753 33.1133 108.939 33.2995C109.471 33.8315 110.109 34.2837 110.773 34.6561C110.72 34.6029 111.092 34.4433 110.986 34.3901C111.092 34.4167 111.199 34.4433 111.305 34.4699C111.677 34.5497 111.89 35.1349 112.076 35.3477C112.475 35.7733 112.954 36.119 113.485 36.3318C114.336 36.6244 114.31 36.2786 114.629 37.2894C115.24 36.3318 115.479 37.9278 116.224 38.114C116.623 38.1938 116.569 38.0342 116.942 38.247C117.181 38.38 117.341 38.8322 117.527 39.0184C117.606 38.7258 117.686 38.4066 117.766 38.114C118.324 39.1514 119.494 40.8005 120.797 40.5079C120.797 40.8005 120.691 41.1197 120.903 41.3591C121.063 41.5187 121.302 41.3325 121.435 41.4389C121.541 41.5187 121.781 41.8645 121.86 41.9177C122.02 42.0241 122.312 42.1039 122.445 42.2103C122.578 42.3167 122.631 42.7689 122.764 42.9285C123.004 43.2477 123.456 43.3009 123.668 43.6733C123.722 43.3009 123.775 42.9285 123.801 42.5561C124.2 42.8753 124.253 43.1147 124.333 43.5669C124.466 44.2319 124.28 44.0723 124.732 44.3383C125.184 44.6043 125.397 44.5777 125.822 45.0564C126.221 45.5086 126.221 45.8012 126.806 45.3224C126.912 45.6682 126.939 46.147 127.231 46.413C127.444 46.6258 128.348 46.6258 128.428 47.1046C126.753 45.6948 127.843 47.8494 128.428 47.1046C128.56 47.9026 129.119 48.142 129.784 48.7006C130.395 49.2325 130.501 49.1793 130.714 50.0571C130.82 50.1103 130.927 50.1901 131.033 50.2699C130.448 50.3497 131.352 51.0147 131.512 51.1477C131.618 51.2275 131.778 51.0147 131.964 51.1743C132.176 51.4137 132.362 51.6531 132.522 51.9457C132.921 52.5309 133.373 53.0629 133.851 53.5948C134.383 54.1268 134.649 54.8184 135.181 55.4302C135.766 56.1218 136.085 56.9198 136.563 57.6912C137.015 58.4093 137.627 58.9945 138.159 59.6595C139.009 60.6969 139.302 63.011 140.871 63.0908C140.791 63.1972 140.897 63.9154 140.924 64.0218C141.003 64.6602 140.95 65.2986 141.323 65.8838C141.402 65.2188 141.774 65.4582 142.067 65.8306C142.572 66.4158 142.12 66.2828 142.147 66.8679C142.173 67.5861 142.253 67.0275 142.546 67.6659C142.758 68.0915 142.891 68.5437 142.998 69.0225C142.094 69.1023 141.695 68.3575 141.376 67.6659C141.243 67.3733 141.19 66.8945 140.95 66.6551C140.684 66.4158 140.339 66.3892 140.073 66.1232C139.568 65.5912 139.328 64.7666 138.743 64.2612C138.052 63.676 137.919 63.41 137.334 62.7184C136.723 61.9471 135.845 61.4151 135.181 60.6703C134.516 59.9255 134.569 60.3245 133.745 60.0585C132.868 59.7659 131.459 57.0262 130.342 58.0635C130.395 57.372 129.358 56.707 128.826 56.4676C128.587 56.3612 128.348 56.4676 128.108 56.2814C127.869 56.0952 127.843 55.776 127.603 55.5632C127.444 55.5898 127.311 55.6164 127.151 55.6164C126.992 55.5366 126.992 55.244 126.859 55.1642C126.46 54.8982 126.035 54.6322 125.609 54.4194C124.626 53.8874 123.748 53.2225 122.791 52.5841C121.967 52.0255 120.983 51.0413 120.026 50.7487C119.202 50.4827 118.67 50.6157 118.005 50.1103C117.633 49.8443 117.739 49.7379 117.154 49.5783C116.596 49.4187 116.277 49.4985 115.985 48.8868C115.453 47.8494 115.798 45.8012 115.692 44.6043C115.612 43.3275 115.426 42.0773 115.134 40.8537C114.762 39.4174 114.23 38.6726 112.688 39.0184C109.63 39.6834 106.626 40.3218 103.568 40.9069C97.453 42.0773 91.4708 43.9925 85.4886 45.6948C85.0366 45.8278 82.4842 46.413 83.0159 45.083C83.2552 44.4713 84.8505 44.2585 85.4088 44.0723C88.2803 43.1147 91.2581 42.0507 94.2625 41.1995ZM93.2256 38.5396C92.7736 38.6992 92.3216 38.8854 91.8962 39.045V37.7948C92.3482 38.0342 92.8002 38.2736 93.2256 38.5396ZM91.391 31.9695C91.7898 32.2887 92.5609 31.5174 92.9065 31.3578C93.4914 31.0652 94.1561 30.9056 94.8208 30.9322C95.9641 31.0652 96.7617 32.1025 96.6288 33.2463C96.6288 33.2729 96.6288 33.2995 96.6288 33.3261C96.2566 35.2945 93.4914 36.1988 91.9494 36.9702C91.8962 36.2786 91.6835 35.4541 92.1621 34.8423C92.5875 34.3103 93.4117 34.3635 93.7839 33.8049C94.7677 32.4217 92.1089 32.2887 91.524 33.4059C91.2847 32.6877 91.0454 31.9961 90.8327 31.278C91.3379 31.1982 91.0986 31.7301 91.391 31.9695ZM94.1295 28.1392C93.5712 28.485 93.0129 28.8574 92.4811 29.2032C92.1887 27.9796 93.1192 27.82 94.1295 28.1392ZM144.566 71.2569C143.848 71.6026 143.662 70.7781 143.13 70.7515C143.742 70.3791 143.742 70.3791 144.566 71.2569ZM147.517 89.3178C147.597 90.5148 147.544 91.7118 147.704 92.8822C147.836 93.7865 148.182 94.6111 148.235 95.5421C148.342 97.5636 147.65 99.532 146.294 101.022C144.938 102.458 143.29 103.522 141.429 104.187C140.658 104.453 139.834 105.038 139.063 105.251C138.212 105.49 137.414 104.985 136.723 105.889C136.271 101.926 136.59 97.7498 136.563 93.7599C136.537 89.7434 136.563 85.7535 135.899 81.7902C135.287 78.2525 134.117 74.2892 131.911 71.3898C130.98 70.2461 129.943 69.2353 128.773 68.3575C128.188 67.8787 127.577 67.4265 126.912 67.0275C125.875 66.469 124.998 66.5488 123.881 66.3892C122.286 66.1498 120.797 65.9636 119.175 66.4158C117.686 66.8413 116.038 67.3201 114.682 68.0383C113.352 68.7565 111.784 69.0757 110.401 69.7141C109.471 70.1663 107.503 71.6292 106.466 71.3632C105.456 71.0973 103.967 69.3949 103.302 68.6235C102.505 67.5861 101.76 66.5222 101.069 65.4316C100.803 65.0592 100.298 64.474 100.218 63.9952C100.112 63.1706 100.431 63.4366 101.228 63.543C103.223 63.7558 105.217 64.1814 107.131 64.7932C108.115 65.1124 110.002 66.3892 110.959 65.6178C112.448 64.4474 110.188 62.3992 109.364 61.7343C107.955 60.5639 106.333 59.7127 104.818 58.6753C103.223 57.5848 101.122 56.4144 100.112 54.712C103.09 55.5898 106.094 56.6006 108.992 57.7444C110.321 58.2497 111.624 58.8349 112.874 59.4999C113.565 59.8989 115.001 60.9363 115.825 60.4309C117.66 59.3403 113.459 56.1484 112.847 55.51C111.89 54.4992 110.986 53.4884 109.949 52.5841C109.258 51.9723 108.141 51.5201 107.822 50.6157C108.992 51.0413 109.923 51.8659 111.013 52.4245C111.544 52.7171 112.129 52.9033 112.741 52.9831C113.406 53.0895 113.485 53.1959 114.017 53.4618C114.442 53.7012 114.868 53.914 115.32 54.1002C115.639 54.2066 116.224 54.2066 116.516 54.3928C116.676 54.6056 116.809 54.8184 116.968 55.0046C117.154 55.0578 117.314 55.111 117.5 55.1908C117.766 55.4302 117.899 55.7228 118.165 55.9622C119.973 57.6646 122.392 58.8881 124.413 60.3245C126.327 61.6811 128.348 62.9046 130.182 64.3676C132.283 66.07 134.489 67.8787 136.297 69.9269C137.281 71.0973 138.185 72.3474 139.009 73.6508C139.621 74.5818 140.525 75.3266 141.057 76.2841C142.226 78.3589 143.184 80.5932 144.433 82.6414C145.656 84.7161 147.305 86.7909 147.517 89.3178ZM130.342 101.341C130.687 99.9044 132.655 98.2286 133.905 97.5902C133.266 99.1596 131.591 100.224 130.342 101.341ZM133.559 106.341C132.495 108.576 127.789 108.815 128.428 105.517C128.747 103.894 130.076 102.91 131.219 101.873C131.751 101.394 133.027 99.6384 133.851 99.931C133.825 101.181 133.745 102.431 133.745 103.708C133.745 104.533 133.958 105.57 133.559 106.341ZM132.203 80.7262C132.628 81.7104 133.08 82.5084 132.256 83.3862C131.884 83.7852 130.714 84.6363 130.182 84.4501C128.454 83.8384 131.751 81.1518 132.203 80.7262ZM121.807 72.0282C122.233 72.0016 122.631 72.0548 123.03 72.0548C123.429 72.0282 123.482 71.9484 123.854 72.0016C123.908 72.0548 123.961 72.1346 123.987 72.1878C124.041 72.5868 124.253 72.6134 124.599 72.3208C125.051 72.4006 125.503 72.5602 125.902 72.773C124.626 73.704 123.057 74.768 121.488 75.0872C118.989 75.5659 119.68 72.1612 121.807 72.0282ZM83.7072 92.8289C83.4413 93.3343 82.6969 92.0576 82.5374 91.8182C82.883 91.8182 83.9731 92.297 83.7072 92.8289ZM103.674 79.1835C105.695 78.0663 107.822 77.0555 109.976 76.2309C110.348 77.9865 108.567 80.2474 107.477 81.4444C106.599 82.4286 105.536 83.4128 104.313 83.9714C103.01 84.5831 101.601 84.3171 101.654 82.6148C101.68 81.87 101.813 81.1252 102.079 80.4336C102.398 79.7155 103.01 79.5825 103.674 79.1835ZM77.5921 47.2376C77.8845 47.211 80.9953 46.812 80.9953 47.211C80.9421 48.3548 77.9111 47.4504 77.5921 47.2376ZM55.5244 69.7673C57.1728 67.7457 59.8316 65.538 59.8847 62.6918C59.9379 58.5157 55.3117 60.5905 52.972 60.7767C54.195 59.5531 60.4165 54.4726 56.7474 52.6639C55.6839 52.1319 54.195 52.6639 53.1315 52.9299C51.2438 53.4087 49.5156 54.2598 47.6544 54.8184C48.9838 53.4086 51.2438 51.8127 51.164 49.6847C51.0842 47.1046 48.9572 47.7164 47.1227 48.1154C46.4048 48.2484 43.2675 49.5251 42.6826 48.674C42.4699 48.3548 42.8155 47.9558 42.8953 47.6898C42.975 47.3174 43.0282 46.9184 43.0016 46.5194C43.0016 45.5086 43.6929 44.2053 43.1346 43.2743C43.0016 43.4871 42.8953 43.6999 42.8155 43.9393C42.6294 43.3807 42.7623 42.8221 42.5762 42.2635C47.1493 43.4339 51.8287 44.0723 56.4283 45.083C58.7681 45.5884 60.9482 46.4662 63.3145 46.8652C65.7074 47.2642 68.0471 47.876 70.44 48.2484C72.6202 48.5942 74.7206 49.1527 76.8742 49.6049C78.9746 50.0305 81.1282 49.0996 83.202 48.6208C87.8017 47.5568 92.4014 46.4662 97.001 45.4288C102.319 44.2319 107.849 43.2211 112.927 41.2261C113.033 43.8861 113.246 46.5194 113.565 49.1528C111.305 48.0888 107.982 46.7056 105.722 48.5942C104.844 49.3921 104.499 50.6423 104.898 51.7861C105.296 53.0097 106.493 53.5682 107.29 54.4726C104.871 53.8608 98.676 49.4985 97.5593 53.914C96.7883 57.0262 100.59 59.0211 102.451 60.7767C100.59 60.4043 98.1177 58.9413 97.0542 61.3087C96.1236 63.3568 97.2403 65.5912 98.4101 67.2935C99.0483 68.2245 99.7395 69.0757 100.404 69.9535C100.75 70.4323 101.095 70.9111 101.468 71.3632C101.84 71.8154 102.531 72.2942 102.797 72.7996C103.329 73.7838 102.265 73.8636 101.441 74.2094C100.404 74.6616 99.5268 75.4064 98.5963 76.0181C96.4427 77.4013 94.555 78.6781 92.0291 79.1037C89.4235 79.5559 86.8977 80.0346 84.3187 80.6464C81.7397 81.2848 79.6393 81.87 77.0071 81.072C75.8107 80.6996 74.827 80.3804 73.5508 80.4336C72.2214 80.5134 71.4238 80.4336 70.3337 79.6091C65.5479 76.0713 60.4165 73.1454 55.5244 69.7673ZM46.9898 66.203C48.8243 65.2986 50.6588 64.3676 52.5466 63.5696C54.1152 62.9046 56.4815 62.1599 58.1831 62.4524C57.7046 63.7026 56.8272 64.7134 55.87 65.6178C55.0458 66.4158 53.9823 67.6393 52.972 68.1979C52.0414 68.7033 50.9779 67.9053 50.0739 67.5595C49.1168 67.1871 47.7608 67.0009 46.9898 66.203ZM47.4683 70.8313C48.3723 70.4589 50.3398 71.7356 51.164 72.0548C52.7859 72.6932 54.4343 73.3848 55.87 74.3956C54.1152 76.4171 52.1212 78.2791 49.7815 79.5825C48.2394 80.4336 45.6072 81.4178 44.1449 79.8751C42.3103 77.9333 44.5171 73.9434 45.8199 72.2676C45.8731 72.5602 45.8997 72.8528 45.9528 73.1188C46.3517 72.4538 46.6707 71.1505 47.4683 70.8313ZM80.8889 88.1475C79.7457 88.3869 79.3734 88.1741 78.629 87.2963C78.1238 86.7111 77.6187 86.0993 77.0603 85.5673C76.4754 85.0353 75.0397 83.732 76.8742 84.4767C78.5492 85.1683 79.985 85.5141 81.8195 85.2481C83.9199 84.9289 85.8874 84.0512 87.9612 83.599C86.818 84.5831 85.7013 85.5939 84.558 86.6047C83.335 87.6421 82.431 87.8283 80.8889 88.1475ZM81.1548 96.1805C78.6556 98.0424 73.6571 97.8562 75.3321 93.7333C75.598 93.095 75.9436 92.5098 76.369 91.9778C76.5286 91.7118 76.7147 91.499 76.954 91.3128C77.5123 90.967 77.3528 90.9404 77.8845 91.499C78.3365 91.9778 81.8993 95.8879 81.1548 96.1805ZM80.4104 88.9986C80.6496 88.9188 81.6068 88.3603 81.8195 88.6795C82.0588 88.9986 80.1711 90.0626 80.4104 88.9986ZM98.5431 117.593C97.9847 118.923 93.4914 120.865 94.3422 118.178C94.7145 116.981 95.0601 116.077 96.4427 115.997C97.2669 115.944 99.0483 116.423 98.5431 117.593ZM106.599 99.4256C107.344 98.3616 109.763 96.8987 110.8 98.4946C111.305 99.266 110.082 99.665 109.338 99.4522C108.939 99.3458 108.62 99.1064 108.194 99.0798C107.663 99.1064 107.104 99.532 106.599 99.4256ZM108.54 100.49C108.035 100.995 105.004 103.549 104.525 103.15C105.509 101.74 106.652 100.17 108.54 100.49ZM103.595 126.264C102.531 126.318 103.063 124.748 103.169 124.11C103.435 124.562 104.765 126.211 103.595 126.264ZM106.28 123.445C105.934 122.833 105.03 121.929 105.243 121.157C105.403 120.572 106.838 119.774 107.423 120.093C108.221 120.546 107.051 123.525 106.28 123.445ZM131.193 117.088C130.741 118.63 130.289 118.231 128.88 118.524C127.47 118.817 126.487 120.014 125.237 120.679C125.662 119.774 125.928 118.657 126.673 117.912C126.832 117.753 127.869 117.407 127.284 117.008C126.779 116.662 126.035 117.779 125.822 118.098C124.732 119.615 123.987 121.45 123.376 123.179C123.057 124.03 122.818 124.908 122.685 125.786C122.552 126.584 122.685 127.408 122.552 128.206C122.339 129.456 120.637 129.456 119.627 129.776C118.696 130.095 117.766 130.361 116.809 130.547C115.985 130.68 115.107 130.44 114.31 130.6C113.432 130.786 113.033 131.292 112.05 131.185C111.252 131.079 110.481 130.706 109.657 130.68C108.886 130.653 108.115 130.919 107.37 130.706C106.599 130.494 106.626 130.414 106.812 129.643C106.918 129.855 107.025 130.042 107.131 130.254C107.45 130.015 107.663 129.27 107.849 128.924C108.141 128.392 108.381 128.206 108.274 127.541C108.115 126.557 107.237 125.865 107.025 124.934C106.812 123.95 107.53 123.152 107.955 122.354C108.54 121.237 108.54 120.413 108.035 119.269C108.407 119.375 108.779 119.455 109.152 119.561C108.646 118.471 106.945 118.896 106.067 119.242C105.642 119.402 104.951 120.04 104.499 120.04C103.861 120.014 103.515 119.189 103.249 118.71C102.451 117.38 101.547 116.05 100.617 114.8C100.351 114.454 100.032 114.241 100.112 113.842C100.192 113.523 100.936 113.044 101.175 112.832C102.079 112.06 103.223 111.661 104.073 110.837C105.35 109.613 106.812 108.762 108.141 107.565C109.497 106.315 110.906 105.198 112.315 104.027C113.751 102.83 115.001 101.447 116.41 100.25C116.782 100.915 117.5 103.309 118.324 103.495C119.281 103.708 119.255 102.591 119.202 101.899C119.122 100.942 118.59 99.9842 118.537 99.0532C118.484 98.069 119.414 97.6169 120.132 97.0583C121.249 96.1805 123.695 94.1589 122.366 92.5098C121.222 91.0734 117.527 93.8131 116.516 94.6377C115.639 95.3293 114.974 95.9677 114.017 96.5263C113.326 96.9253 112.183 98.4148 111.358 98.2552C110.401 98.0956 110.002 97.0317 108.832 97.0583C107.689 97.0849 106.705 97.936 105.988 98.7606C104.366 100.649 103.807 103.176 102.345 105.144C101.627 106.129 100.67 106.927 99.8725 107.831C98.9951 108.842 98.809 110.012 97.9582 110.996C95.5121 107.725 92.8533 104.639 90.2743 101.5C88.9981 99.931 87.7219 98.335 86.4723 96.7391C85.9938 96.1539 85.462 95.5687 85.0366 94.9569C84.4517 94.1057 84.558 93.4141 84.3187 92.4566C84.2124 92.031 83.7338 91.5256 83.8667 91.1266C84.0529 90.568 85.2493 90.1424 85.7013 89.9296C87.5092 89.0252 89.1311 87.8815 90.8061 86.7643C93.9168 84.6895 97.0542 82.7744 100.351 80.9922C100.298 81.7636 99.7927 82.535 100.138 83.3064C100.298 82.8808 100.537 80.9124 101.122 80.8326C101.016 80.8592 101.095 83.333 101.202 83.7054C101.468 84.7693 102.265 85.4875 103.382 85.4875C105.509 85.4609 107.423 83.1468 108.62 81.604C109.417 80.5666 110.188 79.3431 110.481 78.0397C110.747 76.8693 110.454 76.0447 111.677 75.4595C114.123 74.236 116.702 73.2784 119.361 72.5868C119.228 73.7306 118.909 75.167 119.946 75.9915C121.089 76.8959 122.605 76.0979 123.695 75.4862C124.785 74.8744 126.433 73.2518 127.71 73.7306C128.959 74.2094 129.81 75.7521 130.528 76.7895C131.139 77.6939 131.804 78.3589 131.086 79.3697C130.289 80.5134 129.784 81.6306 129.119 82.8542C128.88 83.333 128.64 83.6522 128.8 84.131C129.039 84.5831 129.332 85.0087 129.677 85.3811C130.794 86.2323 132.283 84.6097 133.08 83.9714C133.346 86.6579 133.426 89.3178 133.532 92.031C133.612 93.9993 134.383 95.9411 132.761 97.3774C131.139 98.8138 129.783 100.303 128.8 102.245C128.268 103.283 127.789 104.346 127.231 105.384C126.859 106.075 126.061 107.06 126.54 107.858C127.045 107.379 127.205 106.607 127.656 106.075C127.922 107.219 128.188 108.496 129.385 109.001C130.794 109.56 132.176 108.602 133.426 108.044C132.947 111.129 132.07 114.108 131.193 117.088ZM129.784 120.625C128.826 122.673 127.949 125.147 126.168 126.663C125.769 126.983 124.12 128.286 123.482 128.073C122.95 127.887 123.243 126.796 123.323 126.344C123.801 124.003 124.626 122.514 126.513 121.024C127.311 120.413 128.321 119.615 129.332 119.455C130.448 119.295 130.156 119.827 129.784 120.625ZM156.876 169.409C154.377 166.03 150.867 163.371 147.544 160.844C146.029 159.7 144.38 158.822 142.865 157.678C141.163 156.348 139.355 155.151 137.467 154.141C133.798 152.279 129.81 150.975 126.38 148.767C124.705 147.703 122.844 146.666 121.275 145.443C120.584 144.884 119.946 144.272 119.335 143.634C118.75 143.075 117.5 142.251 117.261 141.426C118.244 141.266 118.776 140.335 119.654 140.229C119.946 140.202 121.727 140.681 121.488 139.803C121.914 139.803 122.339 139.75 122.764 139.644C122.977 139.591 123.27 139.67 123.482 139.591C123.828 139.458 124.067 139.112 124.413 138.979C124.652 138.872 125.583 138.979 125.742 138.872C126.114 138.553 125.716 138.58 125.476 138.154C126.221 138.128 126.726 138.5 127.497 138.101C127.71 137.942 127.922 137.755 128.135 137.543C128.534 137.277 128.667 137.676 128.933 137.144C129.172 137.888 129.172 137.676 129.784 137.463C130.342 137.25 130.927 137.09 131.512 137.037C133.16 136.904 134.809 137.117 136.43 136.984C137.015 136.931 137.547 136.798 138.132 136.878C138.664 136.957 138.504 137.303 138.93 136.824C139.036 136.718 138.717 136.399 138.85 136.239C138.93 136.159 139.142 136.213 139.222 136.186C139.993 135.84 139.993 136.319 140.126 136.931C140.578 136.851 141.03 136.691 141.429 136.479C141.243 136.292 140.897 136.106 141.083 135.787C141.721 136.026 142.147 135.92 141.828 136.638C142.466 136.851 142.599 136.585 143.184 136.505C143.529 136.479 144.008 136.691 144.3 136.399C144.619 136.106 144.114 135.76 144.699 135.521C144.805 135.574 144.912 135.681 144.965 135.787C145.284 135.893 145.231 136 144.805 136.159C145.949 136.745 145.683 136.08 146.161 135.388C146.268 135.228 146.773 134.723 146.986 134.962C147.331 135.335 146.64 135.441 146.773 135.814C147.039 136.452 147.943 135.627 148.209 135.308C148.421 135.069 148.501 134.617 148.74 134.43C149.059 134.191 149.511 134.563 149.91 134.51C151.692 134.191 153.393 131.77 152.037 130.174C151.665 129.749 151.373 129.829 150.947 129.563C150.522 129.297 150.283 128.818 149.937 128.446C149.166 127.568 148.182 126.903 147.092 126.477C144.513 125.52 141.854 124.775 139.142 124.243C137.919 124.003 136.59 123.631 135.314 123.631C134.569 123.631 133.453 124.216 132.761 123.924C131.405 123.392 133.399 120.625 133.718 119.721C134.676 117.061 135.42 114.348 135.899 111.555C136.005 111.023 135.952 110.305 136.138 109.799C136.351 109.214 136.404 109.294 136.882 109.241C137.733 109.161 138.69 109.613 139.594 109.454C140.578 109.267 141.668 109.374 142.678 109.055C143.13 108.948 143.556 108.709 143.875 108.363C143.981 108.23 143.875 108.124 143.928 108.044C144.061 107.911 144.194 107.778 144.3 107.618C144.3 107.432 144.3 107.246 144.354 107.06C144.699 107.352 144.54 107.964 145.125 107.964C145.231 107.326 145.231 107.193 145.656 106.82C145.763 106.74 145.842 106.661 145.922 106.581C145.949 106.474 145.975 106.368 146.055 106.262C146.241 106.155 146.48 106.102 146.693 106.102C147.145 105.623 146.959 105.384 146.959 104.745C147.331 104.932 147.704 105.118 148.076 105.331C148.156 103.442 149.299 102.431 150.07 100.889C150.389 100.25 150.734 99.7448 150.788 98.9468C150.841 98.4946 150.708 98.0956 150.894 97.67C151.054 97.271 151.452 97.0849 151.612 96.6593C151.931 95.8347 151.692 94.7707 151.718 93.9195C151.745 92.7226 151.851 91.5522 151.904 90.3552C151.958 87.9879 151.771 85.6471 151.399 83.3064C151.24 82.1892 150.947 81.1252 150.735 80.0347C150.548 79.1303 150.123 78.2791 149.963 77.4545C149.91 77.1087 149.99 76.7895 149.884 76.4171C149.751 75.9117 149.511 75.4063 149.352 74.9276C148.953 73.7572 148.554 72.6134 148.102 71.4696C147.225 69.2619 146.215 67.1073 145.231 64.9528C144.3 62.878 143.529 60.7235 142.306 58.7551C141.11 56.84 139.834 54.9514 138.504 53.1161C137.148 51.2009 135.393 49.5517 134.064 47.6366C131.565 44.0191 128.082 41.0133 124.466 38.5662C116.968 33.4857 108.859 28.4052 99.8459 26.6497C98.4899 26.3837 97.1074 26.1975 95.7248 26.1709C94.874 26.1443 93.4383 26.5699 92.6406 26.2773C91.7367 25.9581 91.8164 24.9207 91.5771 24.1227C91.2847 23.0853 90.62 22.4204 89.8755 21.6756C89.0779 20.9042 88.36 19.9998 87.3763 19.4944C86.366 18.9624 85.1961 18.7762 84.106 18.6166C83.1223 18.4837 81.6334 18.6166 80.7294 18.1645C79.9052 17.7655 80.304 17.3665 81.075 17.7123C81.1016 17.4197 81.208 17.1271 81.3941 16.8877C81.5005 16.7547 82.0056 16.5685 82.0322 16.4355C82.0588 16.3025 81.6068 15.8769 81.5536 15.6907C81.4473 15.2385 81.4739 14.7863 81.66 14.3607C82.431 15.0523 82.6703 15.3449 83.5211 14.7065C83.787 14.4671 84.0794 14.2809 84.4251 14.1745C84.5314 14.1479 84.7973 14.2543 84.9037 14.2011C85.2759 13.9618 84.9302 14.015 85.1164 13.7224C85.0632 13.8022 85.3822 13.0042 85.3822 13.1638C85.4088 12.7382 85.5418 12.8712 85.3025 12.3658C84.7973 11.355 83.5211 11.3018 84.1858 10.158C84.4517 9.70585 84.6644 9.75905 84.7441 9.09406C84.7707 8.74827 84.7441 8.32268 84.7441 7.97689C84.7441 7.23211 84.8771 6.72672 84.1858 6.35433C83.5211 5.98194 82.9096 6.38093 82.6437 5.50315C82.3512 4.57217 82.6437 3.3486 81.6334 2.71021C80.8889 2.23142 79.8254 2.63041 79.0012 2.41762C78.177 2.17822 77.406 1.35364 76.5817 1.99203C75.9968 2.44422 75.6778 3.58799 74.5611 2.97621C74.0559 2.71021 73.79 1.77923 73.471 1.24724C72.9658 0.422663 72.567 0.13007 71.7694 0.928052C71.2908 1.43344 70.2805 2.63041 70.2007 3.322C70.121 4.09338 70.7857 4.41257 69.9614 4.83816C69.1372 5.29035 68.6586 4.94456 67.9939 5.87554C67.3293 6.77992 67.8344 7.28531 67.0634 8.13649C66.1062 9.22706 65.5745 9.67925 65.6011 11.1422C65.6011 12.1264 64.7237 13.0042 65.2554 13.9352C65.8404 14.9991 67.5154 15.4247 68.5257 15.8769C68.1801 16.5153 67.7281 16.9143 68.1269 17.5527C68.4991 18.1379 69.5094 18.2709 70.121 18.1645C70.5464 18.0847 70.573 18.1645 70.892 17.8719C71.1047 17.6857 70.8122 17.4463 71.2642 17.3133C71.7428 17.2069 72.5138 18.1379 72.8063 18.3773C72.115 19.2816 70.2007 19.4412 69.1904 19.8934C68.5789 20.1594 68.0205 20.585 67.3824 20.8244C66.8241 21.0638 66.1328 21.0106 65.6011 21.3564C64.7237 21.9682 64.3514 23.4577 63.7931 24.3355C63.1816 25.3197 62.5701 25.7985 61.4002 26.0113C59.9113 26.2773 58.7415 26.3837 57.3589 27.0221C55.6839 27.82 54.0089 28.6446 52.3604 29.4958C49.7283 30.8258 47.1759 32.2887 44.7298 33.9113C42.1508 35.6403 39.625 37.449 37.1258 39.2578C34.6531 41.0399 32.5793 43.2477 30.4257 45.4022C28.6975 47.1578 27.1554 49.0463 25.4272 50.7753C23.38 52.8501 21.8911 55.4302 20.0034 57.638C18.9664 58.8349 17.9827 60.0053 17.318 61.4151C16.7863 62.5588 15.8823 63.676 15.2708 64.873C14.4997 66.4158 13.7553 67.9053 12.8779 69.3949C12.5057 70.0067 12.0803 70.5387 11.708 71.0973C11.2295 71.842 11.256 72.5602 11.1231 73.4114L10.7243 72.773C10.485 73.305 10.166 73.837 9.95325 74.3956C9.82032 74.7414 9.8469 75.2468 9.68738 75.5659C9.52785 75.9649 9.31515 75.9117 9.10245 76.2309C8.86316 76.5767 8.80999 77.0289 8.54411 77.4013C7.50719 78.9973 7.08179 81.0454 6.55004 82.8808C5.83218 85.3279 5.93853 88.1475 5.9917 90.6744C6.01829 93.3343 6.2044 96.0209 6.57663 98.6542C6.92227 101.048 7.74648 103.336 8.94292 105.437C10.0064 107.272 11.4687 108.336 13.3299 109.267C14.1807 109.693 14.9783 109.56 15.8823 109.64C16.866 109.72 17.5573 109.986 18.5942 109.746C19.0994 109.64 19.3387 109.267 19.7375 109.134C19.9768 109.055 20.1097 109.188 20.349 109.161C20.6946 109.108 21.3859 108.948 21.7581 109.001C22.9014 109.134 22.7153 110.863 22.8216 111.741C23.0078 113.098 23.1141 114.481 23.3534 115.837C23.832 118.684 24.8955 121.344 25.5336 124.136C22.7419 124.429 20.0034 125.094 17.3978 126.131C14.6593 127.249 11.8941 127.621 9.02269 128.153C6.33734 128.658 3.73176 129.616 1.57816 131.371C0.567835 132.196 -0.469081 133.127 0.248784 134.484C0.727361 135.335 1.57816 135.548 2.32262 136.053C2.48214 135.867 2.03015 135.468 1.95039 135.361C2.5619 135.494 2.5619 135.787 3.01389 136.026C3.41271 136.239 3.73176 136.239 4.15716 136.399C5.22066 136.771 5.72583 137.729 6.78933 137.995C7.10838 138.075 7.56037 138.287 7.87942 138.341C8.27823 138.42 8.59729 138.234 8.9961 138.314C9.2088 138.447 9.47468 138.553 9.71396 138.633C9.87349 138.553 10.0596 138.473 10.2191 138.394C10.8041 138.447 11.1763 138.819 11.6549 139.138C11.6814 138.766 11.6283 138.367 12.0005 138.101C12.1334 138.474 11.9207 138.713 12.293 138.979C12.7715 139.298 13.4362 138.899 13.8616 138.686C13.9946 139.936 16.866 139.857 17.77 139.83C19.0196 139.803 20.2958 139.298 21.5454 139.591C22.1835 139.724 22.8748 139.883 23.5395 140.069C24.3105 140.282 25.2677 140.495 26.0122 140.761C26.3046 140.867 26.6768 141.24 27.0225 141.213C27.2884 141.187 27.3415 140.814 27.6606 140.814C28.0062 140.814 28.1126 141.213 28.405 141.32C28.857 141.479 29.2558 141.16 29.6547 141.32C29.8142 141.373 30.0003 141.639 30.213 141.719C30.5055 141.852 31.0904 141.852 31.4094 141.905C31.8348 141.958 32.2602 141.958 32.6856 141.958C33.0047 141.985 33.0047 142.197 33.1376 142.197C33.3237 142.224 33.6162 141.612 33.8555 141.532C34.2011 141.399 34.8126 141.719 35.1583 141.772C32.6059 145.177 29.6281 148.235 26.3046 150.869C22.7419 153.715 19.0994 156.588 15.2974 159.088C11.841 161.376 8.49094 163.317 5.80559 166.536C3.54564 169.249 -0.0702668 172.148 0.488072 176.058C1.04641 179.969 5.30043 181.565 8.70364 182.336C12.9842 183.267 17.3978 182.895 21.705 183.426C23.6193 183.613 25.5336 183.559 27.4213 183.347C29.6015 183.107 31.4626 181.698 33.3503 180.66C36.727 178.798 39.5984 176.324 42.9219 174.409C47.0695 172.015 51.1906 169.488 55.7637 167.892C57.8907 167.148 60.0709 166.296 61.7725 164.754C62.0383 164.514 62.2244 164.169 62.5169 163.982C62.9955 163.663 63.1284 163.982 63.4209 163.903C63.6336 163.823 63.8463 163.583 64.0324 163.53C64.511 163.344 64.7237 163.424 65.2554 163.424C64.8034 163.158 64.378 162.466 64.8566 161.908C65.6808 160.95 65.8138 162.466 66.1328 162.839C66.3987 162.493 66.2923 162.2 66.2392 161.828C66.4519 161.961 66.6912 162.12 66.9039 162.253C66.7443 161.535 66.8773 160.817 67.2761 160.205C67.6483 159.62 67.7281 159.7 67.8344 158.875C68.9511 159.886 69.1638 157.412 69.2702 156.508C69.3765 155.63 69.2702 155.018 69.8551 154.247C70.4666 153.422 71.4238 152.917 72.1948 152.279C73.4444 151.268 74.8004 149.991 76.502 150.975C77.8579 151.747 78.5758 153.609 79.852 154.566C80.6231 155.151 81.4207 155.205 81.9258 156.109C82.3247 156.827 82.4576 157.705 82.8298 158.476C83.7338 160.285 85.0366 162.386 86.5255 163.77C87.9081 165.073 89.6894 165.073 91.3113 165.871C92.9065 166.722 94.5815 167.467 96.2831 168.105C98.1443 168.744 100.138 169.01 101.946 169.781C102.877 170.18 103.701 170.765 104.632 171.138C105.642 171.537 106.705 171.829 107.742 172.202C111.81 173.665 115.772 175.473 120.026 176.298C121.914 176.67 123.668 177.654 125.583 177.841C126.354 177.92 127.125 178.053 127.869 178.24C129.119 178.559 128.853 178.718 129.332 179.782C130.103 181.511 131.937 180.474 133.373 180.527C135.659 180.607 137.919 180.235 140.206 180.208C144.194 180.181 148.049 179.729 151.931 178.426C155.68 176.989 160.12 173.798 156.876 169.409Z" fill="#303332"/>
<path fill-rule="evenodd" clip-rule="evenodd" d="M110.667 34.8416C110.72 34.8947 110.853 34.9213 110.667 34.8416V34.8416Z" fill="#052114"/>
<path fill-rule="evenodd" clip-rule="evenodd" d="M40.2099 108.203C41.0872 107.325 44.7829 107.511 45.0488 109.081C45.3678 110.836 42.071 113.496 40.848 114.241C39.3059 115.198 37.3916 115.385 37.6574 112.964C37.8967 111.155 38.9868 109.453 40.2099 108.203ZM43.2674 106.394C43.3738 106.873 42.5496 106.713 42.3103 106.607C42.2039 106.367 43.1611 105.889 43.2674 106.394ZM36.8864 109.613C37.6309 109.666 38.4551 108.495 39.0134 108.096C39.2527 108.469 37.6309 110.57 37.4713 111.049C37.0193 112.246 36.7801 113.735 37.3916 114.932C39.1729 118.417 43.7194 113.443 44.8361 111.714C45.6337 110.49 46.1921 109.001 45.0488 107.804C44.65 107.378 43.9853 107.272 43.6131 106.873C43.1345 106.341 43.5067 105.649 42.523 105.782C41.8583 105.862 41.0341 106.474 40.3694 106.687C39.5718 106.899 38.8273 107.272 38.1626 107.724C38.0297 107.83 35.9824 109.533 36.8864 109.613Z" fill="#052114"/>
<path fill-rule="evenodd" clip-rule="evenodd" d="M88.9982 110.783C88.5462 113.177 86.1799 115.624 83.6807 115.704C81.2081 115.81 80.4104 113.203 80.8358 111.129C81.208 109.373 82.7235 106.288 84.9037 106.633C86.6053 106.899 89.397 108.735 88.9982 110.783ZM87.403 106.793C85.8343 105.569 83.6541 105.011 81.8461 105.968C81.2612 106.288 78.8683 107.671 79.5862 108.628C80.5699 107.884 81.3942 106.82 82.6704 106.58C82.4577 107.564 81.2346 108.442 80.8092 109.4C80.2775 110.543 80.0382 111.794 80.118 113.044C80.2775 115.225 81.7398 116.927 83.9997 116.635C86.0736 116.369 87.9081 114.773 88.8919 112.964C90.2212 110.57 89.4768 108.389 87.403 106.793Z" fill="#052114"/>
<path fill-rule="evenodd" clip-rule="evenodd" d="M72.8329 116.209C71.7162 117.858 70.0146 119.428 68.0472 119.933C65.4948 120.598 66.2126 118.497 66.9837 116.98C67.6483 115.651 68.8182 113.336 70.573 113.363C71.344 113.416 72.1151 113.629 72.8063 113.975C73.8167 114.587 73.4178 115.331 72.8329 116.209ZM70.44 112.565C70.8389 112.113 72.6202 110.198 72.8595 111.687C73.3647 111.102 72.9659 110.597 72.3012 110.543C71.5035 110.464 70.6527 111.341 70.0944 111.794C68.9511 112.618 67.994 113.682 67.2495 114.879C66.3987 116.262 64.2186 119.401 66.1329 120.784C68.2067 122.274 71.1845 119.534 72.4873 118.098C73.3115 117.193 74.4016 115.863 74.0825 114.533C73.7103 112.884 71.796 112.698 70.44 112.565Z" fill="#052114"/>
<path fill-rule="evenodd" clip-rule="evenodd" d="M61.6663 85.8859C60.523 87.2159 58.1567 89.131 56.2424 88.8916C54.4877 88.6788 55.1789 86.7105 55.7904 85.7529C56.721 84.3165 57.9706 82.96 59.8052 82.8802C60.5762 82.8536 61.6131 82.8536 62.1981 83.4654C63.0223 84.2633 62.2778 85.1943 61.6663 85.8859ZM61.5334 82.2152C60.1774 81.7364 59.6456 81.5768 58.3429 82.3216C57.2794 82.9334 56.3488 83.7313 55.6309 84.7155C54.5408 86.1519 53.4507 89.3704 56.2424 89.7694C59.2734 90.2216 66.5318 83.9441 61.5334 82.2152Z" fill="#052114"/>
<path fill-rule="evenodd" clip-rule="evenodd" d="M65.681 90.4343C64.8302 91.3652 63.6869 92.0302 62.4639 92.3228C62.9957 91.1525 64.1655 88.5723 65.5747 88.1999C66.2128 88.0403 66.9572 88.2531 66.904 88.9979C66.8775 89.5299 66.0267 90.0885 65.681 90.4343ZM66.8243 87.3221C66.1064 86.9497 66.3191 86.7103 65.4683 87.0029C64.7239 87.2423 64.0326 87.5881 63.3945 88.0669C63.102 88.3063 62.1449 89.1841 62.2778 89.6363C62.4905 90.4343 63.1818 89.2107 63.3679 88.9713C63.6869 89.2373 62.0651 91.5514 61.9588 91.9238C61.5865 93.3336 62.7032 93.4932 63.8199 93.041C65.3088 92.376 69.6691 88.7585 66.8243 87.3221Z" fill="#052114"/>
<path fill-rule="evenodd" clip-rule="evenodd" d="M88.4134 125.545C88.5198 124.614 88.6793 123.604 89.5301 123.072C90.3011 122.593 91.1253 122.673 91.2317 123.63C91.338 124.535 90.4607 126.157 89.7428 126.636C88.7591 127.354 88.5464 126.503 88.4134 125.545ZM89.7162 127.7C91.7634 126.503 93.0662 120.97 89.2908 122.513C87.1106 123.391 87.9083 128.737 89.7162 127.7Z" fill="#052114"/>
<path fill-rule="evenodd" clip-rule="evenodd" d="M72.1418 104.798C72.4609 104.133 72.8331 103.92 73.4978 103.628C73.0724 104.027 72.6204 104.426 72.1418 104.798ZM72.6204 103.149C72.1418 103.628 71.0783 104.319 71.2378 105.144C71.3708 105.889 71.9291 105.835 72.4343 105.596C73.4978 105.117 74.0827 103.016 75.1994 102.83C73.9763 102.058 73.6839 102.085 72.6204 103.149Z" fill="#052114"/>
<path fill-rule="evenodd" clip-rule="evenodd" d="M72.7797 61.5472L72.9392 68.2503C72.9658 69.0217 72.7797 70.1654 72.9924 70.9102C73.0987 71.2294 74.0293 72.6658 74.3749 72.7722C75.5448 73.0914 75.1194 70.1654 75.146 69.4472C75.1726 67.0267 75.146 64.5796 75.1194 62.159C75.1194 60.9088 75.465 50.4021 73.8432 50.4553C73.5507 50.4553 72.886 51.6523 72.7797 51.9182C72.4606 52.663 72.567 53.8068 72.5936 54.6048C72.5936 56.8923 72.7265 59.2065 72.7797 61.5472Z" fill="#052114"/>
<path fill-rule="evenodd" clip-rule="evenodd" d="M82.6169 68.0375C82.6967 68.6493 82.6701 69.6867 83.3614 70.0059C83.9729 70.2719 84.1856 69.9527 84.4249 69.4473C84.9567 68.2503 84.744 66.4416 84.744 65.218C84.7174 62.7709 84.4515 60.3503 84.2654 57.9298C84.1856 56.8658 84.3451 55.8018 84.2122 54.6846C84.159 54.2059 84.1058 52.2375 83.2019 52.3173C82.3776 52.3971 82.4574 54.4719 82.4042 55.0038C82.032 59.3927 81.9522 63.622 82.6169 68.0375Z" fill="#052114"/>
<path fill-rule="evenodd" clip-rule="evenodd" d="M121.302 118.842C120.956 120.625 115.293 126.796 113.857 123.338C113.006 121.29 114.841 119.055 116.277 117.858C117.154 117.113 118.271 116.395 119.467 116.635C120.504 116.821 121.541 117.725 121.302 118.842ZM118.377 115.651C117.978 115.757 114.628 118.098 114.602 118.071C114.309 117.778 116.41 114.64 116.649 114.347C118.43 112.086 119.627 113.789 120.743 115.571C120.504 114.507 119.839 112.964 118.749 112.512C117.367 111.953 116.277 113.336 115.612 114.347C114.681 115.784 114.15 117.326 113.618 118.922C113.405 119.667 113.06 120.412 112.661 121.077C112.235 121.768 111.518 122.513 111.624 123.364C112.209 123.045 112.528 122.38 112.9 121.848C113.326 122.008 113.166 123.338 113.246 123.684C113.405 124.535 114.097 125.2 114.947 125.333C116.622 125.599 118.43 124.056 119.547 123.019C120.717 121.901 121.993 120.385 121.993 118.683C121.993 116.954 120.238 115.225 118.377 115.651Z" fill="#052114"/>
<path fill-rule="evenodd" clip-rule="evenodd" d="M122.924 87.1094C121.967 88.5723 120.318 90.3013 118.537 90.6471C117.234 90.8865 116.384 89.9289 116.915 88.6521C117.367 87.5615 118.856 86.87 119.84 86.3912C120.611 85.9922 124.227 85.0878 122.924 87.1094ZM122.206 84.742C120.265 84.6622 118.697 86.072 117.234 87.1892C117.553 85.9124 118.298 84.5026 119.335 83.6514C120.744 82.5077 122.1 83.2258 123.589 83.7844C123.217 82.6141 121.568 82.2151 120.505 82.3747C119.175 82.5875 118.218 83.7312 117.553 84.8218C116.756 86.1252 116.463 87.6945 115.533 88.9181C115.107 89.4767 112.422 91.5781 113.033 92.4558C114.044 91.3919 115.028 90.3279 116.038 89.2639C116.304 90.5141 116.596 91.9504 118.191 91.8174C119.468 91.7111 120.93 90.6205 121.861 89.7959C123.11 88.7319 125.476 84.8484 122.206 84.742Z" fill="#052114"/>
<path fill-rule="evenodd" clip-rule="evenodd" d="M95.0072 97.1373C94.183 97.5097 92.3751 98.0417 91.9231 96.8979C91.285 95.3286 93.3322 92.5356 94.316 91.4983C94.9275 90.8599 95.3263 90.5141 96.1771 90.9397C96.8418 91.2855 97.8255 92.2164 98.0914 92.9612C98.6231 94.504 96.2834 96.5521 95.0072 97.1373ZM96.8949 89.5565C97.5596 89.7161 97.6394 90.5673 96.8152 90.2215C96.1771 89.9821 96.0176 89.3437 96.8949 89.5565ZM97.7192 90.7535C97.4799 89.9821 97.985 88.7851 96.7354 88.7319C96.0441 88.7053 94.7679 89.4235 94.1564 89.6895C93.279 90.0619 92.5346 90.7269 92.0826 91.5515C91.6838 92.3494 91.9762 92.5622 92.5878 91.8972C92.6675 91.9504 91.1786 95.7808 91.152 96.1798C91.0989 97.9353 92.3485 99.0791 94.0767 98.7865C95.6719 98.4939 97.1342 97.1905 98.0116 95.8606C98.4902 95.1956 98.8092 94.4242 98.8624 93.5996C98.9156 92.3494 98.0914 91.8441 97.7192 90.7535Z" fill="#052114"/>
<path fill-rule="evenodd" clip-rule="evenodd" d="M105.429 90.1152C104.765 88.8118 106.333 86.6306 107.716 87.269C110.641 88.5724 106.307 91.8175 105.429 90.1152ZM108.035 88.4128C107.716 88.4128 105.749 89.1842 106.041 89.7162C106.44 90.4078 107.876 88.6788 108.035 88.4128Z" fill="#052114"/>
<path fill-rule="evenodd" clip-rule="evenodd" d="M12.187 85.9923C12.1072 85.4337 10.8576 86.2317 10.8842 86.6041C11.0703 86.1785 12.3465 87.1627 12.187 85.9923Z" fill="#052114"/>
<path fill-rule="evenodd" clip-rule="evenodd" d="M80.1977 44.0452C81.7929 43.9388 79.7723 35.9324 78.6024 36.6506C77.3794 37.3953 78.7619 44.1516 80.1977 44.0452Z" fill="#052114"/>
<path fill-rule="evenodd" clip-rule="evenodd" d="M83.1755 40.3212C84.6644 40.534 84.4251 37.1293 83.6275 36.5175C82.1386 35.3738 81.3675 40.0553 83.1755 40.3212Z" fill="#052114"/>
</svg>
