<svg width="219" height="174" viewBox="0 0 219 174" fill="none" xmlns="http://www.w3.org/2000/svg">
<g clip-path="url(#clip0)">
<path d="M178.474 51.7772C181.111 54.6702 183.108 59.3682 182.812 63.3492C182.788 63.7201 182.516 64.536 182.541 64.9316C182.566 65.2284 182.837 65.5993 182.837 65.8465C182.812 66.6625 182.566 67.1323 181.777 67.5774C180.446 68.3686 178.449 68.7395 176.945 68.9373C174.801 69.2093 172.631 69.2093 170.487 68.9373C168.416 68.6653 166.592 67.5032 164.694 66.7861C163.017 66.2174 161.316 65.7476 159.591 65.4014C158.63 65.1789 157.545 64.5855 156.953 65.1542C156.411 65.6982 156.288 68.4181 156.164 69.1599C154.784 77.0476 153.132 84.6633 151.678 92.5264C150.026 101.428 148.892 110.305 147.734 119.28C146.698 127.44 146.353 135.674 146.107 143.834C145.984 147.716 145.984 151.573 146.008 155.455C146.033 157.631 147.117 164.901 143.888 165.173C141.99 165.346 140.486 162.626 139.969 161.142C139.229 158.892 138.785 156.543 138.687 154.169C138.44 149.422 138.12 144.674 137.923 139.952C137.725 134.809 137.972 129.591 138.391 124.473C138.81 119.33 139.895 114.236 140.215 109.068C139.229 110.478 138.909 110.75 137.282 111.343C135.581 111.986 133.929 112.753 132.204 113.346C131.612 113.544 130.7 113.667 130.207 114.014C129.319 114.632 129.911 113.939 129.615 115.126C129.319 116.412 129.245 117.945 129.172 119.256C128.802 125.413 127.101 131.52 126.312 137.652C126.115 139.136 126.386 145.416 123.847 143.438C121.899 141.905 121.924 137.133 121.653 134.883C121.283 131.891 121.48 128.825 121.554 125.808C121.628 122.371 121.678 118.786 122.491 115.448C121.037 115.2 119.015 115.868 117.536 115.992C116.254 116.091 114.997 116.165 113.74 116.214C110.733 116.387 107.626 116.511 104.57 116.462C104.003 116.462 100.379 115.942 99.9107 116.363C99.7628 116.486 99.7135 118.341 99.6889 118.563C99.5902 119.404 99.4423 120.245 99.3191 121.11C99.1712 123.756 98.8507 126.649 98.9493 129.319C99.0233 132.558 98.9 135.822 98.974 139.086C99.0479 142.573 99.4916 145.985 99.7135 149.422C99.9107 152.513 100.33 155.554 100.65 158.62C100.847 160.4 101.069 162.082 101.365 163.837C101.636 165.494 101.686 166.928 99.7382 167.373C95.9912 168.214 95.3996 162.799 94.6847 160.524C93.6 157.112 92.9098 153.551 92.3675 150.015C91.3815 143.438 90.0503 136.96 89.5326 130.358C89.2122 126.278 88.7438 122.248 88.4973 118.168C88.448 117.376 88.6452 116.14 87.9549 115.794C87.5359 115.571 86.3773 115.571 85.835 115.423C84.3559 115.003 83.0001 114.36 81.5457 113.692C82.581 119.058 82.9015 124.399 83.6657 129.814C84.0847 132.682 84.8489 135.674 85.5391 138.493C86.2294 141.435 86.4019 144.576 87.1908 147.444C87.5359 148.705 87.8563 149.224 87.3387 150.51C86.6977 152.092 87.1168 152.488 87.9303 154.046C89.3847 156.914 90.5187 160.326 90.2475 163.565C90.0503 166.211 88.0536 167.596 85.5885 168.313C82.5071 169.203 79.2531 169.104 76.1471 170.118C73.4355 171.008 70.6746 171.651 68.0616 172.813C67.0016 173.283 65.9909 173.852 64.8076 173.926C63.1806 174.049 62.096 173.11 60.5676 172.912C59.6062 172.788 58.2258 173.258 57.6588 172.244C57.2151 171.453 57.7081 169.722 58.2751 169.079C59.8034 167.274 62.8848 165.717 64.9555 164.653C67.3713 163.392 69.6639 161.933 71.8578 160.326C73.189 159.362 74.5694 158.447 75.9006 157.483C76.788 156.84 77.1331 156.84 77.0345 155.826C76.9606 155.01 76.5908 154.244 76.5415 153.428C76.4922 152.785 76.7141 151.944 76.4183 151.524C76.1964 151.227 75.3829 151.004 75.0625 150.782C73.8792 149.941 73.608 148.903 73.0657 147.617C71.8578 144.724 70.4527 141.905 69.2695 138.987C66.755 132.707 65.202 126.105 63.1067 119.701C60.962 113.148 59.0639 106.299 57.8807 99.4992C56.303 99.969 54.8239 102.12 53.5667 103.159C51.8658 104.593 50.1402 105.953 48.464 107.412C45.7277 109.81 42.9914 112.134 40.7235 115.003C39.6389 116.387 38.7514 117.871 37.7654 119.33C37.1984 120.171 36.6808 121.11 36.0645 121.926C35.9659 122.05 35.9659 122.322 35.8673 122.421C35.6454 122.668 35.177 122.346 35.0291 122.495C34.0924 123.459 34.1171 126.229 33.8212 127.514C33.4268 129.27 32.9831 131.322 31.6026 132.534C29.4826 134.413 25.5631 134.71 22.8762 134.809C19.425 134.932 16.0725 135.897 12.8185 136.935C11.2902 137.43 9.81111 137.974 8.28274 138.443C7.3953 138.715 6.38461 139.259 5.44787 139.136C4.31392 139.012 3.42648 138.048 2.58835 137.331C1.25719 136.193 0.0246384 135.081 0.0739405 133.201C0.123243 131.223 1.18324 129.74 2.88416 128.751C6.1381 126.847 9.78646 125.635 13.2869 124.325C14.5934 123.83 15.8506 123.261 17.0585 122.594C18.8827 121.629 20.9534 120.863 22.5804 119.602C23.0487 119.231 24.7989 118.093 24.9469 117.5C24.9715 117.426 24.5278 116.536 24.5278 116.387C24.5278 116.016 24.7496 115.621 24.8729 115.299C25.711 113.321 27.1161 111.417 28.2008 109.563C30.1729 106.151 32.145 102.714 34.4375 99.4992C38.998 93.0951 44.1007 86.8145 49.6226 81.2264C52.3095 78.5065 54.6514 75.4156 57.363 72.7205C58.3983 71.682 59.6062 70.7918 60.9127 70.0995C62.3918 69.3329 64.0681 69.1846 65.769 68.9373C69.8857 68.3686 73.3369 69.5802 77.2071 70.6682C80.8801 71.682 84.5285 72.5227 88.2261 73.5859C92.2689 74.748 96.2624 75.836 100.305 77.097C102.45 77.7647 104.668 78.185 106.838 78.8279C107.873 79.1493 111.817 81.078 112.68 80.4351C109.944 79.1493 107.133 77.9625 104.2 77.196C103.337 76.9734 102.795 77.2207 102.82 76.2316C102.844 75.6876 103.436 74.9706 103.658 74.5008C104.175 73.4375 104.767 72.399 105.285 71.3111C103.436 71.8303 98.4317 73.6601 97.0265 71.7809C95.5721 69.8027 96.78 65.9207 97.6921 63.9673C100.083 58.8984 104.151 54.6702 108.12 50.8623C108.982 50.0463 110.831 48.9584 111.275 47.9198C111.423 47.5984 111.102 47.1286 111.423 46.7083C111.62 46.461 112.359 46.2879 112.655 46.0159C113.74 45.0516 114.627 42.9993 115.367 41.7382C116.156 40.403 116.871 38.9689 117.857 37.782C119.484 35.8286 121.16 33.7516 123.798 33.3065C125.079 33.084 126.46 33.2076 127.692 32.7625C129.196 32.2186 130.601 31.3779 132.105 30.8091C131.735 30.0426 131.415 28.8063 130.7 28.7321C130.01 28.6579 128.974 29.2514 128.185 29.2514C127.076 29.2267 125.967 29.0783 124.882 28.831C123.625 28.5838 123.231 28.6332 122.762 27.2733C122.294 25.8391 122.417 24.2072 122.417 22.7236C122.417 22.0065 122.565 21.1164 122.491 20.3993C122.392 19.3361 122.195 19.2866 121.357 18.619C120.322 17.7783 119.04 16.6409 120.297 15.182C120.987 14.3908 122.417 15.009 123.009 14.1435C123.625 13.2781 123.6 11.0774 123.798 10.0637C121.875 11.0033 122.59 7.46739 122.59 6.62669C122.59 5.39037 121.752 3.16499 122.959 2.12648C123.502 1.65667 123.921 2.0523 124.562 1.7803C125.277 1.45886 125.745 0.642888 126.509 0.321445C128.038 -0.321443 129.591 0.445077 131.168 0.321445C132.968 0.173086 134.743 -0.0989049 136.542 0.197812C137.405 0.346171 137.75 0.667615 138.49 1.03851C139.18 1.38468 139.895 1.48359 140.659 1.70613C141.324 1.90394 141.916 2.00284 142.384 2.59628C142.754 3.06608 142.606 3.85733 142.951 4.25295C143.321 4.64857 144.011 4.59912 144.455 5.06892C144.874 5.514 145.121 6.25579 145.318 6.8245C145.614 7.59102 145.638 7.86301 146.156 8.48117C146.6 9.00043 147.241 9.4455 147.611 10.0389C148.473 11.4483 148.498 13.5254 148.227 15.1079C148.128 15.6518 147.339 17.0612 147.463 17.531C147.586 17.9761 148.325 17.8525 148.646 18.1245C148.942 18.3717 149.188 19.435 149.41 19.5092C149.903 19.6575 150.519 18.6685 150.889 18.5201C151.53 18.2728 151.801 18.0009 152.171 18.9652C152.442 19.6822 152.072 20.6466 151.875 21.3142C151.629 22.1796 151.357 23.2181 150.692 23.861C149.928 24.6275 149.311 24.2072 148.449 24.6275C147.167 25.2457 147.537 27.1744 145.984 27.7431C144.48 28.2623 142.828 26.6057 141.694 25.8391C141.941 27.6936 142.804 29.4739 142.384 31.3779C145.836 30.0179 149.237 28.114 152.984 27.6689C154.907 27.4464 156.83 27.1991 158.63 27.9903C160.75 28.9299 162.031 30.9822 163.461 32.6884C166.148 35.9028 168.909 39.0183 171.497 42.3564C173.864 45.3978 175.861 48.9336 178.474 51.7772ZM181.111 64.0415C181.185 62.0386 180.273 60.0605 179.46 58.2555C178.769 56.6977 178.227 55.5109 177.142 54.2004C175.737 52.4942 174.529 50.6398 173.223 48.8595C172.237 47.5242 171.251 46.189 170.24 44.829C169.525 43.8647 169.55 43.5433 168.465 43.6422C167.405 43.7411 166.321 44.384 165.31 44.7054C163.806 45.1999 162.007 45.4719 160.651 46.2632C159.763 46.7824 159.739 46.8813 159.739 47.7715C159.739 48.6616 160.01 49.5518 160.528 50.2936C161.563 51.6535 163.289 52.3706 164.768 53.0382C165.606 53.4586 166.37 53.9531 167.109 54.5218C167.923 55.1152 169.575 55.4367 170.216 56.1043C172.04 58.033 168.712 57.6621 167.8 57.5879C165.803 57.4643 163.806 57.489 161.785 57.489C159.591 57.489 157.397 57.3901 155.228 57.4643C153.847 57.489 152.541 56.8708 151.678 55.7829C151.284 55.2636 151.136 54.7691 150.593 54.2251C149.903 53.508 149.311 52.7662 148.473 52.2222C147.117 51.3321 144.652 50.8128 143.025 51.159C143.617 51.2332 146.329 52.1728 145.121 53.3349C144.973 53.4833 143.223 53.5822 142.853 53.7553C142.163 54.0767 141.3 54.5218 140.905 55.1894C142.089 54.9916 146.427 54.7691 144.209 57.0192C143.666 57.5632 142.089 58.1319 143.42 58.7253C143.716 58.8489 144.332 58.6759 144.726 58.7995C145.318 58.9726 145.786 59.4671 146.329 59.7391C147.882 60.4809 150.026 60.926 151.653 60.7776C153.946 60.5303 156.288 60.926 158.506 61.2227C161.44 61.6925 164.299 62.5826 166.986 63.8931C168.465 64.5855 170.092 65.3273 171.769 65.624C173.617 65.9454 175.565 65.7971 177.438 65.896C178.104 65.9454 179.854 66.2669 180.495 65.8712C181.136 65.4756 181.087 64.8327 181.111 64.0415ZM167.479 41.3921C166.937 39.8096 165.285 38.3507 164.151 37.1638C162.722 35.6803 161.612 33.9247 160.183 32.4411C157.372 29.5481 152.27 30.463 148.695 31.2048C147.512 31.452 144.061 31.7488 143.469 32.6142C143.099 33.1582 143.321 34.5181 143.05 35.1857C142.68 36.1006 142.039 36.966 141.546 37.8315C139.698 40.947 137.824 44.0873 134.644 45.8923L136.197 47.1286C137.923 45.5956 139.87 44.3592 141.99 43.4444C143.864 42.6284 146.181 41.7135 148.276 41.8619C150.864 42.035 149.78 44.1367 149.78 45.917C149.78 48.2907 148.744 51.703 151.555 52.9146C152.467 49.626 154.414 41.8866 159.073 46.189C160.257 43.024 164.496 41.9608 167.479 41.3921ZM159.295 54.5218C160.552 54.4476 161.81 54.7443 163.042 54.6207C161.957 53.6811 160.873 52.7168 159.763 51.7772C159.295 52.6179 159.27 53.5822 159.295 54.5218ZM156.362 54.5218C157.101 54.7196 157.348 54.4476 157.077 53.6811V52.1975C157.175 51.2085 157.989 49.354 157.027 48.6864C155.696 47.7715 155.129 49.2798 154.833 50.17C154.464 51.2579 152.91 53.9531 154.266 54.6454C154.587 54.7938 156.09 54.6207 156.362 54.5218ZM150.84 82.4874C152.023 76.3553 153.428 70.2726 155.03 64.1651C153.97 63.9179 152.935 63.6706 151.875 63.3986C151.826 64.6844 151.407 65.7971 151.21 67.0828C150.963 68.8631 150.47 70.5693 150.174 72.3248C149.607 75.6876 148.597 78.9515 147.684 82.2154C146.772 85.5535 146.452 88.9905 145.614 92.3285C144.924 95.0979 144.554 98.1145 144.159 100.958C143.223 107.832 141.867 114.731 140.831 121.605C139.87 128.058 139.771 134.635 139.821 141.163C139.845 145.144 140.462 149.1 140.437 153.081C140.437 154.07 140.511 155.06 140.56 156.024C140.585 156.716 140.215 158.645 140.536 159.214C140.733 159.584 141.596 159.931 141.891 160.425C142.36 161.241 142.483 162.205 143.247 162.799C143.864 160.277 143.568 156.939 143.444 154.367C143.321 151.895 143.568 149.323 143.617 146.801C143.716 141.856 143.987 136.984 144.233 132.039C144.504 126.599 145.293 121.061 146.057 115.67C146.772 110.824 147.241 105.854 147.783 100.958C148.646 94.8012 149.681 88.5454 150.84 82.4874ZM148.449 66.885C148.769 65.5251 149.435 64.2888 149.583 62.8793C148.449 63.1513 148.202 65.7476 147.857 66.7119C147.241 68.4922 146.551 70.2231 145.737 71.9292C144.455 74.6491 143.099 77.2701 141.645 79.9159C140.166 82.6852 138.49 85.3557 136.616 87.9025C136 88.7432 135.137 89.3861 134.743 90.301C134.102 91.7351 133.831 93.466 133.239 94.9495C133.658 95.1721 134.767 95.2215 135.285 95.3204C136.172 95.4688 137.06 95.7408 137.873 96.1364C139.525 96.9524 140.905 97.9167 141.99 99.4003C142.261 98.708 142.335 97.892 142.434 97.076C143.617 91.2653 144.307 85.3557 145.712 79.5944C146.403 76.7262 146.896 73.8084 147.586 70.9154C147.906 69.5802 148.128 68.2203 148.449 66.885ZM147.561 47.3511C147.586 46.7577 147.734 46.0406 147.635 45.4472C147.438 44.2109 147.857 44.829 146.97 44.8043C144.85 44.7301 142.163 46.5846 140.289 47.45C138.194 48.4391 136.863 48.5875 136.838 51.0107C136.813 53.3102 136.172 55.585 135.901 57.8599C135.778 58.8489 135.679 63.9673 133.88 62.0881C133.19 61.3463 133.633 60.2336 133.683 59.3187C133.732 58.0577 133.707 56.7719 133.732 55.5356C133.781 54.4971 133.831 53.4586 133.954 52.4201C134.028 51.7277 134.693 49.7002 134.324 49.1067C133.929 48.4391 132.573 48.3897 131.908 48.2413C130.651 47.9446 129.467 47.6726 128.185 47.4748C127.052 47.3017 125.893 47.2275 124.734 47.2028C123.452 47.1533 123.132 46.8072 122.861 48.2166C122.639 49.3293 122.343 50.4914 122.294 51.6288C122.245 52.6921 122.59 53.6317 121.53 54.3487C123.847 54.3487 126.879 52.2717 128.999 54.1262C132.031 56.7719 126.756 57.5384 125.351 58.1319C126.509 58.7006 128.235 59.1457 128.777 60.4314C129.393 61.8656 128.506 62.4837 127.15 62.6074C127.273 63.1761 127.766 63.5222 127.914 64.1898C128.136 65.1789 127.446 64.8575 128.309 65.5993C129.467 66.5883 131.858 67.2559 133.288 67.8988C133.633 68.0472 133.954 68.1955 134.299 68.3192C134.841 68.789 135.236 68.7148 135.482 68.0472C136.222 67.5774 136.863 66.5389 137.504 65.9454C138.958 64.6102 140.536 63.4233 142.261 62.459C141.546 62.1623 140.708 62.8299 140.018 62.5084C139.476 62.2365 139.673 61.7667 139.352 61.4205C139.476 60.9507 139.352 60.7776 138.933 60.9012C138.736 60.926 138.539 60.8765 138.366 60.8023C138.021 60.382 137.873 60.2336 137.849 59.566C137.824 58.8737 138.218 58.6264 138.391 58.0577C138.909 57.7115 138.884 57.3653 138.366 57.0439C138.145 56.6977 138.021 56.3021 138.021 55.8818C137.923 54.324 139.328 53.7058 140.412 52.8899C138.49 52.6673 138.564 50.4172 139.895 49.4282C141.275 48.3896 144.209 48.81 145.86 49.0573C146.205 49.1067 147.142 49.5518 147.487 49.2798C147.709 49.1067 147.561 47.6231 147.561 47.3511ZM146.526 63.9673C144.85 64.6102 143.617 65.6982 142.138 66.5883C140.338 67.6763 138.218 68.7148 136.616 70.0747C136.025 70.5693 135.704 71.4347 134.866 71.4841C134.151 71.5336 133.066 70.7176 132.45 70.4209C131.39 69.9264 130.379 69.2093 129.319 68.7642C128.457 68.4181 128.062 68.4922 127.298 67.7999C126.879 70.322 119.188 67.973 117.561 67.9235C116.057 67.8988 114.011 68.0719 112.631 68.6653C111.299 69.234 110.264 70.4951 109.13 71.3605C107.577 72.5474 106.098 73.7342 104.94 75.3662C103.362 77.6163 105.728 76.9734 107.306 76.8251C110.905 76.5283 114.406 77.369 117.881 78.2097C120.987 78.9268 124.044 79.8664 127.027 81.0533C128.703 81.7209 130.453 82.3638 132.031 83.2292C132.869 83.699 134.2 84.8364 135.162 84.4903C136.025 84.1935 136.912 81.6714 137.43 80.6824C138.465 78.729 139.525 76.8251 140.61 74.8964C142.68 71.2863 144.652 67.6763 146.526 63.9673ZM141.67 33.1334C141.793 32.812 142.138 32.2927 142.089 31.9466C141.99 31.279 141.965 31.9466 141.744 31.5015C141.546 31.0564 141.226 30.6608 141.053 30.1663C140.388 28.386 139.919 26.5562 139.648 24.677C139.525 23.8363 139.476 22.9709 139.5 22.1302C139.5 21.8335 139.673 20.968 139.574 20.7702C139.476 20.5724 138.909 20.4735 138.736 20.2757C138.416 19.9048 137.873 18.8416 137.504 18.5696C137.06 18.2234 136.098 18.4954 135.926 17.8278C135.655 16.7398 142.335 14.9595 139.204 13.5006C136.863 12.4127 133.288 17.9019 132.475 13.5748C132.327 12.833 132.598 11.8192 132.278 11.1269C131.908 10.3604 130.922 10.0884 130.256 9.71749C129.369 9.24769 128.481 8.75316 127.643 8.25863C127.052 7.91246 126.213 6.97286 125.597 6.87395C125.844 8.135 125.375 9.39605 125.375 10.6818C126.731 10.3109 127.643 10.3109 128.974 10.9538C129.615 11.2753 132.006 13.0308 130.774 13.8715C129.788 13.2781 128.728 12.8083 127.643 12.4374C127.175 12.2643 126.706 12.1654 126.213 12.116C125.153 12.0912 125.301 12.2149 124.907 13.0061C124.512 13.7726 124.611 15.8002 123.748 16.2947C122.885 16.814 123.551 16.0969 122.812 16.2453C122.392 16.3442 121.924 16.6656 121.53 16.8387C122.072 17.4321 123.132 17.9514 123.502 18.5943C124.019 19.5339 123.847 21.4873 123.921 22.5011C124.586 22.2538 125.301 22.2538 125.992 22.056C126.632 21.8829 127.52 21.1411 127.594 22.2291C127.692 23.5396 125.794 23.861 124.932 23.861C124.586 23.8363 124.266 23.7868 123.921 23.7621C123.97 24.4792 123.822 25.6413 124.315 26.0122C124.685 26.2842 125.474 26.21 125.918 26.2842C127.421 26.5809 129.196 26.8282 130.7 26.2842C131.292 26.0864 130.897 25.7402 131.711 25.8886C132.672 26.0617 132.327 26.21 132.598 26.8035C132.82 27.2733 132.918 28.0645 133.165 28.6332C133.485 29.375 134.151 30.735 133.88 31.6004C133.609 32.4411 132.573 32.6884 132.13 33.6527C131.809 34.3698 131.883 35.3835 131.711 36.1748C131.489 37.2133 131.193 38.2518 131.07 39.315C130.922 40.6503 130.971 42.2328 132.623 42.4306C134.151 42.6284 135.26 42.1339 136.296 40.9964C138.268 38.8452 140.511 35.8286 141.67 33.1334ZM141.078 104.84C141.201 103.307 140.363 102.442 139.278 101.28C138.268 100.241 137.134 99.3508 135.877 98.6338C135.334 98.3123 134.767 97.9662 134.225 97.6447C133.411 97.1749 132.302 96.4084 131.883 97.3975C132.771 97.62 132.968 98.7821 132.179 99.1778C131.735 99.4003 131.07 99.0789 130.552 99.3014C129.788 99.6723 129.024 100.711 128.358 101.28C126.189 103.109 124.093 103.802 121.259 103.95C115.318 104.247 109.081 103.579 103.239 102.689C101.735 102.466 100.231 102.714 98.7275 102.664C97.2484 102.615 95.72 102.293 94.2656 102.046C91.48 101.576 88.5219 101.181 85.7857 100.464C82.4331 99.6228 79.1545 98.4854 75.9992 97.076C73.0164 95.6913 69.6146 93.4165 66.262 93.2434C67.6918 94.6528 69.8364 95.1968 71.5867 96.1364C72.9918 96.9029 75.2104 97.3727 76.0978 98.6338C76.6894 99.4498 76.9606 100.933 77.4043 101.898C77.8973 102.961 78.341 104.024 78.7848 105.087C79.2285 106.175 79.6968 107.239 80.0666 108.351C80.2885 109.044 80.3871 110.478 80.9294 110.948C81.7922 111.689 84.6517 112.036 85.7857 112.283C87.9303 112.753 90.3954 112.678 92.5894 112.728C93.5014 112.753 94.4135 112.876 95.2763 112.876C96.4842 112.901 96.3856 112.678 96.361 111.64C96.361 110.997 96.361 109.86 97.1991 110.379C97.7661 110.725 97.3717 112.308 97.2731 112.876C102.154 113.395 107.06 113.569 111.965 113.445C116.698 113.272 121.259 112.654 125.942 112.11C126.978 111.516 128.654 111.665 129.788 111.417C131.094 111.121 132.376 110.7 133.609 110.206C134.817 109.736 136 109.217 137.158 108.623C137.676 108.351 138.366 108.079 138.859 107.684C139.254 107.362 139.377 106.794 139.747 106.522C140.684 105.78 140.955 106.25 141.078 104.84ZM129.862 44.0872C129.615 42.6037 128.876 41.6146 128.876 39.9579C128.925 38.2271 129.393 36.6693 129.541 34.9632C126.287 34.9879 122.343 36.6199 120.075 38.9936C118.892 40.2547 117.881 41.9608 116.871 43.3702C116.23 44.3345 115.515 45.2494 114.701 46.0901C113.493 47.3017 113.839 47.5984 115.194 48.5133C115.613 47.6973 117.881 43.4196 118.843 43.5927C120.297 43.8894 117.487 48.4391 117.191 48.9831C116.279 50.6645 114.825 52.9888 115.49 54.7691C116.353 57.0934 115.096 58.4286 114.011 60.4067C115.145 60.4314 115.268 59.9864 115.663 59.022C116.18 57.761 116.723 56.7225 117.783 55.857C118.621 55.1894 119.977 54.8927 120.346 54.1015C120.839 53.0877 120.519 51.1096 120.568 49.9969C120.618 48.2907 120.642 44.2851 122.491 43.5433C124.439 42.752 127.964 43.4938 129.862 44.0872ZM126.213 123.459C126.978 120.467 127.397 117.401 128.21 114.434C127.298 114.508 126.386 114.657 125.474 114.83C124.241 115.077 124.217 115.052 124.315 116.264C124.439 118.093 124.266 119.874 124.192 121.679C123.995 125.314 124.463 129.023 124.167 132.633C124.439 132.682 124.512 132.509 124.414 132.064C124.34 129.369 125.548 126.105 126.213 123.459ZM127.002 55.5109C126.854 54.4229 121.505 55.9807 120.741 56.401C118.991 57.3901 117.635 59.1951 117.388 61.1732C117.093 63.4975 118.251 65.3025 120.568 65.8712C121.53 66.1185 122.245 66.1432 123.132 66.4894C123.724 66.7119 125.622 67.3054 126.016 66.7119C125.893 66.6872 125.77 66.6378 125.646 66.613C125.696 65.9949 124.118 66.0196 123.822 65.3273C123.231 63.9179 124.586 64.1651 125.425 64.0168C125.129 63.2255 119.582 63.5222 120.864 61.371C121.752 59.8874 125.178 62.1623 126.065 60.7529C126.657 59.838 125.03 59.6896 124.389 59.6155C123.428 59.4671 121.135 59.9369 121.209 58.6511C121.308 57.0686 125.745 55.9559 127.002 55.5109ZM115.268 65.4014C116.156 64.6102 116.131 62.731 115.613 61.6183C114.159 62.5332 103.658 65.9454 104.594 62.7063C106.295 62.1623 107.898 61.5936 109.648 61.2227C111.472 60.8271 111.595 60.4067 112.631 58.8242C113.419 57.6373 114.356 56.6977 114.134 55.2389C113.986 54.2993 113.493 53.8542 113.641 52.791C113.789 52.1233 113.986 51.4557 114.258 50.8128C114.529 50.0463 115.096 49.1809 113.789 49.1562C113.074 49.1314 113.05 49.5023 112.557 50.1452C111.669 51.3321 110.634 52.3953 109.673 53.508C108.021 55.4614 106.271 57.5384 104.422 59.3682C102.376 61.3958 100.65 63.7448 99.3191 66.3163C99.0726 66.7861 97.5935 69.5555 98.2344 70.0995C98.8014 70.594 102.031 69.4318 102.622 69.3082C105.161 68.7148 108.021 68.517 110.412 67.429C111.62 66.885 114.307 66.2421 115.268 65.4014ZM98.8507 164.307C99.0479 162.7 98.2591 160.771 98.1112 159.164C97.9633 157.507 97.84 155.826 97.5689 154.145C97.2484 152.167 97.1005 150.164 96.9772 148.161C96.9033 146.949 96.8786 145.713 96.78 144.501C96.6814 143.611 96.361 142.251 96.5828 141.386C96.5582 135.798 96.4842 130.16 96.5828 124.597C96.6075 123.014 96.7307 121.432 96.9526 119.874C97.1005 118.909 97.914 116.857 97.3717 116.412C96.9033 116.016 94.4628 116.288 93.8712 116.264C92.7126 116.239 91.554 116.19 90.3954 116.091C90.3954 118.168 91.2089 120.517 91.5787 122.569C91.9238 124.473 92.2196 126.402 92.5154 128.33C93.1317 132.484 93.3289 136.713 93.9945 140.891C94.6107 144.674 95.4242 148.433 95.8679 152.216C96.1144 154.293 96.6075 156.246 97.0019 158.323C97.1991 159.411 97.9386 163.862 98.8507 164.307ZM80.0173 166.162C82.4578 165.84 88.5466 166.582 88.2508 162.898C87.9796 159.411 85.8843 156.073 85.268 152.636C83.7396 152.958 82.3099 152.908 80.7568 152.933L77.6508 152.265C78.6615 154.169 80.8062 156.963 79.2778 159.164C78.7108 159.98 77.7494 160.227 76.8866 160.648C75.8759 161.192 74.8899 161.76 73.9285 162.403C69.9104 164.901 65.8183 167.423 61.5783 169.549C62.9095 169.97 64.9555 170.266 66.3113 169.895C67.9136 169.45 69.3681 168.461 71.0197 168.016C73.9778 167.2 76.9606 166.582 80.0173 166.162ZM33.1803 122.124C33.1803 121.11 33.0324 121.308 31.9724 120.739C30.6412 120.022 29.3347 119.058 27.8803 118.662C27.4366 118.588 26.9929 118.489 26.5738 118.415C26.0069 118.093 25.6864 118.242 25.6124 118.909C25.0701 119.503 24.725 120.566 24.2813 121.258C23.2706 122.742 21.9148 123.954 20.3371 124.77C17.5022 126.352 14.5441 127.663 11.4627 128.701C9.7125 129.295 8.11018 130.111 6.40926 130.753C5.05345 131.273 3.15532 131.421 2.11998 132.583C0.936727 133.869 2.76091 134.339 3.7716 135.229C4.60973 135.946 4.60973 136.119 5.74368 135.773C6.58182 135.526 7.346 135.006 8.13484 134.685C10.9204 133.498 14.2729 132.732 17.2804 132.41C18.3157 132.583 19.992 131.99 21.1013 131.94C23.098 131.866 25.0701 131.619 27.0175 131.223C28.5213 130.902 30.2468 130.63 31.0603 129.146C31.7752 127.836 32.0464 126.204 32.4408 124.77C32.638 124.003 33.1803 122.915 33.1803 122.124Z" fill="#303332"/>
<path d="M147.635 45.4472C147.734 46.0407 147.586 46.7577 147.561 47.3512C147.561 47.6232 147.709 49.1067 147.487 49.2798C147.142 49.5518 146.205 49.1067 145.86 49.0573C144.209 48.81 141.275 48.3897 139.895 49.4282C138.564 50.4172 138.49 52.6673 140.412 52.8899C139.328 53.7059 137.923 54.324 138.021 55.8818C138.021 56.3021 138.145 56.6978 138.366 57.0439C138.884 57.3654 138.909 57.7115 138.391 58.0577C138.219 58.6264 137.824 58.8737 137.849 59.566C137.873 60.2336 138.021 60.382 138.366 60.8023C138.539 60.8765 138.736 60.926 138.933 60.9013C139.352 60.7776 139.476 60.9507 139.352 61.4205C139.673 61.7667 139.476 62.2365 140.018 62.5085C140.708 62.8299 141.546 62.1623 142.261 62.459C140.536 63.4234 138.958 64.6102 137.504 65.9455C136.863 66.5389 136.222 67.5774 135.482 68.0472C135.236 68.7148 134.841 68.789 134.299 68.3192C133.954 68.1956 133.633 68.0472 133.288 67.8988C131.859 67.256 129.467 66.5883 128.309 65.5993C127.446 64.8575 128.136 65.1789 127.914 64.1899C127.767 63.5223 127.273 63.1761 127.15 62.6074C128.506 62.4837 129.393 61.8656 128.777 60.4314C128.235 59.1457 126.509 58.7006 125.351 58.1319C126.756 57.5385 132.031 56.7719 128.999 54.1262C126.879 52.2717 123.847 54.3487 121.53 54.3487C122.59 53.6317 122.245 52.6921 122.294 51.6288C122.343 50.4914 122.639 49.3293 122.861 48.2166C123.132 46.8072 123.453 47.1533 124.734 47.2028C125.893 47.2275 127.052 47.3017 128.186 47.4748C129.467 47.6726 130.651 47.9446 131.908 48.2413C132.573 48.3897 133.929 48.4391 134.324 49.1067C134.693 49.7002 134.028 51.7277 133.954 52.4201C133.831 53.4586 133.781 54.4971 133.732 55.5356C133.707 56.7719 133.732 58.0577 133.683 59.3188C133.633 60.2336 133.19 61.3463 133.88 62.0881C135.679 63.9673 135.778 58.849 135.901 57.8599C136.172 55.5851 136.813 53.3102 136.838 51.0107C136.863 48.5875 138.194 48.4391 140.289 47.4501C142.163 46.5846 144.85 44.7302 146.97 44.8043C147.857 44.8291 147.438 44.2109 147.635 45.4472Z" fill="#38A169"/>
<path fill-rule="evenodd" clip-rule="evenodd" d="M153.058 154.911C155.351 155.801 157.791 156.148 160.109 156.964C162.179 157.705 164.102 158.694 166.148 159.436C166.271 158.497 166.321 156.889 165.976 155.974C165.483 154.713 164.176 154.664 162.894 154.219C159.763 153.131 156.485 152.884 153.379 151.598C153.946 152.636 153.699 153.996 153.058 154.911ZM192.747 151.598C187.792 151.746 183.034 152.908 178.153 153.625C175.762 153.972 173.396 154.293 171.004 154.615C170.092 154.738 168.416 154.59 167.75 155.381C167.208 156.049 167.8 158.299 167.553 159.263C168.564 159.337 170.339 158.398 171.423 158.249C173.124 158.002 174.801 157.681 176.502 157.557C179.213 157.384 181.875 157.236 184.587 156.939C187.348 156.642 190.01 156.049 192.796 155.851C194.152 155.752 194.694 155.999 194.768 154.565C194.793 153.996 194.867 153.081 194.719 152.513C194.965 151.845 194.743 151.499 194.053 151.524C193.609 151.474 193.166 151.499 192.747 151.598ZM183.157 147.023C184.489 146.9 185.844 146.727 187.2 146.628C187.471 146.603 188.852 146.702 189.074 146.43C189.394 146.059 189.049 144.749 188.975 144.353C188.778 142.968 188.556 142.152 187.052 142.152C185.77 142.152 184.464 142.424 183.207 142.548C177.463 143.117 171.744 143.364 166.049 144.427C166.395 145.911 166.789 147.444 166.37 148.952C169.106 149.101 172.089 148.557 174.751 148.037C177.512 147.518 180.322 147.197 183.157 147.023ZM174.036 133.103C171.99 133.103 169.821 134.017 167.775 133.82C167.75 134.19 168.391 133.894 168.564 134.24C168.958 134.24 169.082 134.364 168.958 134.611C168.983 134.759 168.884 134.883 168.736 134.908C168.712 134.908 168.712 134.908 168.687 134.908C168.589 134.908 168.515 134.932 168.416 134.932C168.022 134.957 167.948 135.204 168.219 135.724C168.096 136.366 168.268 137.182 168.293 137.825C171.941 137.331 175.466 136.811 179.139 136.589C180.865 136.49 182.615 136.49 184.341 136.342C186.239 136.193 188.334 136.515 190.183 136.169C191.169 135.971 191.07 135.996 190.996 134.685C190.947 133.894 190.972 132.954 190.331 132.385C189.271 131.421 186.83 131.99 185.549 132.015C181.678 132.138 177.833 132.484 174.036 133.103ZM176.156 151.647C181.654 151.153 187.126 150.04 192.673 150.04C192.278 149.645 191.44 149.546 190.947 149.323C190.38 149.076 189.862 148.557 189.32 148.359C188.235 147.938 187.126 148.532 185.992 148.779C183.305 149.397 180.52 149.422 177.833 150.04C175.047 150.708 172.212 151.202 169.353 151.573C167.997 151.722 166.543 152.043 165.211 151.672C165.113 151.598 164.99 151.524 164.891 151.45C164.768 150.955 164.447 150.807 163.905 151.054C163.239 150.93 162.376 151.103 161.686 151.103C161.662 151.375 164.176 152.241 164.644 152.439C165.803 152.958 166.592 153.329 167.824 153.106C170.61 152.587 173.346 151.994 176.156 151.647ZM156.781 135.501C157.003 136.342 157.89 135.971 158.679 136.045C159.714 136.169 160.75 136.539 161.785 136.811C163.609 137.306 165.458 137.801 167.282 138.32C167.208 137.578 167.381 135.897 166.986 135.229C166.567 134.537 164.644 134.24 163.732 134.017C161.464 133.498 159.024 133.795 156.707 133.894C156.731 134.438 156.756 134.957 156.781 135.501ZM178.671 140.768C180.84 140.595 183.009 140.446 185.154 140.372C187.644 140.273 185.82 139.878 185.77 138.369C182.516 138.889 179.213 138.987 175.984 139.432C173.297 139.803 170.092 140.768 167.331 140.248C166.025 140.001 164.718 139.902 163.338 139.779C162.031 139.655 160.823 139.037 159.517 138.889C158.087 138.715 156.608 139.531 155.178 139.754C154.562 139.853 154.439 140.248 154.143 139.531C153.847 138.765 154.685 138.147 155.03 137.702C155.425 137.182 155.252 138.023 155.474 137.207C155.523 136.985 155.376 136.391 155.351 136.144C155.277 135.501 155.08 134.833 155.055 134.19C155.03 133.622 155.03 132.732 155.647 132.385C156.041 132.188 156.312 132.484 156.633 132.41C159.394 131.94 162.204 131.94 164.965 132.361C167.824 132.831 170.314 131.569 173.124 131.075C176.452 130.482 179.805 130.383 183.133 130.135C185.992 129.913 191.218 128.8 192.303 132.46C192.623 133.498 193.067 136.366 192.229 137.232C191.144 138.394 188.605 138.023 187.2 138.32C187.422 138.913 188.038 139.334 187.816 140.051C189.788 140.15 190.134 142.004 190.454 143.76C190.775 145.565 190.158 146.282 191.859 147.221C194.25 148.532 196.789 149.867 196.765 152.983C196.74 154.54 196.568 156.914 194.965 157.73C193.388 158.521 190.824 158.398 189.098 158.67C185.746 159.238 182.369 159.881 178.991 160.227C175.392 160.574 171.744 160.87 168.145 161.043C166.173 161.142 164.496 161.439 162.598 160.771C160.725 160.129 158.925 159.634 157.003 159.164C155.104 158.694 149.287 158.051 150.988 154.788C151.259 154.268 152.196 153.848 152.343 153.353C152.59 152.562 151.777 151.944 151.801 151.227C151.875 149.916 153.33 149.743 154.365 149.743C152.615 148.655 154.957 147.345 154.932 146.405C154.907 144.773 152.861 143.71 152.763 142.325C152.491 138.987 163.067 142.474 164.694 143.191C163.436 145.045 157.619 143.438 155.893 143.166C156.164 143.76 156.337 144.353 156.436 144.996C156.485 145.515 156.288 146.109 156.485 146.628C156.781 147.444 156.756 147.295 157.767 147.518C158.506 147.691 159.246 147.889 160.01 148.062C161.169 148.334 162.968 149.051 164.102 149.026C165.088 149.002 164.891 149.298 165.088 148.186C165.187 147.592 165.014 146.949 164.916 146.381C164.718 145.144 164.398 144.007 165.458 143.117C166.469 142.276 168.613 141.88 169.87 141.584C172.631 140.891 175.836 140.718 178.671 140.768Z" fill="#303332"/>
<path fill-rule="evenodd" clip-rule="evenodd" d="M191.859 119.849C188.852 119.379 185.795 119.206 182.763 119.379C182.936 120.146 183.083 120.888 183.256 121.654C186.091 120.912 188.975 120.467 191.859 119.849ZM167.405 125.709C166.197 125.611 167.036 126.154 167.331 126.946C167.701 127.91 167.627 129.146 167.701 130.16C171.226 128.8 175.343 128.009 179.09 127.564C180.865 127.341 182.664 127.292 184.464 127.193C184.982 127.168 186.904 127.391 187.299 127.02C187.595 126.748 187.373 125.289 187.102 124.968C185.598 123.212 179.805 124.72 177.709 124.893C174.234 125.165 170.856 125.784 167.405 125.709ZM172.41 121.011C175.54 121.308 178.548 121.283 181.678 121.753C181.432 119.75 181.728 119.256 179.46 119.157C177.463 119.058 175.442 118.984 173.445 118.984C168.958 118.984 164.472 118.91 159.961 118.91V120.937C164.151 120.492 168.243 121.259 172.41 121.011ZM157.397 128.454C159.369 128.454 161.243 129.196 163.215 129.394C164.398 129.517 164.028 129.666 164.842 130.259C166.124 131.174 166.493 130.679 166.321 129.443C165.778 125.19 160.404 126.13 157.323 125.907C157.52 126.921 157.052 127.786 156.362 128.479H157.397V128.454ZM178.696 122.989C175.861 123.039 173.026 123.187 170.216 123.138C168.958 123.113 167.331 122.866 166.099 123.088C165.187 123.237 164.447 123.707 163.437 123.88C164.891 124.671 165.63 124.127 167.159 123.954C168.687 123.781 170.24 123.781 171.793 123.682C174.308 123.533 177.019 122.915 179.509 123.088C179.534 122.718 179.263 122.693 178.696 122.989ZM156.214 132.188C154.907 132.188 156.707 130.704 156.929 130.556C155.499 130.556 155.129 129.69 155.548 128.306C155.943 126.995 156.238 127.391 155.252 126.303C154.513 125.487 154.39 124.869 155.277 123.954C156.164 123.014 157.989 123.286 158.777 122.52C160.133 121.209 158.383 118.588 160.257 117.574C161.514 116.882 163.56 116.981 164.94 116.833C166.296 116.709 167.677 116.635 169.032 116.66C171.99 116.61 175.047 117.105 178.005 117.401C179.09 117.5 180.273 117.945 181.333 117.945C182.418 117.945 183.552 117.698 184.661 117.723C185.943 117.747 187.2 117.649 188.531 117.871C189.542 118.044 191.933 118.118 192.722 118.885C195.335 121.432 189.148 122.594 188.088 122.866C189.172 124.053 189.123 125.635 188.95 127.119C189.468 127.119 190.355 126.896 190.627 127.465C190.947 128.182 189.739 128.38 189.443 128.454C187.767 128.949 185.82 128.8 184.119 128.973C180.692 129.319 177.29 129.517 173.889 130.185C172.237 130.506 170.585 130.902 168.934 131.199C168.638 131.248 168.367 131.298 168.071 131.322C167.627 131.273 167.479 131.57 167.652 132.163C167.183 132.386 165.483 131.817 164.94 131.743C161.908 131.273 159.221 131.471 156.214 132.188Z" fill="#303332"/>
<path fill-rule="evenodd" clip-rule="evenodd" d="M217.398 161.711C215.45 163.244 213.626 164.703 211.506 166.038C213.01 166.013 217.989 163.615 217.398 161.711ZM216.633 159.189C215.573 158.274 214.513 158.373 213.182 158.076C211.974 157.829 210.791 157.384 209.583 157.087C208.622 156.865 207.685 156.543 206.748 156.321C205.417 156.024 205.269 156.345 204.037 157.062C199.674 159.56 194.768 161.291 190.183 163.318C191.539 164.505 194.571 164.555 196.272 164.95C197.504 165.247 198.687 165.593 199.871 166.038C200.98 166.459 202.73 167.398 203.913 167.423C204.9 167.448 205.688 166.483 206.526 165.964C207.636 165.272 208.745 164.604 209.854 163.936C212.172 162.527 214.39 160.796 216.633 159.189ZM196.888 169.327C196.395 168.832 194.867 168.857 194.226 168.709C192.968 168.412 191.761 168.115 190.479 167.893C188.433 167.546 185.203 167.373 184.981 164.703C184.784 162.478 187.471 161.958 189.024 161.217C191.366 160.079 193.757 159.041 196.173 158.052C198.441 157.112 200.709 156.321 203.026 155.529C203.47 155.381 203.84 155.406 204.209 155.035C204.505 154.763 204.407 154.194 204.727 153.897C205.442 153.23 206.403 153.576 207.266 153.749C209.287 154.12 211.259 154.689 213.182 155.406C215.13 156.172 216.905 156.321 217.373 158.546C218.384 158.076 219.123 158.002 219 159.387C218.975 159.782 218.679 160.227 218.606 160.648C218.507 161.266 218.679 161.909 218.581 162.527C218.211 164.777 215.179 166.459 213.306 167.349C210.988 168.437 208.006 170.044 205.417 170.266C202.632 170.514 199.624 169.426 196.888 169.327Z" fill="#303332"/>
<path fill-rule="evenodd" clip-rule="evenodd" d="M161.81 131.891C160.996 131.891 160.158 131.891 159.344 131.916C160.158 131.767 160.971 131.767 161.81 131.891Z" fill="#303332"/>
<path fill-rule="evenodd" clip-rule="evenodd" d="M113.74 44.7056C113.493 45.1259 113.247 45.5215 113 45.9419C113.074 45.3979 113.272 44.9528 113.74 44.7056Z" fill="#303332"/>
<path fill-rule="evenodd" clip-rule="evenodd" d="M161.81 143.71C162.303 143.71 162.796 143.71 163.289 143.735C162.796 143.735 162.303 143.735 161.81 143.71Z" fill="#303332"/>
<path fill-rule="evenodd" clip-rule="evenodd" d="M173.149 116.833C172.582 116.808 171.99 116.758 171.423 116.734C171.99 116.758 172.557 116.783 173.149 116.833Z" fill="#303332"/>
<path fill-rule="evenodd" clip-rule="evenodd" d="M163.289 131.916C162.796 131.916 162.303 131.916 161.81 131.891C162.278 131.767 162.796 131.767 163.289 131.916Z" fill="#303332"/>
<path fill-rule="evenodd" clip-rule="evenodd" d="M182.911 61.7668C182.886 61.2723 182.886 60.7777 182.862 60.2832C182.886 60.7777 182.886 61.2723 182.911 61.7668Z" fill="#303332"/>
<path fill-rule="evenodd" clip-rule="evenodd" d="M99.0725 136.441C99.0725 136.02 99.0479 135.625 99.0479 135.204C99.0725 135.6 99.0725 136.02 99.0725 136.441Z" fill="#303332"/>
<path fill-rule="evenodd" clip-rule="evenodd" d="M156.633 27.4712C156.214 27.4959 155.819 27.5206 155.4 27.5701C155.795 27.5206 156.214 27.4959 156.633 27.4712Z" fill="#303332"/>
<path fill-rule="evenodd" clip-rule="evenodd" d="M146.181 148.309C146.181 147.988 146.156 147.642 146.156 147.32C146.156 147.642 146.156 147.963 146.181 148.309Z" fill="#303332"/>
<path fill-rule="evenodd" clip-rule="evenodd" d="M146.649 135.699C146.649 135.377 146.625 135.031 146.625 134.71C146.649 135.031 146.649 135.353 146.649 135.699Z" fill="#303332"/>
<path fill-rule="evenodd" clip-rule="evenodd" d="M138.243 141.386C138.243 141.707 138.268 142.053 138.268 142.375C138.268 142.029 138.268 141.707 138.243 141.386Z" fill="#303332"/>
<path fill-rule="evenodd" clip-rule="evenodd" d="M185.968 128.899C186.214 128.899 186.461 128.874 186.707 128.874C186.461 128.874 186.214 128.899 185.968 128.899Z" fill="#303332"/>
<path fill-rule="evenodd" clip-rule="evenodd" d="M138.736 149.298C138.761 149.62 138.761 149.966 138.785 150.287C138.761 149.941 138.761 149.62 138.736 149.298Z" fill="#303332"/>
<path fill-rule="evenodd" clip-rule="evenodd" d="M165.162 147.567C165.137 147.889 165.137 148.235 165.113 148.556C165.113 148.21 165.137 147.889 165.162 147.567Z" fill="#303332"/>
<path fill-rule="evenodd" clip-rule="evenodd" d="M136.739 0.222591C136.394 0.173138 136.049 0.123685 135.704 0.0989588C136.049 0.173138 136.419 -0.123579 136.739 0.222591Z" fill="#303332"/>
<path fill-rule="evenodd" clip-rule="evenodd" d="M121.751 127.044C121.751 127.366 121.727 127.712 121.727 128.033C121.751 127.687 121.751 127.366 121.751 127.044Z" fill="#303332"/>
<path fill-rule="evenodd" clip-rule="evenodd" d="M100.576 157.211C100.552 156.889 100.552 156.543 100.527 156.222C100.527 156.543 100.552 156.865 100.576 157.211Z" fill="#303332"/>
<path fill-rule="evenodd" clip-rule="evenodd" d="M180.298 129.394C180.544 129.394 180.791 129.394 181.037 129.369C180.791 129.394 180.544 129.394 180.298 129.394Z" fill="#303332"/>
<path fill-rule="evenodd" clip-rule="evenodd" d="M152.861 141.633C152.861 141.954 152.836 142.301 152.836 142.622C152.689 142.301 152.713 141.954 152.861 141.633Z" fill="#303332"/>
<path fill-rule="evenodd" clip-rule="evenodd" d="M196.814 169.426C197.06 169.426 197.307 169.451 197.553 169.451C197.307 169.451 197.06 169.451 196.814 169.426Z" fill="#303332"/>
<path fill-rule="evenodd" clip-rule="evenodd" d="M85.761 140.397C85.761 140.15 85.7363 139.902 85.7363 139.655C85.761 139.902 85.761 140.15 85.761 140.397Z" fill="#303332"/>
<path fill-rule="evenodd" clip-rule="evenodd" d="M186.707 140.199C186.485 140.422 186.214 140.298 185.968 140.298C186.214 140.273 186.461 140.224 186.707 140.199Z" fill="#303332"/>
<path fill-rule="evenodd" clip-rule="evenodd" d="M157.372 132.287C157.052 132.46 156.707 132.46 156.386 132.287H157.372Z" fill="#303332"/>
<path fill-rule="evenodd" clip-rule="evenodd" d="M165.014 132.163C164.694 132.138 164.349 132.113 164.028 132.064C164.349 132.089 164.669 132.113 165.014 132.163Z" fill="#303332"/>
<path fill-rule="evenodd" clip-rule="evenodd" d="M89.7051 131.001C89.7051 131.248 89.6804 131.495 89.6804 131.743C89.7051 131.495 89.7051 131.248 89.7051 131.001Z" fill="#303332"/>
<path fill-rule="evenodd" clip-rule="evenodd" d="M146.378 144.353C146.403 144.106 146.403 143.859 146.427 143.611C146.403 143.859 146.403 144.106 146.378 144.353Z" fill="#303332"/>
<path fill-rule="evenodd" clip-rule="evenodd" d="M180.298 130.086C179.977 130.111 179.632 130.135 179.312 130.16C179.632 130.135 179.953 130.111 180.298 130.086Z" fill="#303332"/>
<path fill-rule="evenodd" clip-rule="evenodd" d="M99.0725 129.27C99.0725 129.023 99.0479 128.775 99.0479 128.528C99.0725 128.775 99.0725 129.023 99.0725 129.27Z" fill="#303332"/>
<path fill-rule="evenodd" clip-rule="evenodd" d="M140.264 110.23C140.24 110.478 140.215 110.725 140.215 110.972C140.215 110.725 140.24 110.478 140.264 110.23Z" fill="#303332"/>
<path fill-rule="evenodd" clip-rule="evenodd" d="M185.228 117.698C184.908 117.871 184.562 117.871 184.242 117.698H185.228Z" fill="#303332"/>
<path fill-rule="evenodd" clip-rule="evenodd" d="M146.181 152.018C146.156 151.771 146.156 151.524 146.131 151.276C146.131 151.524 146.156 151.771 146.181 152.018Z" fill="#303332"/>
<path fill-rule="evenodd" clip-rule="evenodd" d="M146.156 153.996C146.156 153.749 146.131 153.502 146.131 153.255C146.156 153.502 146.156 153.749 146.156 153.996Z" fill="#303332"/>
<path fill-rule="evenodd" clip-rule="evenodd" d="M169.698 160.796C169.871 160.796 170.018 160.796 170.191 160.771C170.018 160.796 169.846 160.796 169.698 160.796Z" fill="#303332"/>
<path fill-rule="evenodd" clip-rule="evenodd" d="M90.2229 162.898C90.1982 162.651 90.1982 162.403 90.1736 162.156C90.1982 162.403 90.1982 162.651 90.2229 162.898Z" fill="#303332"/>
<path fill-rule="evenodd" clip-rule="evenodd" d="M143.568 164.975H144.061C143.888 165 143.716 165 143.568 164.975Z" fill="#303332"/>
<path fill-rule="evenodd" clip-rule="evenodd" d="M179.312 117.55C178.991 117.525 178.646 117.5 178.326 117.475C178.646 117.5 178.967 117.525 179.312 117.55Z" fill="#303332"/>
<path fill-rule="evenodd" clip-rule="evenodd" d="M181.037 117.822L180.298 117.723L181.037 117.822Z" fill="#303332"/>
<path fill-rule="evenodd" clip-rule="evenodd" d="M143.666 143.858C143.691 143.117 143.691 142.375 143.716 141.633C143.691 142.375 143.691 143.117 143.666 143.858Z" fill="#303332"/>
<path fill-rule="evenodd" clip-rule="evenodd" d="M124.438 116.659C124.438 117.228 124.463 117.822 124.463 118.39C124.463 117.797 124.463 117.228 124.438 116.659Z" fill="#303332"/>
<path fill-rule="evenodd" clip-rule="evenodd" d="M81.9401 152.859C81.521 152.859 81.1266 152.859 80.7075 152.884C81.1266 152.884 81.521 152.884 81.9401 152.859Z" fill="#303332"/>
<path fill-rule="evenodd" clip-rule="evenodd" d="M115.712 103.678C115.293 103.678 114.899 103.653 114.479 103.653C114.899 103.678 115.293 103.678 115.712 103.678Z" fill="#303332"/>
<path fill-rule="evenodd" clip-rule="evenodd" d="M110.535 103.406C110.215 103.406 109.87 103.406 109.549 103.431C109.87 103.431 110.19 103.431 110.535 103.406Z" fill="#303332"/>
<path fill-rule="evenodd" clip-rule="evenodd" d="M128.284 26.5564C128.703 26.5316 129.098 26.5069 129.517 26.4822C129.098 26.5069 128.679 26.5316 128.284 26.5564Z" fill="#303332"/>
<path fill-rule="evenodd" clip-rule="evenodd" d="M133.806 55.5852C133.831 55.1648 133.831 54.7692 133.855 54.3489C133.831 54.7445 133.806 55.1648 133.806 55.5852Z" fill="#303332"/>
<path fill-rule="evenodd" clip-rule="evenodd" d="M97.2236 112.777C97.5441 112.802 97.8892 112.827 98.2097 112.852C97.8646 112.827 97.5441 112.802 97.2236 112.777Z" fill="#303332"/>
<path fill-rule="evenodd" clip-rule="evenodd" d="M96.5828 125.314C96.5828 124.992 96.5828 124.646 96.6074 124.325C96.6074 124.646 96.6074 124.968 96.5828 125.314Z" fill="#303332"/>
<path fill-rule="evenodd" clip-rule="evenodd" d="M124.833 112.135C125.153 112.11 125.499 112.06 125.819 112.036C125.474 112.06 125.153 112.085 124.833 112.135Z" fill="#303332"/>
<path fill-rule="evenodd" clip-rule="evenodd" d="M147.364 106.274C147.389 105.953 147.413 105.607 147.413 105.285C147.389 105.607 147.364 105.928 147.364 106.274Z" fill="#303332"/>
<path fill-rule="evenodd" clip-rule="evenodd" d="M151.703 60.6787C152.023 60.6539 152.368 60.6292 152.689 60.6045C152.344 60.6292 152.023 60.6539 151.703 60.6787Z" fill="#303332"/>
<path fill-rule="evenodd" clip-rule="evenodd" d="M96.6321 143.858C96.6074 143.611 96.6074 143.364 96.6074 143.117C96.6074 143.364 96.6074 143.611 96.6321 143.858Z" fill="#303332"/>
<path fill-rule="evenodd" clip-rule="evenodd" d="M124.266 131.248C124.808 132.583 124.513 131.644 124.513 131.94C124.044 132.015 123.97 131.767 124.266 131.248Z" fill="#303332"/>
<path fill-rule="evenodd" clip-rule="evenodd" d="M101.661 102.689C101.414 102.689 101.168 102.664 100.921 102.664C101.168 102.689 101.414 102.689 101.661 102.689Z" fill="#303332"/>
<path fill-rule="evenodd" clip-rule="evenodd" d="M152.048 77.5916C152.072 77.2702 152.072 76.924 152.097 76.6025C152.072 76.924 152.048 77.2454 152.048 77.5916Z" fill="#303332"/>
<path fill-rule="evenodd" clip-rule="evenodd" d="M96.5828 133.968C96.6074 133.721 96.6074 133.473 96.6321 133.226C96.6074 133.473 96.5828 133.721 96.5828 133.968Z" fill="#303332"/>
<path fill-rule="evenodd" clip-rule="evenodd" d="M147.833 101.576L147.906 100.834L147.833 101.576Z" fill="#303332"/>
<path fill-rule="evenodd" clip-rule="evenodd" d="M93.3535 134.71L93.4275 135.452L93.3535 134.71Z" fill="#303332"/>
<path fill-rule="evenodd" clip-rule="evenodd" d="M92.8606 132.732L92.9345 133.473L92.8606 132.732Z" fill="#303332"/>
<path fill-rule="evenodd" clip-rule="evenodd" d="M142.187 98.8563C142.212 98.609 142.212 98.3618 142.237 98.1145C142.212 98.3618 142.187 98.609 142.187 98.8563Z" fill="#303332"/>
<path fill-rule="evenodd" clip-rule="evenodd" d="M16.3684 132.385C16.6889 132.361 17.034 132.336 17.3544 132.311C17.0093 132.336 16.6889 132.361 16.3684 132.385Z" fill="#303332"/>
<path fill-rule="evenodd" clip-rule="evenodd" d="M139.993 138.419C139.993 138.666 139.969 138.913 139.969 139.16C139.993 138.913 139.993 138.666 139.993 138.419Z" fill="#303332"/>
<path fill-rule="evenodd" clip-rule="evenodd" d="M143.913 139.16C143.937 138.913 143.937 138.666 143.962 138.419C143.937 138.666 143.913 138.913 143.913 139.16Z" fill="#303332"/>
<path fill-rule="evenodd" clip-rule="evenodd" d="M142.409 97.8673L142.483 97.1255L142.409 97.8673Z" fill="#303332"/>
<path fill-rule="evenodd" clip-rule="evenodd" d="M18.3403 132.163C18.6608 132.138 19.0059 132.089 19.3264 132.064C18.9813 132.089 18.6608 132.113 18.3403 132.163Z" fill="#303332"/>
<path fill-rule="evenodd" clip-rule="evenodd" d="M144.455 131.248C144.332 131.001 144.357 130.729 144.504 130.506C144.48 130.754 144.455 131.001 144.455 131.248Z" fill="#303332"/>
<path fill-rule="evenodd" clip-rule="evenodd" d="M140.24 126.55C140.24 126.797 140.215 127.045 140.215 127.292C140.24 127.045 140.24 126.797 140.24 126.55Z" fill="#303332"/>
<path fill-rule="evenodd" clip-rule="evenodd" d="M140.462 151.029C140.486 151.277 140.486 151.524 140.511 151.771C140.486 151.524 140.462 151.277 140.462 151.029Z" fill="#303332"/>
<path fill-rule="evenodd" clip-rule="evenodd" d="M158.605 61.0991C158.851 61.1239 159.098 61.1733 159.345 61.198C159.098 61.1486 158.851 61.1239 158.605 61.0991Z" fill="#303332"/>
<path fill-rule="evenodd" clip-rule="evenodd" d="M157.619 61.099C157.939 61.1238 158.309 60.9507 158.605 61.1979L157.619 61.099Z" fill="#303332"/>
<path fill-rule="evenodd" clip-rule="evenodd" d="M122.861 60.8518L123.847 60.926C123.502 60.9013 123.181 60.8765 122.861 60.8518Z" fill="#303332"/>
<path fill-rule="evenodd" clip-rule="evenodd" d="M106.591 113.247H107.577C107.257 113.42 106.887 113.42 106.591 113.247Z" fill="#303332"/>
<path fill-rule="evenodd" clip-rule="evenodd" d="M97.6181 154.738C97.5935 154.491 97.5688 154.244 97.5688 153.996C97.5688 154.244 97.5935 154.491 97.6181 154.738Z" fill="#303332"/>
<path fill-rule="evenodd" clip-rule="evenodd" d="M112.754 113.346C113.074 113.321 113.419 113.297 113.74 113.272C113.395 113.297 113.074 113.321 112.754 113.346Z" fill="#303332"/>
<path fill-rule="evenodd" clip-rule="evenodd" d="M140.708 156.964C140.708 157.211 140.708 157.458 140.733 157.705C140.733 157.458 140.733 157.211 140.708 156.964Z" fill="#303332"/>
<path fill-rule="evenodd" clip-rule="evenodd" d="M141.596 55.0164C141.916 54.9917 142.261 54.9422 142.582 54.9175C142.237 54.9422 141.916 54.9669 141.596 55.0164Z" fill="#303332"/>
<path fill-rule="evenodd" clip-rule="evenodd" d="M145.86 118.143L145.934 117.401L145.86 118.143Z" fill="#303332"/>
<path fill-rule="evenodd" clip-rule="evenodd" d="M157.224 52.1234C157.249 51.8761 157.274 51.6289 157.274 51.3816C157.249 51.6289 157.224 51.8761 157.224 52.1234Z" fill="#303332"/>
<path fill-rule="evenodd" clip-rule="evenodd" d="M133.806 30.8586C133.806 31.1059 133.806 31.3532 133.831 31.6004C133.831 31.3532 133.831 31.1059 133.806 30.8586Z" fill="#303332"/>
<path fill-rule="evenodd" clip-rule="evenodd" d="M125.079 26.2349C125.4 26.2596 125.745 26.2843 126.065 26.309C125.72 26.2843 125.4 26.2596 125.079 26.2349Z" fill="#303332"/>
<path fill-rule="evenodd" clip-rule="evenodd" d="M75.7773 166.78C76.0978 166.755 76.4429 166.706 76.7634 166.681C76.4183 166.706 76.0978 166.731 75.7773 166.78Z" fill="#303332"/>
<path fill-rule="evenodd" clip-rule="evenodd" d="M64.9309 169.994C65.2514 169.846 65.5965 169.846 65.917 169.994H64.9309Z" fill="#303332"/>
<path fill-rule="evenodd" clip-rule="evenodd" d="M192.87 155.628C193.437 155.603 194.028 155.579 194.595 155.529C194.004 155.579 193.437 155.603 192.87 155.628Z" fill="#303332"/>
<path fill-rule="evenodd" clip-rule="evenodd" d="M192.87 151.375C192.549 151.375 192.204 151.4 191.884 151.4C192.204 151.4 192.525 151.4 192.87 151.375Z" fill="#303332"/>
<path fill-rule="evenodd" clip-rule="evenodd" d="M187.94 146.48C188.359 146.455 188.753 146.405 189.172 146.381C188.778 146.628 188.334 146.455 187.94 146.48Z" fill="#303332"/>
<path fill-rule="evenodd" clip-rule="evenodd" d="M183.256 146.999C183.675 146.974 184.069 146.949 184.488 146.9C184.069 146.925 183.65 146.949 183.256 146.999Z" fill="#303332"/>
<path fill-rule="evenodd" clip-rule="evenodd" d="M176.354 151.425C176.674 151.4 177.019 151.375 177.34 151.351C176.995 151.375 176.674 151.4 176.354 151.425Z" fill="#303332"/>
<path fill-rule="evenodd" clip-rule="evenodd" d="M178.079 151.425C178.4 151.4 178.745 151.375 179.065 151.351C178.72 151.375 178.4 151.4 178.079 151.425Z" fill="#303332"/>
<path fill-rule="evenodd" clip-rule="evenodd" d="M179.312 151.178C179.632 151.153 179.977 151.128 180.298 151.079C179.953 151.128 179.632 151.153 179.312 151.178Z" fill="#303332"/>
<path fill-rule="evenodd" clip-rule="evenodd" d="M187.2 156.37C187.521 156.345 187.866 156.321 188.186 156.296C187.866 156.494 187.521 156.37 187.2 156.37Z" fill="#303332"/>
<path fill-rule="evenodd" clip-rule="evenodd" d="M177.833 136.614C178.153 136.589 178.498 136.54 178.819 136.515C178.474 136.54 178.153 136.564 177.833 136.614Z" fill="#303332"/>
<path fill-rule="evenodd" clip-rule="evenodd" d="M168.219 133.795C168.145 133.993 167.701 133.968 167.726 133.77C167.874 133.77 168.046 133.77 168.219 133.795Z" fill="#303332"/>
<path fill-rule="evenodd" clip-rule="evenodd" d="M156.731 134.71C156.731 134.957 156.756 135.204 156.756 135.452C156.756 135.204 156.756 134.957 156.731 134.71Z" fill="#303332"/>
<path fill-rule="evenodd" clip-rule="evenodd" d="M190.405 136.02C190.651 136.02 190.898 136.02 191.144 135.996C190.922 136.144 190.627 136.169 190.405 136.02Z" fill="#303332"/>
<path fill-rule="evenodd" clip-rule="evenodd" d="M174.628 147.988C174.949 147.963 175.294 147.938 175.614 147.889C175.269 147.914 174.949 147.938 174.628 147.988Z" fill="#303332"/>
<path fill-rule="evenodd" clip-rule="evenodd" d="M170.684 148.458L171.67 148.384L170.684 148.458Z" fill="#303332"/>
<path fill-rule="evenodd" clip-rule="evenodd" d="M189.912 155.9C190.232 155.876 190.577 155.826 190.898 155.802C190.553 155.826 190.232 155.851 189.912 155.9Z" fill="#303332"/>
<path fill-rule="evenodd" clip-rule="evenodd" d="M178.079 157.384C178.4 157.236 178.745 157.236 179.065 157.384H178.079Z" fill="#303332"/>
<path fill-rule="evenodd" clip-rule="evenodd" d="M177.562 123.286L177.093 123.138C177.66 123.138 178.252 123.113 178.819 123.113C178.819 123.113 177.611 123.311 177.562 123.286Z" fill="#303332"/>
<path fill-rule="evenodd" clip-rule="evenodd" d="M157.619 128.454C158.013 128.306 158.457 128.306 158.851 128.454H157.619Z" fill="#303332"/>
<path fill-rule="evenodd" clip-rule="evenodd" d="M177.34 121.184C177.759 121.209 178.153 121.234 178.572 121.259C178.153 121.234 177.734 121.209 177.34 121.184Z" fill="#303332"/>
<path fill-rule="evenodd" clip-rule="evenodd" d="M172.163 123.731C172.582 123.706 172.977 123.682 173.396 123.632C172.977 123.682 172.558 123.706 172.163 123.731Z" fill="#303332"/>
<path fill-rule="evenodd" clip-rule="evenodd" d="M175.368 123.237C175.688 123.212 176.033 123.187 176.354 123.163C176.009 123.187 175.688 123.212 175.368 123.237Z" fill="#303332"/>
<path fill-rule="evenodd" clip-rule="evenodd" d="M172.656 120.937C172.976 120.962 173.322 120.986 173.642 121.011C173.297 120.986 172.976 120.962 172.656 120.937Z" fill="#303332"/>
<path fill-rule="evenodd" clip-rule="evenodd" d="M173.149 123.212C172.976 123.212 172.829 123.187 172.656 123.187C172.829 123.187 172.976 123.212 173.149 123.212Z" fill="#303332"/>
<path fill-rule="evenodd" clip-rule="evenodd" d="M169.944 123.212C169.772 123.212 169.624 123.212 169.451 123.187C169.599 123.212 169.772 123.212 169.944 123.212Z" fill="#303332"/>
<path fill-rule="evenodd" clip-rule="evenodd" d="M178.819 122.989C178.819 123.064 179.558 122.717 179.558 123.039L178.819 122.989Z" fill="#303332"/>
<path fill-rule="evenodd" clip-rule="evenodd" d="M88.5959 107.263C88.8671 106.176 88.7932 105.31 89.7299 106.002C90.2476 106.398 91.1104 108.327 91.0364 108.994C90.9624 109.81 90.5927 110.132 89.8285 109.86C88.9657 109.588 88.6206 108.104 88.5959 107.263Z" fill="#303332"/>
<path fill-rule="evenodd" clip-rule="evenodd" d="M136.616 100.637C138.835 100.637 137.849 102.986 136.024 103.035C135.186 103.06 133.954 102.887 134.225 101.749C134.373 101.156 136.518 100.34 136.616 100.637Z" fill="#303332"/>
<path fill-rule="evenodd" clip-rule="evenodd" d="M112.951 105.285C114.553 106.052 112.31 109.464 110.856 108.623C108.982 107.535 112.286 105.755 112.951 105.285Z" fill="#303332"/>
<path fill-rule="evenodd" clip-rule="evenodd" d="M109.056 108.5C109.574 109.068 111.94 110.997 110.634 111.788C109.056 112.728 107.824 109.563 109.056 108.5Z" fill="#303332"/>
<path fill-rule="evenodd" clip-rule="evenodd" d="M82.359 107.016C81.8414 106.002 82.5563 103.381 84.1339 103.851C85.7116 104.346 83.2218 106.744 82.359 107.016Z" fill="#303332"/>
<path fill-rule="evenodd" clip-rule="evenodd" d="M117.512 107.585C118.547 107.164 118.35 108.401 118.498 108.796C118.67 109.241 119.582 110.354 119.361 110.824C119.015 111.541 118.202 111.071 117.783 110.626C117.019 109.81 117.068 108.524 117.512 107.585Z" fill="#303332"/>
<path fill-rule="evenodd" clip-rule="evenodd" d="M101.759 108.722C100.897 108.722 98.8506 106.225 100.059 105.805C101.562 105.31 102.819 108.92 101.759 108.722Z" fill="#303332"/>
<path fill-rule="evenodd" clip-rule="evenodd" d="M131.538 104.791C132.327 104.989 133.362 107.239 132.179 107.486C130.873 107.758 130.626 105.409 131.538 104.791Z" fill="#303332"/>
<path fill-rule="evenodd" clip-rule="evenodd" d="M126.756 108.994C126.14 107.807 125.992 105.236 127.495 107.288C127.816 107.733 128.161 107.56 127.988 108.277C127.841 108.92 127.249 108.994 126.756 108.994Z" fill="#303332"/>
<path fill-rule="evenodd" clip-rule="evenodd" d="M94.1669 102.812C94.8079 103.777 94.6107 106.744 93.3042 104.988C92.7125 104.222 93.1069 102.837 94.1669 102.812Z" fill="#303332"/>
<path fill-rule="evenodd" clip-rule="evenodd" d="M125.868 13.0803C127.101 12.7589 127.397 15.6519 126.682 15.9733C125.671 16.4184 125.794 13.5501 125.868 13.0803Z" fill="#303332"/>
<path fill-rule="evenodd" clip-rule="evenodd" d="M203.248 160.079C202.114 160.005 200.512 159.708 202.237 158.892C203.322 158.373 204.949 158.348 206.107 158.546C206.896 158.694 208.104 159.362 206.872 160.203C206.181 160.722 204.111 160.104 203.248 160.079Z" fill="#303332"/>
<path fill-rule="evenodd" clip-rule="evenodd" d="M201.991 162.156C201.67 162.107 201.325 162.082 201.005 162.057C201.251 161.563 202.04 161.464 201.991 162.156Z" fill="#303332"/>
<path fill-rule="evenodd" clip-rule="evenodd" d="M203.47 160.03C203.79 160.03 204.136 160.054 204.456 160.054C204.111 160.054 203.79 160.054 203.47 160.03Z" fill="#303332"/>
</g>
<defs>
<clipPath id="clip0">
<rect width="219" height="174" fill="white"/>
</clipPath>
</defs>
</svg>
